<?xml version="1.0" encoding="utf-8"?>
<!-- Generator: Adobe Illustrator 27.5.0, SVG Export Plug-In . SVG Version: 6.00 Build 0)  -->
<svg version="1.1" xmlns="http://www.w3.org/2000/svg" xmlns:xlink="http://www.w3.org/1999/xlink" x="0px" y="0px"
	 viewBox="0 0 500 500" style="enable-background:new 0 0 500 500;" xml:space="preserve">
<g id="BACKGROUND">
	<g>
		<radialGradient id="SVGID_1_" cx="250" cy="250" r="292.845" gradientUnits="userSpaceOnUse">
			<stop  offset="0" style="stop-color:#4398FF"/>
			<stop  offset="0.6533" style="stop-color:#1866CF"/>
			<stop  offset="1" style="stop-color:#004AB3"/>
		</radialGradient>
		<rect style="fill-rule:evenodd;clip-rule:evenodd;fill:url(#SVGID_1_);" width="500" height="500"/>
		<g style="opacity:0.35;">
			
				<radialGradient id="SVGID_00000181803116911458514550000000239489208360108166_" cx="160.5997" cy="159.9997" r="382.5" gradientTransform="matrix(0.625 0 0 0.625 149.6252 150.0002)" gradientUnits="userSpaceOnUse">
				<stop  offset="0" style="stop-color:#FFFFFF"/>
				<stop  offset="0.8662" style="stop-color:#FFFFFF;stop-opacity:0.1338"/>
				<stop  offset="1" style="stop-color:#FFFFFF;stop-opacity:0"/>
			</radialGradient>
			<path style="fill:url(#SVGID_00000181803116911458514550000000239489208360108166_);" d="M489.062,13.3v-0.625h-1.737v-1.738
				H486.7v1.738h-13.317v-1.738h-0.625v1.738h-13.316v-1.738h-0.625v1.738h-13.317v-1.738h-0.625v1.738h-13.317v-1.738h-0.625v1.738
				h-13.316v-1.738h-0.625v1.738h-13.317v-1.738h-0.625v1.738h-13.316v-1.738h-0.625v1.738H375.79v-1.738h-0.625v1.738h-13.317
				v-1.738h-0.625v1.738h-13.316v-1.738h-0.625v1.738h-13.317v-1.738h-0.625v1.738h-13.317v-1.738h-0.625v1.738H306.08v-1.738
				h-0.625v1.738h-13.317v-1.738h-0.625v1.738h-13.316v-1.738h-0.625v1.738h-13.317v-1.738h-0.625v1.738h-13.316v-1.738h-0.625
				v1.738h-13.316v-1.738h-0.625v1.738h-13.317v-1.738h-0.625v1.738h-13.316v-1.738h-0.625v1.738h-13.317v-1.738h-0.625v1.738
				h-13.316v-1.738h-0.625v1.738h-13.317v-1.738h-0.625v1.738h-13.317v-1.738h-0.625v1.738h-13.316v-1.738h-0.625v1.738h-13.316
				v-1.738h-0.625v1.738h-13.317v-1.738h-0.625v1.738H96.952v-1.738h-0.625v1.738H83.01v-1.738h-0.625v1.738H69.068v-1.738h-0.625
				v1.738H55.126v-1.738h-0.625v1.738H41.184v-1.738h-0.625v1.738H27.242v-1.738h-0.625v1.738H13.3v-1.738h-0.625v1.738h-1.738V13.3
				h1.738v13.317h-1.738v0.625h1.738v13.317h-1.738v0.625h1.738v13.317h-1.738v0.625h1.738v13.317h-1.738v0.625h1.738v13.317h-1.738
				v0.625h1.738v13.317h-1.738v0.625h1.738v13.317h-1.738v0.625h1.738v13.317h-1.738v0.625h1.738v13.316h-1.738v0.625h1.738v13.316
				h-1.738v0.625h1.738v13.317h-1.738v0.625h1.738v13.317h-1.738v0.625h1.738v13.316h-1.738v0.625h1.738v13.317h-1.738v0.625h1.738
				v13.316h-1.738v0.625h1.738v13.317h-1.738v0.625h1.738v13.316h-1.738v0.625h1.738v13.316h-1.738v0.625h1.738v13.317h-1.738v0.625
				h1.738v13.316h-1.738v0.625h1.738v13.317h-1.738v0.625h1.738v13.316h-1.738v0.625h1.738v13.317h-1.738v0.625h1.738v13.317h-1.738
				v0.625h1.738v13.317h-1.738v0.625h1.738v13.317h-1.738v0.625h1.738v13.316h-1.738v0.625h1.738v13.316h-1.738v0.625h1.738v13.317
				h-1.738v0.625h1.738v13.316h-1.738v0.625h1.738v13.317h-1.738v0.625h1.738v13.317h-1.738v0.625h1.738v13.316h-1.738v0.625h1.738
				V486.7h-1.738v0.625h1.738v1.737H13.3v-1.737h13.317v1.737h0.625v-1.737h13.317v1.737h0.625v-1.737h13.317v1.737h0.625v-1.737
				h13.317v1.737h0.625v-1.737h13.317v1.737h0.625v-1.737h13.317v1.737h0.625v-1.737h13.317v1.737h0.625v-1.737h13.317v1.737h0.625
				v-1.737h13.316v1.737h0.625v-1.737h13.316v1.737h0.625v-1.737h13.317v1.737h0.625v-1.737h13.317v1.737h0.625v-1.737h13.316v1.737
				h0.625v-1.737h13.317v1.737h0.625v-1.737h13.316v1.737h0.625v-1.737h13.317v1.737h0.625v-1.737h13.316v1.737h0.625v-1.737h13.316
				v1.737h0.625v-1.737h13.317v1.737h0.625v-1.737h13.316v1.737h0.625v-1.737h13.317v1.737h0.625v-1.737h13.316v1.737h0.625v-1.737
				h13.317v1.737h0.625v-1.737h13.317v1.737h0.625v-1.737h13.316v1.737h0.625v-1.737h13.317v1.737h0.625v-1.737h13.316v1.737h0.625
				v-1.737h13.316v1.737h0.625v-1.737h13.317v1.737h0.625v-1.737h13.316v1.737h0.625v-1.737h13.317v1.737h0.625v-1.737h13.317v1.737
				h0.625v-1.737h13.316v1.737h0.625v-1.737H486.7v1.737h0.625v-1.737h1.737V486.7h-1.737v-13.317h1.737v-0.625h-1.737v-13.316
				h1.737v-0.625h-1.737v-13.317h1.737v-0.625h-1.737v-13.317h1.737v-0.625h-1.737v-13.316h1.737v-0.625h-1.737v-13.317h1.737
				v-0.625h-1.737v-13.316h1.737v-0.625h-1.737V375.79h1.737v-0.625h-1.737v-13.317h1.737v-0.625h-1.737v-13.317h1.737v-0.625
				h-1.737v-13.317h1.737v-0.625h-1.737v-13.317h1.737v-0.625h-1.737V306.08h1.737v-0.625h-1.737v-13.317h1.737v-0.625h-1.737
				v-13.316h1.737v-0.625h-1.737v-13.317h1.737v-0.625h-1.737v-13.316h1.737v-0.625h-1.737v-13.316h1.737v-0.625h-1.737v-13.317
				h1.737v-0.625h-1.737v-13.316h1.737v-0.625h-1.737v-13.317h1.737v-0.625h-1.737v-13.316h1.737v-0.625h-1.737v-13.317h1.737
				v-0.625h-1.737v-13.317h1.737v-0.625h-1.737v-13.316h1.737v-0.625h-1.737v-13.316h1.737v-0.625h-1.737v-13.317h1.737v-0.625
				h-1.737V96.952h1.737v-0.625h-1.737V83.01h1.737v-0.625h-1.737V69.068h1.737v-0.625h-1.737V55.126h1.737v-0.625h-1.737V41.184
				h1.737v-0.625h-1.737V27.242h1.737v-0.625h-1.737V13.3H489.062z M472.758,13.3v13.317h-13.316V13.3H472.758z M249.687,250.313
				v13.316h-13.316v-13.316H249.687z M236.371,249.688v-13.316h13.316v13.316H236.371z M250.312,250.313h13.316v13.316h-13.316
				V250.313z M250.312,249.688v-13.316h13.316v13.316H250.312z M250.312,235.746v-13.317h13.316v13.317H250.312z M249.687,235.746
				h-13.316v-13.317h13.316V235.746z M235.746,235.746h-13.317v-13.317h13.317V235.746z M235.746,236.371v13.316h-13.317v-13.316
				H235.746z M235.746,250.313v13.316h-13.317v-13.316H235.746z M235.746,264.254v13.317h-13.317v-13.317H235.746z M236.371,264.254
				h13.316v13.317h-13.316V264.254z M250.312,264.254h13.316v13.317h-13.316V264.254z M264.254,264.254h13.317v13.317h-13.317
				V264.254z M264.254,263.629v-13.316h13.317v13.316H264.254z M264.254,249.688v-13.316h13.317v13.316H264.254z M264.254,235.746
				v-13.317h13.317v13.317H264.254z M264.254,221.804v-13.316h13.317v13.316H264.254z M263.629,221.804h-13.316v-13.316h13.316
				V221.804z M249.687,221.804h-13.316v-13.316h13.316V221.804z M235.746,221.804h-13.317v-13.316h13.317V221.804z M221.804,221.804
				h-13.316v-13.316h13.316V221.804z M221.804,222.429v13.317h-13.316v-13.317H221.804z M221.804,236.371v13.316h-13.316v-13.316
				H221.804z M221.804,250.313v13.316h-13.316v-13.316H221.804z M221.804,264.254v13.317h-13.316v-13.317H221.804z M221.804,278.196
				v13.316h-13.316v-13.316H221.804z M222.429,278.196h13.317v13.316h-13.317V278.196z M236.371,278.196h13.316v13.316h-13.316
				V278.196z M250.312,278.196h13.316v13.316h-13.316V278.196z M264.254,278.196h13.317v13.316h-13.317V278.196z M278.196,278.196
				h13.316v13.316h-13.316V278.196z M278.196,277.571v-13.317h13.316v13.317H278.196z M278.196,263.629v-13.316h13.316v13.316
				H278.196z M278.196,249.688v-13.316h13.316v13.316H278.196z M278.196,235.746v-13.317h13.316v13.317H278.196z M278.196,221.804
				v-13.316h13.316v13.316H278.196z M278.196,207.862v-13.317h13.316v13.317H278.196z M277.571,207.862h-13.317v-13.317h13.317
				V207.862z M263.629,207.862h-13.316v-13.317h13.316V207.862z M249.687,207.862h-13.316v-13.317h13.316V207.862z M235.746,207.862
				h-13.317v-13.317h13.317V207.862z M221.804,207.862h-13.316v-13.317h13.316V207.862z M207.862,207.862h-13.317v-13.317h13.317
				V207.862z M207.862,208.487v13.316h-13.317v-13.316H207.862z M207.862,222.429v13.317h-13.317v-13.317H207.862z M207.862,236.371
				v13.316h-13.317v-13.316H207.862z M207.862,250.313v13.316h-13.317v-13.316H207.862z M207.862,264.254v13.317h-13.317v-13.317
				H207.862z M207.862,278.196v13.316h-13.317v-13.316H207.862z M207.862,292.138v13.317h-13.317v-13.317H207.862z M208.487,292.138
				h13.316v13.317h-13.316V292.138z M222.429,292.138h13.317v13.317h-13.317V292.138z M236.371,292.138h13.316v13.317h-13.316
				V292.138z M250.312,292.138h13.316v13.317h-13.316V292.138z M264.254,292.138h13.317v13.317h-13.317V292.138z M278.196,292.138
				h13.316v13.317h-13.316V292.138z M292.138,292.138h13.317v13.317h-13.317V292.138z M292.138,291.513v-13.316h13.317v13.316
				H292.138z M292.138,277.571v-13.317h13.317v13.317H292.138z M292.138,263.629v-13.316h13.317v13.316H292.138z M292.138,249.688
				v-13.316h13.317v13.316H292.138z M292.138,235.746v-13.317h13.317v13.317H292.138z M292.138,221.804v-13.316h13.317v13.316
				H292.138z M292.138,207.862v-13.317h13.317v13.317H292.138z M292.138,193.92v-13.316h13.317v13.316H292.138z M291.513,193.92
				h-13.316v-13.316h13.316V193.92z M277.571,193.92h-13.317v-13.316h13.317V193.92z M263.629,193.92h-13.316v-13.316h13.316V193.92
				z M249.687,193.92h-13.316v-13.316h13.316V193.92z M235.746,193.92h-13.317v-13.316h13.317V193.92z M221.804,193.92h-13.316
				v-13.316h13.316V193.92z M207.862,193.92h-13.317v-13.316h13.317V193.92z M193.92,193.92h-13.316v-13.316h13.316V193.92z
				 M193.92,194.545v13.317h-13.316v-13.317H193.92z M193.92,208.487v13.316h-13.316v-13.316H193.92z M193.92,222.429v13.317
				h-13.316v-13.317H193.92z M193.92,236.371v13.316h-13.316v-13.316H193.92z M193.92,250.313v13.316h-13.316v-13.316H193.92z
				 M193.92,264.254v13.317h-13.316v-13.317H193.92z M193.92,278.196v13.316h-13.316v-13.316H193.92z M193.92,292.138v13.317
				h-13.316v-13.317H193.92z M193.92,306.08v13.316h-13.316V306.08H193.92z M194.545,306.08h13.317v13.316h-13.317V306.08z
				 M208.487,306.08h13.316v13.316h-13.316V306.08z M222.429,306.08h13.317v13.316h-13.317V306.08z M236.371,306.08h13.316v13.316
				h-13.316V306.08z M250.312,306.08h13.316v13.316h-13.316V306.08z M264.254,306.08h13.317v13.316h-13.317V306.08z M278.196,306.08
				h13.316v13.316h-13.316V306.08z M292.138,306.08h13.317v13.316h-13.317V306.08z M306.08,306.08h13.316v13.316H306.08V306.08z
				 M306.08,305.455v-13.317h13.316v13.317H306.08z M306.08,291.513v-13.316h13.316v13.316H306.08z M306.08,277.571v-13.317h13.316
				v13.317H306.08z M306.08,263.629v-13.316h13.316v13.316H306.08z M306.08,249.688v-13.316h13.316v13.316H306.08z M306.08,235.746
				v-13.317h13.316v13.317H306.08z M306.08,221.804v-13.316h13.316v13.316H306.08z M306.08,207.862v-13.317h13.316v13.317H306.08z
				 M306.08,193.92v-13.316h13.316v13.316H306.08z M306.08,179.979v-13.317h13.316v13.317H306.08z M305.455,179.979h-13.317v-13.317
				h13.317V179.979z M291.513,179.979h-13.316v-13.317h13.316V179.979z M277.571,179.979h-13.317v-13.317h13.317V179.979z
				 M263.629,179.979h-13.316v-13.317h13.316V179.979z M249.687,179.979h-13.316v-13.317h13.316V179.979z M235.746,179.979h-13.317
				v-13.317h13.317V179.979z M221.804,179.979h-13.316v-13.317h13.316V179.979z M207.862,179.979h-13.317v-13.317h13.317V179.979z
				 M193.92,179.979h-13.316v-13.317h13.316V179.979z M179.978,179.979h-13.317v-13.317h13.317V179.979z M179.978,180.604v13.316
				h-13.317v-13.316H179.978z M179.978,194.545v13.317h-13.317v-13.317H179.978z M179.978,208.487v13.316h-13.317v-13.316H179.978z
				 M179.978,222.429v13.317h-13.317v-13.317H179.978z M179.978,236.371v13.316h-13.317v-13.316H179.978z M179.978,250.313v13.316
				h-13.317v-13.316H179.978z M179.978,264.254v13.317h-13.317v-13.317H179.978z M179.978,278.196v13.316h-13.317v-13.316H179.978z
				 M179.978,292.138v13.317h-13.317v-13.317H179.978z M179.978,306.08v13.316h-13.317V306.08H179.978z M179.978,320.022v13.317
				h-13.317v-13.317H179.978z M180.603,320.022h13.316v13.317h-13.316V320.022z M194.545,320.022h13.317v13.317h-13.317V320.022z
				 M208.487,320.022h13.316v13.317h-13.316V320.022z M222.429,320.022h13.317v13.317h-13.317V320.022z M236.371,320.022h13.316
				v13.317h-13.316V320.022z M250.312,320.022h13.316v13.317h-13.316V320.022z M264.254,320.022h13.317v13.317h-13.317V320.022z
				 M278.196,320.022h13.316v13.317h-13.316V320.022z M292.138,320.022h13.317v13.317h-13.317V320.022z M306.08,320.022h13.316
				v13.317H306.08V320.022z M320.021,320.022h13.317v13.317h-13.317V320.022z M320.021,319.397V306.08h13.317v13.316H320.021z
				 M320.021,305.455v-13.317h13.317v13.317H320.021z M320.021,291.513v-13.316h13.317v13.316H320.021z M320.021,277.571v-13.317
				h13.317v13.317H320.021z M320.021,263.629v-13.316h13.317v13.316H320.021z M320.021,249.688v-13.316h13.317v13.316H320.021z
				 M320.021,235.746v-13.317h13.317v13.317H320.021z M320.021,221.804v-13.316h13.317v13.316H320.021z M320.021,207.862v-13.317
				h13.317v13.317H320.021z M320.021,193.92v-13.316h13.317v13.316H320.021z M320.021,179.979v-13.317h13.317v13.317H320.021z
				 M320.021,166.036v-13.317h13.317v13.317H320.021z M319.396,166.036H306.08v-13.317h13.316V166.036z M305.455,166.036h-13.317
				v-13.317h13.317V166.036z M291.513,166.036h-13.316v-13.317h13.316V166.036z M277.571,166.036h-13.317v-13.317h13.317V166.036z
				 M263.629,166.036h-13.316v-13.317h13.316V166.036z M249.687,166.036h-13.316v-13.317h13.316V166.036z M235.746,166.036h-13.317
				v-13.317h13.317V166.036z M221.804,166.036h-13.316v-13.317h13.316V166.036z M207.862,166.036h-13.317v-13.317h13.317V166.036z
				 M193.92,166.036h-13.316v-13.317h13.316V166.036z M179.978,166.036h-13.317v-13.317h13.317V166.036z M166.036,166.036h-13.317
				v-13.317h13.317V166.036z M166.036,166.661v13.317h-13.317v-13.317H166.036z M166.036,180.604v13.316h-13.317v-13.316H166.036z
				 M166.036,194.545v13.317h-13.317v-13.317H166.036z M166.036,208.487v13.316h-13.317v-13.316H166.036z M166.036,222.429v13.317
				h-13.317v-13.317H166.036z M166.036,236.371v13.316h-13.317v-13.316H166.036z M166.036,250.313v13.316h-13.317v-13.316H166.036z
				 M166.036,264.254v13.317h-13.317v-13.317H166.036z M166.036,278.196v13.316h-13.317v-13.316H166.036z M166.036,292.138v13.317
				h-13.317v-13.317H166.036z M166.036,306.08v13.316h-13.317V306.08H166.036z M166.036,320.022v13.317h-13.317v-13.317H166.036z
				 M166.036,333.964v13.317h-13.317v-13.317H166.036z M166.661,333.964h13.317v13.317h-13.317V333.964z M180.603,333.964h13.316
				v13.317h-13.316V333.964z M194.545,333.964h13.317v13.317h-13.317V333.964z M208.487,333.964h13.316v13.317h-13.316V333.964z
				 M222.429,333.964h13.317v13.317h-13.317V333.964z M236.371,333.964h13.316v13.317h-13.316V333.964z M250.312,333.964h13.316
				v13.317h-13.316V333.964z M264.254,333.964h13.317v13.317h-13.317V333.964z M278.196,333.964h13.316v13.317h-13.316V333.964z
				 M292.138,333.964h13.317v13.317h-13.317V333.964z M306.08,333.964h13.316v13.317H306.08V333.964z M320.021,333.964h13.317
				v13.317h-13.317V333.964z M333.964,333.964h13.317v13.317h-13.317V333.964z M333.964,333.339v-13.317h13.317v13.317H333.964z
				 M333.964,319.397V306.08h13.317v13.316H333.964z M333.964,305.455v-13.317h13.317v13.317H333.964z M333.964,291.513v-13.316
				h13.317v13.316H333.964z M333.964,277.571v-13.317h13.317v13.317H333.964z M333.964,263.629v-13.316h13.317v13.316H333.964z
				 M333.964,249.688v-13.316h13.317v13.316H333.964z M333.964,235.746v-13.317h13.317v13.317H333.964z M333.964,221.804v-13.316
				h13.317v13.316H333.964z M333.964,207.862v-13.317h13.317v13.317H333.964z M333.964,193.92v-13.316h13.317v13.316H333.964z
				 M333.964,179.979v-13.317h13.317v13.317H333.964z M333.964,166.036v-13.317h13.317v13.317H333.964z M333.964,152.094v-13.316
				h13.317v13.316H333.964z M333.339,152.094h-13.317v-13.316h13.317V152.094z M319.396,152.094H306.08v-13.316h13.316V152.094z
				 M305.455,152.094h-13.317v-13.316h13.317V152.094z M291.513,152.094h-13.316v-13.316h13.316V152.094z M277.571,152.094h-13.317
				v-13.316h13.317V152.094z M263.629,152.094h-13.316v-13.316h13.316V152.094z M249.687,152.094h-13.316v-13.316h13.316V152.094z
				 M235.746,152.094h-13.317v-13.316h13.317V152.094z M221.804,152.094h-13.316v-13.316h13.316V152.094z M207.862,152.094h-13.317
				v-13.316h13.317V152.094z M193.92,152.094h-13.316v-13.316h13.316V152.094z M179.978,152.094h-13.317v-13.316h13.317V152.094z
				 M166.036,152.094h-13.317v-13.316h13.317V152.094z M152.094,152.094h-13.316v-13.316h13.316V152.094z M152.094,152.719v13.317
				h-13.316v-13.317H152.094z M152.094,166.661v13.317h-13.316v-13.317H152.094z M152.094,180.604v13.316h-13.316v-13.316H152.094z
				 M152.094,194.545v13.317h-13.316v-13.317H152.094z M152.094,208.487v13.316h-13.316v-13.316H152.094z M152.094,222.429v13.317
				h-13.316v-13.317H152.094z M152.094,236.371v13.316h-13.316v-13.316H152.094z M152.094,250.313v13.316h-13.316v-13.316H152.094z
				 M152.094,264.254v13.317h-13.316v-13.317H152.094z M152.094,278.196v13.316h-13.316v-13.316H152.094z M152.094,292.138v13.317
				h-13.316v-13.317H152.094z M152.094,306.08v13.316h-13.316V306.08H152.094z M152.094,320.022v13.317h-13.316v-13.317H152.094z
				 M152.094,333.964v13.317h-13.316v-13.317H152.094z M152.094,347.906v13.317h-13.316v-13.317H152.094z M152.719,347.906h13.317
				v13.317h-13.317V347.906z M166.661,347.906h13.317v13.317h-13.317V347.906z M180.603,347.906h13.316v13.317h-13.316V347.906z
				 M194.545,347.906h13.317v13.317h-13.317V347.906z M208.487,347.906h13.316v13.317h-13.316V347.906z M222.429,347.906h13.317
				v13.317h-13.317V347.906z M236.371,347.906h13.316v13.317h-13.316V347.906z M250.312,347.906h13.316v13.317h-13.316V347.906z
				 M264.254,347.906h13.317v13.317h-13.317V347.906z M278.196,347.906h13.316v13.317h-13.316V347.906z M292.138,347.906h13.317
				v13.317h-13.317V347.906z M306.08,347.906h13.316v13.317H306.08V347.906z M320.021,347.906h13.317v13.317h-13.317V347.906z
				 M333.964,347.906h13.317v13.317h-13.317V347.906z M347.906,347.906h13.316v13.317h-13.316V347.906z M347.906,347.281v-13.317
				h13.316v13.317H347.906z M347.906,333.339v-13.317h13.316v13.317H347.906z M347.906,319.397V306.08h13.316v13.316H347.906z
				 M347.906,305.455v-13.317h13.316v13.317H347.906z M347.906,291.513v-13.316h13.316v13.316H347.906z M347.906,277.571v-13.317
				h13.316v13.317H347.906z M347.906,263.629v-13.316h13.316v13.316H347.906z M347.906,249.688v-13.316h13.316v13.316H347.906z
				 M347.906,235.746v-13.317h13.316v13.317H347.906z M347.906,221.804v-13.316h13.316v13.316H347.906z M347.906,207.862v-13.317
				h13.316v13.317H347.906z M347.906,193.92v-13.316h13.316v13.316H347.906z M347.906,179.979v-13.317h13.316v13.317H347.906z
				 M347.906,166.036v-13.317h13.316v13.317H347.906z M347.906,152.094v-13.316h13.316v13.316H347.906z M347.906,138.152v-13.316
				h13.316v13.316H347.906z M347.281,138.152h-13.317v-13.316h13.317V138.152z M333.339,138.152h-13.317v-13.316h13.317V138.152z
				 M319.396,138.152H306.08v-13.316h13.316V138.152z M305.455,138.152h-13.317v-13.316h13.317V138.152z M291.513,138.152h-13.316
				v-13.316h13.316V138.152z M277.571,138.152h-13.317v-13.316h13.317V138.152z M263.629,138.152h-13.316v-13.316h13.316V138.152z
				 M249.687,138.152h-13.316v-13.316h13.316V138.152z M235.746,138.152h-13.317v-13.316h13.317V138.152z M221.804,138.152h-13.316
				v-13.316h13.316V138.152z M207.862,138.152h-13.317v-13.316h13.317V138.152z M193.92,138.152h-13.316v-13.316h13.316V138.152z
				 M179.978,138.152h-13.317v-13.316h13.317V138.152z M166.036,138.152h-13.317v-13.316h13.317V138.152z M152.094,138.152h-13.316
				v-13.316h13.316V138.152z M138.152,138.152h-13.316v-13.316h13.316V138.152z M138.152,138.777v13.316h-13.316v-13.316H138.152z
				 M138.152,152.719v13.317h-13.316v-13.317H138.152z M138.152,166.661v13.317h-13.316v-13.317H138.152z M138.152,180.604v13.316
				h-13.316v-13.316H138.152z M138.152,194.545v13.317h-13.316v-13.317H138.152z M138.152,208.487v13.316h-13.316v-13.316H138.152z
				 M138.152,222.429v13.317h-13.316v-13.317H138.152z M138.152,236.371v13.316h-13.316v-13.316H138.152z M138.152,250.313v13.316
				h-13.316v-13.316H138.152z M138.152,264.254v13.317h-13.316v-13.317H138.152z M138.152,278.196v13.316h-13.316v-13.316H138.152z
				 M138.152,292.138v13.317h-13.316v-13.317H138.152z M138.152,306.08v13.316h-13.316V306.08H138.152z M138.152,320.022v13.317
				h-13.316v-13.317H138.152z M138.152,333.964v13.317h-13.316v-13.317H138.152z M138.152,347.906v13.317h-13.316v-13.317H138.152z
				 M138.152,361.848v13.317h-13.316v-13.317H138.152z M138.777,361.848h13.316v13.317h-13.316V361.848z M152.719,361.848h13.317
				v13.317h-13.317V361.848z M166.661,361.848h13.317v13.317h-13.317V361.848z M180.603,361.848h13.316v13.317h-13.316V361.848z
				 M194.545,361.848h13.317v13.317h-13.317V361.848z M208.487,361.848h13.316v13.317h-13.316V361.848z M222.429,361.848h13.317
				v13.317h-13.317V361.848z M236.371,361.848h13.316v13.317h-13.316V361.848z M250.312,361.848h13.316v13.317h-13.316V361.848z
				 M264.254,361.848h13.317v13.317h-13.317V361.848z M278.196,361.848h13.316v13.317h-13.316V361.848z M292.138,361.848h13.317
				v13.317h-13.317V361.848z M306.08,361.848h13.316v13.317H306.08V361.848z M320.021,361.848h13.317v13.317h-13.317V361.848z
				 M333.964,361.848h13.317v13.317h-13.317V361.848z M347.906,361.848h13.316v13.317h-13.316V361.848z M361.848,361.848h13.317
				v13.317h-13.317V361.848z M361.848,361.223v-13.317h13.317v13.317H361.848z M361.848,347.281v-13.317h13.317v13.317H361.848z
				 M361.848,333.339v-13.317h13.317v13.317H361.848z M361.848,319.397V306.08h13.317v13.316H361.848z M361.848,305.455v-13.317
				h13.317v13.317H361.848z M361.848,291.513v-13.316h13.317v13.316H361.848z M361.848,277.571v-13.317h13.317v13.317H361.848z
				 M361.848,263.629v-13.316h13.317v13.316H361.848z M361.848,249.688v-13.316h13.317v13.316H361.848z M361.848,235.746v-13.317
				h13.317v13.317H361.848z M361.848,221.804v-13.316h13.317v13.316H361.848z M361.848,207.862v-13.317h13.317v13.317H361.848z
				 M361.848,193.92v-13.316h13.317v13.316H361.848z M361.848,179.979v-13.317h13.317v13.317H361.848z M361.848,166.036v-13.317
				h13.317v13.317H361.848z M361.848,152.094v-13.316h13.317v13.316H361.848z M361.848,138.152v-13.316h13.317v13.316H361.848z
				 M361.848,124.211v-13.317h13.317v13.317H361.848z M361.223,124.211h-13.316v-13.317h13.316V124.211z M347.281,124.211h-13.317
				v-13.317h13.317V124.211z M333.339,124.211h-13.317v-13.317h13.317V124.211z M319.396,124.211H306.08v-13.317h13.316V124.211z
				 M305.455,124.211h-13.317v-13.317h13.317V124.211z M291.513,124.211h-13.316v-13.317h13.316V124.211z M277.571,124.211h-13.317
				v-13.317h13.317V124.211z M263.629,124.211h-13.316v-13.317h13.316V124.211z M249.687,124.211h-13.316v-13.317h13.316V124.211z
				 M235.746,124.211h-13.317v-13.317h13.317V124.211z M221.804,124.211h-13.316v-13.317h13.316V124.211z M207.862,124.211h-13.317
				v-13.317h13.317V124.211z M193.92,124.211h-13.316v-13.317h13.316V124.211z M179.978,124.211h-13.317v-13.317h13.317V124.211z
				 M166.036,124.211h-13.317v-13.317h13.317V124.211z M152.094,124.211h-13.316v-13.317h13.316V124.211z M138.152,124.211h-13.316
				v-13.317h13.316V124.211z M124.211,124.211h-13.317v-13.317h13.317V124.211z M124.211,124.836v13.316h-13.317v-13.316H124.211z
				 M124.211,138.777v13.316h-13.317v-13.316H124.211z M124.211,152.719v13.317h-13.317v-13.317H124.211z M124.211,166.661v13.317
				h-13.317v-13.317H124.211z M124.211,180.604v13.316h-13.317v-13.316H124.211z M124.211,194.545v13.317h-13.317v-13.317H124.211z
				 M124.211,208.487v13.316h-13.317v-13.316H124.211z M124.211,222.429v13.317h-13.317v-13.317H124.211z M124.211,236.371v13.316
				h-13.317v-13.316H124.211z M124.211,250.313v13.316h-13.317v-13.316H124.211z M124.211,264.254v13.317h-13.317v-13.317H124.211z
				 M124.211,278.196v13.316h-13.317v-13.316H124.211z M124.211,292.138v13.317h-13.317v-13.317H124.211z M124.211,306.08v13.316
				h-13.317V306.08H124.211z M124.211,320.022v13.317h-13.317v-13.317H124.211z M124.211,333.964v13.317h-13.317v-13.317H124.211z
				 M124.211,347.906v13.317h-13.317v-13.317H124.211z M124.211,361.848v13.317h-13.317v-13.317H124.211z M124.211,375.79v13.316
				h-13.317V375.79H124.211z M124.836,375.79h13.316v13.316h-13.316V375.79z M138.777,375.79h13.316v13.316h-13.316V375.79z
				 M152.719,375.79h13.317v13.316h-13.317V375.79z M166.661,375.79h13.317v13.316h-13.317V375.79z M180.603,375.79h13.316v13.316
				h-13.316V375.79z M194.545,375.79h13.317v13.316h-13.317V375.79z M208.487,375.79h13.316v13.316h-13.316V375.79z M222.429,375.79
				h13.317v13.316h-13.317V375.79z M236.371,375.79h13.316v13.316h-13.316V375.79z M250.312,375.79h13.316v13.316h-13.316V375.79z
				 M264.254,375.79h13.317v13.316h-13.317V375.79z M278.196,375.79h13.316v13.316h-13.316V375.79z M292.138,375.79h13.317v13.316
				h-13.317V375.79z M306.08,375.79h13.316v13.316H306.08V375.79z M320.021,375.79h13.317v13.316h-13.317V375.79z M333.964,375.79
				h13.317v13.316h-13.317V375.79z M347.906,375.79h13.316v13.316h-13.316V375.79z M361.848,375.79h13.317v13.316h-13.317V375.79z
				 M375.79,375.79h13.316v13.316H375.79V375.79z M375.79,375.165v-13.317h13.316v13.317H375.79z M375.79,361.223v-13.317h13.316
				v13.317H375.79z M375.79,347.281v-13.317h13.316v13.317H375.79z M375.79,333.339v-13.317h13.316v13.317H375.79z M375.79,319.397
				V306.08h13.316v13.316H375.79z M375.79,305.455v-13.317h13.316v13.317H375.79z M375.79,291.513v-13.316h13.316v13.316H375.79z
				 M375.79,277.571v-13.317h13.316v13.317H375.79z M375.79,263.629v-13.316h13.316v13.316H375.79z M375.79,249.688v-13.316h13.316
				v13.316H375.79z M375.79,235.746v-13.317h13.316v13.317H375.79z M375.79,221.804v-13.316h13.316v13.316H375.79z M375.79,207.862
				v-13.317h13.316v13.317H375.79z M375.79,193.92v-13.316h13.316v13.316H375.79z M375.79,179.979v-13.317h13.316v13.317H375.79z
				 M375.79,166.036v-13.317h13.316v13.317H375.79z M375.79,152.094v-13.316h13.316v13.316H375.79z M375.79,138.152v-13.316h13.316
				v13.316H375.79z M375.79,124.211v-13.317h13.316v13.317H375.79z M375.79,110.269V96.952h13.316v13.317H375.79z M375.165,110.269
				h-13.317V96.952h13.317V110.269z M361.223,110.269h-13.316V96.952h13.316V110.269z M347.281,110.269h-13.317V96.952h13.317
				V110.269z M333.339,110.269h-13.317V96.952h13.317V110.269z M319.396,110.269H306.08V96.952h13.316V110.269z M305.455,110.269
				h-13.317V96.952h13.317V110.269z M291.513,110.269h-13.316V96.952h13.316V110.269z M277.571,110.269h-13.317V96.952h13.317
				V110.269z M263.629,110.269h-13.316V96.952h13.316V110.269z M249.687,110.269h-13.316V96.952h13.316V110.269z M235.746,110.269
				h-13.317V96.952h13.317V110.269z M221.804,110.269h-13.316V96.952h13.316V110.269z M207.862,110.269h-13.317V96.952h13.317
				V110.269z M193.92,110.269h-13.316V96.952h13.316V110.269z M179.978,110.269h-13.317V96.952h13.317V110.269z M166.036,110.269
				h-13.317V96.952h13.317V110.269z M152.094,110.269h-13.316V96.952h13.316V110.269z M138.152,110.269h-13.316V96.952h13.316
				V110.269z M124.211,110.269h-13.317V96.952h13.317V110.269z M110.269,110.269H96.952V96.952h13.317V110.269z M110.269,110.894
				v13.317H96.952v-13.317H110.269z M110.269,124.836v13.316H96.952v-13.316H110.269z M110.269,138.777v13.316H96.952v-13.316
				H110.269z M110.269,152.719v13.317H96.952v-13.317H110.269z M110.269,166.661v13.317H96.952v-13.317H110.269z M110.269,180.604
				v13.316H96.952v-13.316H110.269z M110.269,194.545v13.317H96.952v-13.317H110.269z M110.269,208.487v13.316H96.952v-13.316
				H110.269z M110.269,222.429v13.317H96.952v-13.317H110.269z M110.269,236.371v13.316H96.952v-13.316H110.269z M110.269,250.313
				v13.316H96.952v-13.316H110.269z M110.269,264.254v13.317H96.952v-13.317H110.269z M110.269,278.196v13.316H96.952v-13.316
				H110.269z M110.269,292.138v13.317H96.952v-13.317H110.269z M110.269,306.08v13.316H96.952V306.08H110.269z M110.269,320.022
				v13.317H96.952v-13.317H110.269z M110.269,333.964v13.317H96.952v-13.317H110.269z M110.269,347.906v13.317H96.952v-13.317
				H110.269z M110.269,361.848v13.317H96.952v-13.317H110.269z M110.269,375.79v13.316H96.952V375.79H110.269z M110.269,389.731
				v13.316H96.952v-13.316H110.269z M110.894,389.731h13.317v13.316h-13.317V389.731z M124.836,389.731h13.316v13.316h-13.316
				V389.731z M138.777,389.731h13.316v13.316h-13.316V389.731z M152.719,389.731h13.317v13.316h-13.317V389.731z M166.661,389.731
				h13.317v13.316h-13.317V389.731z M180.603,389.731h13.316v13.316h-13.316V389.731z M194.545,389.731h13.317v13.316h-13.317
				V389.731z M208.487,389.731h13.316v13.316h-13.316V389.731z M222.429,389.731h13.317v13.316h-13.317V389.731z M236.371,389.731
				h13.316v13.316h-13.316V389.731z M250.312,389.731h13.316v13.316h-13.316V389.731z M264.254,389.731h13.317v13.316h-13.317
				V389.731z M278.196,389.731h13.316v13.316h-13.316V389.731z M292.138,389.731h13.317v13.316h-13.317V389.731z M306.08,389.731
				h13.316v13.316H306.08V389.731z M320.021,389.731h13.317v13.316h-13.317V389.731z M333.964,389.731h13.317v13.316h-13.317
				V389.731z M347.906,389.731h13.316v13.316h-13.316V389.731z M361.848,389.731h13.317v13.316h-13.317V389.731z M375.79,389.731
				h13.316v13.316H375.79V389.731z M389.731,389.731h13.316v13.316h-13.316V389.731z M389.731,389.106V375.79h13.316v13.316H389.731
				z M389.731,375.165v-13.317h13.316v13.317H389.731z M389.731,361.223v-13.317h13.316v13.317H389.731z M389.731,347.281v-13.317
				h13.316v13.317H389.731z M389.731,333.339v-13.317h13.316v13.317H389.731z M389.731,319.397V306.08h13.316v13.316H389.731z
				 M389.731,305.455v-13.317h13.316v13.317H389.731z M389.731,291.513v-13.316h13.316v13.316H389.731z M389.731,277.571v-13.317
				h13.316v13.317H389.731z M389.731,263.629v-13.316h13.316v13.316H389.731z M389.731,249.688v-13.316h13.316v13.316H389.731z
				 M389.731,235.746v-13.317h13.316v13.317H389.731z M389.731,221.804v-13.316h13.316v13.316H389.731z M389.731,207.862v-13.317
				h13.316v13.317H389.731z M389.731,193.92v-13.316h13.316v13.316H389.731z M389.731,179.979v-13.317h13.316v13.317H389.731z
				 M389.731,166.036v-13.317h13.316v13.317H389.731z M389.731,152.094v-13.316h13.316v13.316H389.731z M389.731,138.152v-13.316
				h13.316v13.316H389.731z M389.731,124.211v-13.317h13.316v13.317H389.731z M389.731,110.269V96.952h13.316v13.317H389.731z
				 M389.731,96.327V83.01h13.316v13.317H389.731z M389.106,96.327H375.79V83.01h13.316V96.327z M375.165,96.327h-13.317V83.01
				h13.317V96.327z M361.223,96.327h-13.316V83.01h13.316V96.327z M347.281,96.327h-13.317V83.01h13.317V96.327z M333.339,96.327
				h-13.317V83.01h13.317V96.327z M319.396,96.327H306.08V83.01h13.316V96.327z M305.455,96.327h-13.317V83.01h13.317V96.327z
				 M291.513,96.327h-13.316V83.01h13.316V96.327z M277.571,96.327h-13.317V83.01h13.317V96.327z M263.629,96.327h-13.316V83.01
				h13.316V96.327z M249.687,96.327h-13.316V83.01h13.316V96.327z M235.746,96.327h-13.317V83.01h13.317V96.327z M221.804,96.327
				h-13.316V83.01h13.316V96.327z M207.862,96.327h-13.317V83.01h13.317V96.327z M193.92,96.327h-13.316V83.01h13.316V96.327z
				 M179.978,96.327h-13.317V83.01h13.317V96.327z M166.036,96.327h-13.317V83.01h13.317V96.327z M152.094,96.327h-13.316V83.01
				h13.316V96.327z M138.152,96.327h-13.316V83.01h13.316V96.327z M124.211,96.327h-13.317V83.01h13.317V96.327z M110.269,96.327
				H96.952V83.01h13.317V96.327z M96.327,96.327H83.01V83.01h13.317V96.327z M96.327,96.952v13.317H83.01V96.952H96.327z
				 M96.327,110.894v13.317H83.01v-13.317H96.327z M96.327,124.836v13.316H83.01v-13.316H96.327z M96.327,138.777v13.316H83.01
				v-13.316H96.327z M96.327,152.719v13.317H83.01v-13.317H96.327z M96.327,166.661v13.317H83.01v-13.317H96.327z M96.327,180.604
				v13.316H83.01v-13.316H96.327z M96.327,194.545v13.317H83.01v-13.317H96.327z M96.327,208.487v13.316H83.01v-13.316H96.327z
				 M96.327,222.429v13.317H83.01v-13.317H96.327z M96.327,236.371v13.316H83.01v-13.316H96.327z M96.327,250.313v13.316H83.01
				v-13.316H96.327z M96.327,264.254v13.317H83.01v-13.317H96.327z M96.327,278.196v13.316H83.01v-13.316H96.327z M96.327,292.138
				v13.317H83.01v-13.317H96.327z M96.327,306.08v13.316H83.01V306.08H96.327z M96.327,320.022v13.317H83.01v-13.317H96.327z
				 M96.327,333.964v13.317H83.01v-13.317H96.327z M96.327,347.906v13.317H83.01v-13.317H96.327z M96.327,361.848v13.317H83.01
				v-13.317H96.327z M96.327,375.79v13.316H83.01V375.79H96.327z M96.327,389.731v13.316H83.01v-13.316H96.327z M96.327,403.673
				v13.317H83.01v-13.317H96.327z M96.952,403.673h13.317v13.317H96.952V403.673z M110.894,403.673h13.317v13.317h-13.317V403.673z
				 M124.836,403.673h13.316v13.317h-13.316V403.673z M138.777,403.673h13.316v13.317h-13.316V403.673z M152.719,403.673h13.317
				v13.317h-13.317V403.673z M166.661,403.673h13.317v13.317h-13.317V403.673z M180.603,403.673h13.316v13.317h-13.316V403.673z
				 M194.545,403.673h13.317v13.317h-13.317V403.673z M208.487,403.673h13.316v13.317h-13.316V403.673z M222.429,403.673h13.317
				v13.317h-13.317V403.673z M236.371,403.673h13.316v13.317h-13.316V403.673z M250.312,403.673h13.316v13.317h-13.316V403.673z
				 M264.254,403.673h13.317v13.317h-13.317V403.673z M278.196,403.673h13.316v13.317h-13.316V403.673z M292.138,403.673h13.317
				v13.317h-13.317V403.673z M306.08,403.673h13.316v13.317H306.08V403.673z M320.021,403.673h13.317v13.317h-13.317V403.673z
				 M333.964,403.673h13.317v13.317h-13.317V403.673z M347.906,403.673h13.316v13.317h-13.316V403.673z M361.848,403.673h13.317
				v13.317h-13.317V403.673z M375.79,403.673h13.316v13.317H375.79V403.673z M389.731,403.673h13.316v13.317h-13.316V403.673z
				 M403.673,403.673h13.317v13.317h-13.317V403.673z M403.673,403.048v-13.316h13.317v13.316H403.673z M403.673,389.106V375.79
				h13.317v13.316H403.673z M403.673,375.165v-13.317h13.317v13.317H403.673z M403.673,361.223v-13.317h13.317v13.317H403.673z
				 M403.673,347.281v-13.317h13.317v13.317H403.673z M403.673,333.339v-13.317h13.317v13.317H403.673z M403.673,319.397V306.08
				h13.317v13.316H403.673z M403.673,305.455v-13.317h13.317v13.317H403.673z M403.673,291.513v-13.316h13.317v13.316H403.673z
				 M403.673,277.571v-13.317h13.317v13.317H403.673z M403.673,263.629v-13.316h13.317v13.316H403.673z M403.673,249.688v-13.316
				h13.317v13.316H403.673z M403.673,235.746v-13.317h13.317v13.317H403.673z M403.673,221.804v-13.316h13.317v13.316H403.673z
				 M403.673,207.862v-13.317h13.317v13.317H403.673z M403.673,193.92v-13.316h13.317v13.316H403.673z M403.673,179.979v-13.317
				h13.317v13.317H403.673z M403.673,166.036v-13.317h13.317v13.317H403.673z M403.673,152.094v-13.316h13.317v13.316H403.673z
				 M403.673,138.152v-13.316h13.317v13.316H403.673z M403.673,124.211v-13.317h13.317v13.317H403.673z M403.673,110.269V96.952
				h13.317v13.317H403.673z M403.673,96.327V83.01h13.317v13.317H403.673z M403.673,82.385V69.068h13.317v13.317H403.673z
				 M403.048,82.385h-13.316V69.068h13.316V82.385z M389.106,82.385H375.79V69.068h13.316V82.385z M375.165,82.385h-13.317V69.068
				h13.317V82.385z M361.223,82.385h-13.316V69.068h13.316V82.385z M347.281,82.385h-13.317V69.068h13.317V82.385z M333.339,82.385
				h-13.317V69.068h13.317V82.385z M319.396,82.385H306.08V69.068h13.316V82.385z M305.455,82.385h-13.317V69.068h13.317V82.385z
				 M291.513,82.385h-13.316V69.068h13.316V82.385z M277.571,82.385h-13.317V69.068h13.317V82.385z M263.629,82.385h-13.316V69.068
				h13.316V82.385z M249.687,82.385h-13.316V69.068h13.316V82.385z M235.746,82.385h-13.317V69.068h13.317V82.385z M221.804,82.385
				h-13.316V69.068h13.316V82.385z M207.862,82.385h-13.317V69.068h13.317V82.385z M193.92,82.385h-13.316V69.068h13.316V82.385z
				 M179.978,82.385h-13.317V69.068h13.317V82.385z M166.036,82.385h-13.317V69.068h13.317V82.385z M152.094,82.385h-13.316V69.068
				h13.316V82.385z M138.152,82.385h-13.316V69.068h13.316V82.385z M124.211,82.385h-13.317V69.068h13.317V82.385z M110.269,82.385
				H96.952V69.068h13.317V82.385z M96.327,82.385H83.01V69.068h13.317V82.385z M82.385,82.385H69.068V69.068h13.317V82.385z
				 M82.385,83.01v13.317H69.068V83.01H82.385z M82.385,96.952v13.317H69.068V96.952H82.385z M82.385,110.894v13.317H69.068v-13.317
				H82.385z M82.385,124.836v13.316H69.068v-13.316H82.385z M82.385,138.777v13.316H69.068v-13.316H82.385z M82.385,152.719v13.317
				H69.068v-13.317H82.385z M82.385,166.661v13.317H69.068v-13.317H82.385z M82.385,180.604v13.316H69.068v-13.316H82.385z
				 M82.385,194.545v13.317H69.068v-13.317H82.385z M82.385,208.487v13.316H69.068v-13.316H82.385z M82.385,222.429v13.317H69.068
				v-13.317H82.385z M82.385,236.371v13.316H69.068v-13.316H82.385z M82.385,250.313v13.316H69.068v-13.316H82.385z M82.385,264.254
				v13.317H69.068v-13.317H82.385z M82.385,278.196v13.316H69.068v-13.316H82.385z M82.385,292.138v13.317H69.068v-13.317H82.385z
				 M82.385,306.08v13.316H69.068V306.08H82.385z M82.385,320.022v13.317H69.068v-13.317H82.385z M82.385,333.964v13.317H69.068
				v-13.317H82.385z M82.385,347.906v13.317H69.068v-13.317H82.385z M82.385,361.848v13.317H69.068v-13.317H82.385z M82.385,375.79
				v13.316H69.068V375.79H82.385z M82.385,389.731v13.316H69.068v-13.316H82.385z M82.385,403.673v13.317H69.068v-13.317H82.385z
				 M82.385,417.615v13.316H69.068v-13.316H82.385z M83.01,417.615h13.317v13.316H83.01V417.615z M96.952,417.615h13.317v13.316
				H96.952V417.615z M110.894,417.615h13.317v13.316h-13.317V417.615z M124.836,417.615h13.316v13.316h-13.316V417.615z
				 M138.777,417.615h13.316v13.316h-13.316V417.615z M152.719,417.615h13.317v13.316h-13.317V417.615z M166.661,417.615h13.317
				v13.316h-13.317V417.615z M180.603,417.615h13.316v13.316h-13.316V417.615z M194.545,417.615h13.317v13.316h-13.317V417.615z
				 M208.487,417.615h13.316v13.316h-13.316V417.615z M222.429,417.615h13.317v13.316h-13.317V417.615z M236.371,417.615h13.316
				v13.316h-13.316V417.615z M250.312,417.615h13.316v13.316h-13.316V417.615z M264.254,417.615h13.317v13.316h-13.317V417.615z
				 M278.196,417.615h13.316v13.316h-13.316V417.615z M292.138,417.615h13.317v13.316h-13.317V417.615z M306.08,417.615h13.316
				v13.316H306.08V417.615z M320.021,417.615h13.317v13.316h-13.317V417.615z M333.964,417.615h13.317v13.316h-13.317V417.615z
				 M347.906,417.615h13.316v13.316h-13.316V417.615z M361.848,417.615h13.317v13.316h-13.317V417.615z M375.79,417.615h13.316
				v13.316H375.79V417.615z M389.731,417.615h13.316v13.316h-13.316V417.615z M403.673,417.615h13.317v13.316h-13.317V417.615z
				 M417.615,417.615h13.316v13.316h-13.316V417.615z M417.615,416.99v-13.317h13.316v13.317H417.615z M417.615,403.048v-13.316
				h13.316v13.316H417.615z M417.615,389.106V375.79h13.316v13.316H417.615z M417.615,375.165v-13.317h13.316v13.317H417.615z
				 M417.615,361.223v-13.317h13.316v13.317H417.615z M417.615,347.281v-13.317h13.316v13.317H417.615z M417.615,333.339v-13.317
				h13.316v13.317H417.615z M417.615,319.397V306.08h13.316v13.316H417.615z M417.615,305.455v-13.317h13.316v13.317H417.615z
				 M417.615,291.513v-13.316h13.316v13.316H417.615z M417.615,277.571v-13.317h13.316v13.317H417.615z M417.615,263.629v-13.316
				h13.316v13.316H417.615z M417.615,249.688v-13.316h13.316v13.316H417.615z M417.615,235.746v-13.317h13.316v13.317H417.615z
				 M417.615,221.804v-13.316h13.316v13.316H417.615z M417.615,207.862v-13.317h13.316v13.317H417.615z M417.615,193.92v-13.316
				h13.316v13.316H417.615z M417.615,179.979v-13.317h13.316v13.317H417.615z M417.615,166.036v-13.317h13.316v13.317H417.615z
				 M417.615,152.094v-13.316h13.316v13.316H417.615z M417.615,138.152v-13.316h13.316v13.316H417.615z M417.615,124.211v-13.317
				h13.316v13.317H417.615z M417.615,110.269V96.952h13.316v13.317H417.615z M417.615,96.327V83.01h13.316v13.317H417.615z
				 M417.615,82.385V69.068h13.316v13.317H417.615z M417.615,68.443V55.126h13.316v13.317H417.615z M416.99,68.443h-13.317V55.126
				h13.317V68.443z M403.048,68.443h-13.316V55.126h13.316V68.443z M389.106,68.443H375.79V55.126h13.316V68.443z M375.165,68.443
				h-13.317V55.126h13.317V68.443z M361.223,68.443h-13.316V55.126h13.316V68.443z M347.281,68.443h-13.317V55.126h13.317V68.443z
				 M333.339,68.443h-13.317V55.126h13.317V68.443z M319.396,68.443H306.08V55.126h13.316V68.443z M305.455,68.443h-13.317V55.126
				h13.317V68.443z M291.513,68.443h-13.316V55.126h13.316V68.443z M277.571,68.443h-13.317V55.126h13.317V68.443z M263.629,68.443
				h-13.316V55.126h13.316V68.443z M249.687,68.443h-13.316V55.126h13.316V68.443z M235.746,68.443h-13.317V55.126h13.317V68.443z
				 M221.804,68.443h-13.316V55.126h13.316V68.443z M207.862,68.443h-13.317V55.126h13.317V68.443z M193.92,68.443h-13.316V55.126
				h13.316V68.443z M179.978,68.443h-13.317V55.126h13.317V68.443z M166.036,68.443h-13.317V55.126h13.317V68.443z M152.094,68.443
				h-13.316V55.126h13.316V68.443z M138.152,68.443h-13.316V55.126h13.316V68.443z M124.211,68.443h-13.317V55.126h13.317V68.443z
				 M110.269,68.443H96.952V55.126h13.317V68.443z M96.327,68.443H83.01V55.126h13.317V68.443z M82.385,68.443H69.068V55.126h13.317
				V68.443z M68.443,68.443H55.126V55.126h13.317V68.443z M68.443,69.068v13.317H55.126V69.068H68.443z M68.443,83.01v13.317H55.126
				V83.01H68.443z M68.443,96.952v13.317H55.126V96.952H68.443z M68.443,110.894v13.317H55.126v-13.317H68.443z M68.443,124.836
				v13.316H55.126v-13.316H68.443z M68.443,138.777v13.316H55.126v-13.316H68.443z M68.443,152.719v13.317H55.126v-13.317H68.443z
				 M68.443,166.661v13.317H55.126v-13.317H68.443z M68.443,180.604v13.316H55.126v-13.316H68.443z M68.443,194.545v13.317H55.126
				v-13.317H68.443z M68.443,208.487v13.316H55.126v-13.316H68.443z M68.443,222.429v13.317H55.126v-13.317H68.443z M68.443,236.371
				v13.316H55.126v-13.316H68.443z M68.443,250.313v13.316H55.126v-13.316H68.443z M68.443,264.254v13.317H55.126v-13.317H68.443z
				 M68.443,278.196v13.316H55.126v-13.316H68.443z M68.443,292.138v13.317H55.126v-13.317H68.443z M68.443,306.08v13.316H55.126
				V306.08H68.443z M68.443,320.022v13.317H55.126v-13.317H68.443z M68.443,333.964v13.317H55.126v-13.317H68.443z M68.443,347.906
				v13.317H55.126v-13.317H68.443z M68.443,361.848v13.317H55.126v-13.317H68.443z M68.443,375.79v13.316H55.126V375.79H68.443z
				 M68.443,389.731v13.316H55.126v-13.316H68.443z M68.443,403.673v13.317H55.126v-13.317H68.443z M68.443,417.615v13.316H55.126
				v-13.316H68.443z M68.443,431.557v13.317H55.126v-13.317H68.443z M69.068,431.557h13.317v13.317H69.068V431.557z M83.01,431.557
				h13.317v13.317H83.01V431.557z M96.952,431.557h13.317v13.317H96.952V431.557z M110.894,431.557h13.317v13.317h-13.317V431.557z
				 M124.836,431.557h13.316v13.317h-13.316V431.557z M138.777,431.557h13.316v13.317h-13.316V431.557z M152.719,431.557h13.317
				v13.317h-13.317V431.557z M166.661,431.557h13.317v13.317h-13.317V431.557z M180.603,431.557h13.316v13.317h-13.316V431.557z
				 M194.545,431.557h13.317v13.317h-13.317V431.557z M208.487,431.557h13.316v13.317h-13.316V431.557z M222.429,431.557h13.317
				v13.317h-13.317V431.557z M236.371,431.557h13.316v13.317h-13.316V431.557z M250.312,431.557h13.316v13.317h-13.316V431.557z
				 M264.254,431.557h13.317v13.317h-13.317V431.557z M278.196,431.557h13.316v13.317h-13.316V431.557z M292.138,431.557h13.317
				v13.317h-13.317V431.557z M306.08,431.557h13.316v13.317H306.08V431.557z M320.021,431.557h13.317v13.317h-13.317V431.557z
				 M333.964,431.557h13.317v13.317h-13.317V431.557z M347.906,431.557h13.316v13.317h-13.316V431.557z M361.848,431.557h13.317
				v13.317h-13.317V431.557z M375.79,431.557h13.316v13.317H375.79V431.557z M389.731,431.557h13.316v13.317h-13.316V431.557z
				 M403.673,431.557h13.317v13.317h-13.317V431.557z M417.615,431.557h13.316v13.317h-13.316V431.557z M431.557,431.557h13.317
				v13.317h-13.317V431.557z M431.557,430.932v-13.316h13.317v13.316H431.557z M431.557,416.99v-13.317h13.317v13.317H431.557z
				 M431.557,403.048v-13.316h13.317v13.316H431.557z M431.557,389.106V375.79h13.317v13.316H431.557z M431.557,375.165v-13.317
				h13.317v13.317H431.557z M431.557,361.223v-13.317h13.317v13.317H431.557z M431.557,347.281v-13.317h13.317v13.317H431.557z
				 M431.557,333.339v-13.317h13.317v13.317H431.557z M431.557,319.397V306.08h13.317v13.316H431.557z M431.557,305.455v-13.317
				h13.317v13.317H431.557z M431.557,291.513v-13.316h13.317v13.316H431.557z M431.557,277.571v-13.317h13.317v13.317H431.557z
				 M431.557,263.629v-13.316h13.317v13.316H431.557z M431.557,249.688v-13.316h13.317v13.316H431.557z M431.557,235.746v-13.317
				h13.317v13.317H431.557z M431.557,221.804v-13.316h13.317v13.316H431.557z M431.557,207.862v-13.317h13.317v13.317H431.557z
				 M431.557,193.92v-13.316h13.317v13.316H431.557z M431.557,179.979v-13.317h13.317v13.317H431.557z M431.557,166.036v-13.317
				h13.317v13.317H431.557z M431.557,152.094v-13.316h13.317v13.316H431.557z M431.557,138.152v-13.316h13.317v13.316H431.557z
				 M431.557,124.211v-13.317h13.317v13.317H431.557z M431.557,110.269V96.952h13.317v13.317H431.557z M431.557,96.327V83.01h13.317
				v13.317H431.557z M431.557,82.385V69.068h13.317v13.317H431.557z M431.557,68.443V55.126h13.317v13.317H431.557z M431.557,54.501
				V41.184h13.317v13.317H431.557z M430.932,54.501h-13.316V41.184h13.316V54.501z M416.99,54.501h-13.317V41.184h13.317V54.501z
				 M403.048,54.501h-13.316V41.184h13.316V54.501z M389.106,54.501H375.79V41.184h13.316V54.501z M375.165,54.501h-13.317V41.184
				h13.317V54.501z M361.223,54.501h-13.316V41.184h13.316V54.501z M347.281,54.501h-13.317V41.184h13.317V54.501z M333.339,54.501
				h-13.317V41.184h13.317V54.501z M319.396,54.501H306.08V41.184h13.316V54.501z M305.455,54.501h-13.317V41.184h13.317V54.501z
				 M291.513,54.501h-13.316V41.184h13.316V54.501z M277.571,54.501h-13.317V41.184h13.317V54.501z M263.629,54.501h-13.316V41.184
				h13.316V54.501z M249.687,54.501h-13.316V41.184h13.316V54.501z M235.746,54.501h-13.317V41.184h13.317V54.501z M221.804,54.501
				h-13.316V41.184h13.316V54.501z M207.862,54.501h-13.317V41.184h13.317V54.501z M193.92,54.501h-13.316V41.184h13.316V54.501z
				 M179.978,54.501h-13.317V41.184h13.317V54.501z M166.036,54.501h-13.317V41.184h13.317V54.501z M152.094,54.501h-13.316V41.184
				h13.316V54.501z M138.152,54.501h-13.316V41.184h13.316V54.501z M124.211,54.501h-13.317V41.184h13.317V54.501z M110.269,54.501
				H96.952V41.184h13.317V54.501z M96.327,54.501H83.01V41.184h13.317V54.501z M82.385,54.501H69.068V41.184h13.317V54.501z
				 M68.443,54.501H55.126V41.184h13.317V54.501z M54.501,54.501H41.184V41.184h13.317V54.501z M54.501,55.126v13.317H41.184V55.126
				H54.501z M54.501,69.068v13.317H41.184V69.068H54.501z M54.501,83.01v13.317H41.184V83.01H54.501z M54.501,96.952v13.317H41.184
				V96.952H54.501z M54.501,110.894v13.317H41.184v-13.317H54.501z M54.501,124.836v13.316H41.184v-13.316H54.501z M54.501,138.777
				v13.316H41.184v-13.316H54.501z M54.501,152.719v13.317H41.184v-13.317H54.501z M54.501,166.661v13.317H41.184v-13.317H54.501z
				 M54.501,180.604v13.316H41.184v-13.316H54.501z M54.501,194.545v13.317H41.184v-13.317H54.501z M54.501,208.487v13.316H41.184
				v-13.316H54.501z M54.501,222.429v13.317H41.184v-13.317H54.501z M54.501,236.371v13.316H41.184v-13.316H54.501z M54.501,250.313
				v13.316H41.184v-13.316H54.501z M54.501,264.254v13.317H41.184v-13.317H54.501z M54.501,278.196v13.316H41.184v-13.316H54.501z
				 M54.501,292.138v13.317H41.184v-13.317H54.501z M54.501,306.08v13.316H41.184V306.08H54.501z M54.501,320.022v13.317H41.184
				v-13.317H54.501z M54.501,333.964v13.317H41.184v-13.317H54.501z M54.501,347.906v13.317H41.184v-13.317H54.501z M54.501,361.848
				v13.317H41.184v-13.317H54.501z M54.501,375.79v13.316H41.184V375.79H54.501z M54.501,389.731v13.316H41.184v-13.316H54.501z
				 M54.501,403.673v13.317H41.184v-13.317H54.501z M54.501,417.615v13.316H41.184v-13.316H54.501z M54.501,431.557v13.317H41.184
				v-13.317H54.501z M54.501,445.499v13.317H41.184v-13.317H54.501z M55.126,445.499h13.317v13.317H55.126V445.499z M69.068,445.499
				h13.317v13.317H69.068V445.499z M83.01,445.499h13.317v13.317H83.01V445.499z M96.952,445.499h13.317v13.317H96.952V445.499z
				 M110.894,445.499h13.317v13.317h-13.317V445.499z M124.836,445.499h13.316v13.317h-13.316V445.499z M138.777,445.499h13.316
				v13.317h-13.316V445.499z M152.719,445.499h13.317v13.317h-13.317V445.499z M166.661,445.499h13.317v13.317h-13.317V445.499z
				 M180.603,445.499h13.316v13.317h-13.316V445.499z M194.545,445.499h13.317v13.317h-13.317V445.499z M208.487,445.499h13.316
				v13.317h-13.316V445.499z M222.429,445.499h13.317v13.317h-13.317V445.499z M236.371,445.499h13.316v13.317h-13.316V445.499z
				 M250.312,445.499h13.316v13.317h-13.316V445.499z M264.254,445.499h13.317v13.317h-13.317V445.499z M278.196,445.499h13.316
				v13.317h-13.316V445.499z M292.138,445.499h13.317v13.317h-13.317V445.499z M306.08,445.499h13.316v13.317H306.08V445.499z
				 M320.021,445.499h13.317v13.317h-13.317V445.499z M333.964,445.499h13.317v13.317h-13.317V445.499z M347.906,445.499h13.316
				v13.317h-13.316V445.499z M361.848,445.499h13.317v13.317h-13.317V445.499z M375.79,445.499h13.316v13.317H375.79V445.499z
				 M389.731,445.499h13.316v13.317h-13.316V445.499z M403.673,445.499h13.317v13.317h-13.317V445.499z M417.615,445.499h13.316
				v13.317h-13.316V445.499z M431.557,445.499h13.317v13.317h-13.317V445.499z M445.499,445.499h13.317v13.317h-13.317V445.499z
				 M445.499,444.874v-13.317h13.317v13.317H445.499z M445.499,430.932v-13.316h13.317v13.316H445.499z M445.499,416.99v-13.317
				h13.317v13.317H445.499z M445.499,403.048v-13.316h13.317v13.316H445.499z M445.499,389.106V375.79h13.317v13.316H445.499z
				 M445.499,375.165v-13.317h13.317v13.317H445.499z M445.499,361.223v-13.317h13.317v13.317H445.499z M445.499,347.281v-13.317
				h13.317v13.317H445.499z M445.499,333.339v-13.317h13.317v13.317H445.499z M445.499,319.397V306.08h13.317v13.316H445.499z
				 M445.499,305.455v-13.317h13.317v13.317H445.499z M445.499,291.513v-13.316h13.317v13.316H445.499z M445.499,277.571v-13.317
				h13.317v13.317H445.499z M445.499,263.629v-13.316h13.317v13.316H445.499z M445.499,249.688v-13.316h13.317v13.316H445.499z
				 M445.499,235.746v-13.317h13.317v13.317H445.499z M445.499,221.804v-13.316h13.317v13.316H445.499z M445.499,207.862v-13.317
				h13.317v13.317H445.499z M445.499,193.92v-13.316h13.317v13.316H445.499z M445.499,179.979v-13.317h13.317v13.317H445.499z
				 M445.499,166.036v-13.317h13.317v13.317H445.499z M445.499,152.094v-13.316h13.317v13.316H445.499z M445.499,138.152v-13.316
				h13.317v13.316H445.499z M445.499,124.211v-13.317h13.317v13.317H445.499z M445.499,110.269V96.952h13.317v13.317H445.499z
				 M445.499,96.327V83.01h13.317v13.317H445.499z M445.499,82.385V69.068h13.317v13.317H445.499z M445.499,68.443V55.126h13.317
				v13.317H445.499z M445.499,54.501V41.184h13.317v13.317H445.499z M445.499,40.559V27.242h13.317v13.317H445.499z M444.874,40.559
				h-13.317V27.242h13.317V40.559z M430.932,40.559h-13.316V27.242h13.316V40.559z M416.99,40.559h-13.317V27.242h13.317V40.559z
				 M403.048,40.559h-13.316V27.242h13.316V40.559z M389.106,40.559H375.79V27.242h13.316V40.559z M375.165,40.559h-13.317V27.242
				h13.317V40.559z M361.223,40.559h-13.316V27.242h13.316V40.559z M347.281,40.559h-13.317V27.242h13.317V40.559z M333.339,40.559
				h-13.317V27.242h13.317V40.559z M319.396,40.559H306.08V27.242h13.316V40.559z M305.455,40.559h-13.317V27.242h13.317V40.559z
				 M291.513,40.559h-13.316V27.242h13.316V40.559z M277.571,40.559h-13.317V27.242h13.317V40.559z M263.629,40.559h-13.316V27.242
				h13.316V40.559z M249.687,40.559h-13.316V27.242h13.316V40.559z M235.746,40.559h-13.317V27.242h13.317V40.559z M221.804,40.559
				h-13.316V27.242h13.316V40.559z M207.862,40.559h-13.317V27.242h13.317V40.559z M193.92,40.559h-13.316V27.242h13.316V40.559z
				 M179.978,40.559h-13.317V27.242h13.317V40.559z M166.036,40.559h-13.317V27.242h13.317V40.559z M152.094,40.559h-13.316V27.242
				h13.316V40.559z M138.152,40.559h-13.316V27.242h13.316V40.559z M124.211,40.559h-13.317V27.242h13.317V40.559z M110.269,40.559
				H96.952V27.242h13.317V40.559z M96.327,40.559H83.01V27.242h13.317V40.559z M82.385,40.559H69.068V27.242h13.317V40.559z
				 M68.443,40.559H55.126V27.242h13.317V40.559z M54.501,40.559H41.184V27.242h13.317V40.559z M40.559,40.559H27.242V27.242h13.317
				V40.559z M40.559,41.184v13.317H27.242V41.184H40.559z M40.559,55.126v13.317H27.242V55.126H40.559z M40.559,69.068v13.317
				H27.242V69.068H40.559z M40.559,83.01v13.317H27.242V83.01H40.559z M40.559,96.952v13.317H27.242V96.952H40.559z M40.559,110.894
				v13.317H27.242v-13.317H40.559z M40.559,124.836v13.316H27.242v-13.316H40.559z M40.559,138.777v13.316H27.242v-13.316H40.559z
				 M40.559,152.719v13.317H27.242v-13.317H40.559z M40.559,166.661v13.317H27.242v-13.317H40.559z M40.559,180.604v13.316H27.242
				v-13.316H40.559z M40.559,194.545v13.317H27.242v-13.317H40.559z M40.559,208.487v13.316H27.242v-13.316H40.559z M40.559,222.429
				v13.317H27.242v-13.317H40.559z M40.559,236.371v13.316H27.242v-13.316H40.559z M40.559,250.313v13.316H27.242v-13.316H40.559z
				 M40.559,264.254v13.317H27.242v-13.317H40.559z M40.559,278.196v13.316H27.242v-13.316H40.559z M40.559,292.138v13.317H27.242
				v-13.317H40.559z M40.559,306.08v13.316H27.242V306.08H40.559z M40.559,320.022v13.317H27.242v-13.317H40.559z M40.559,333.964
				v13.317H27.242v-13.317H40.559z M40.559,347.906v13.317H27.242v-13.317H40.559z M40.559,361.848v13.317H27.242v-13.317H40.559z
				 M40.559,375.79v13.316H27.242V375.79H40.559z M40.559,389.731v13.316H27.242v-13.316H40.559z M40.559,403.673v13.317H27.242
				v-13.317H40.559z M40.559,417.615v13.316H27.242v-13.316H40.559z M40.559,431.557v13.317H27.242v-13.317H40.559z M40.559,445.499
				v13.317H27.242v-13.317H40.559z M40.559,459.441v13.316H27.242v-13.316H40.559z M41.184,459.441h13.317v13.316H41.184V459.441z
				 M55.126,459.441h13.317v13.316H55.126V459.441z M69.068,459.441h13.317v13.316H69.068V459.441z M83.01,459.441h13.317v13.316
				H83.01V459.441z M96.952,459.441h13.317v13.316H96.952V459.441z M110.894,459.441h13.317v13.316h-13.317V459.441z
				 M124.836,459.441h13.316v13.316h-13.316V459.441z M138.777,459.441h13.316v13.316h-13.316V459.441z M152.719,459.441h13.317
				v13.316h-13.317V459.441z M166.661,459.441h13.317v13.316h-13.317V459.441z M180.603,459.441h13.316v13.316h-13.316V459.441z
				 M194.545,459.441h13.317v13.316h-13.317V459.441z M208.487,459.441h13.316v13.316h-13.316V459.441z M222.429,459.441h13.317
				v13.316h-13.317V459.441z M236.371,459.441h13.316v13.316h-13.316V459.441z M250.312,459.441h13.316v13.316h-13.316V459.441z
				 M264.254,459.441h13.317v13.316h-13.317V459.441z M278.196,459.441h13.316v13.316h-13.316V459.441z M292.138,459.441h13.317
				v13.316h-13.317V459.441z M306.08,459.441h13.316v13.316H306.08V459.441z M320.021,459.441h13.317v13.316h-13.317V459.441z
				 M333.964,459.441h13.317v13.316h-13.317V459.441z M347.906,459.441h13.316v13.316h-13.316V459.441z M361.848,459.441h13.317
				v13.316h-13.317V459.441z M375.79,459.441h13.316v13.316H375.79V459.441z M389.731,459.441h13.316v13.316h-13.316V459.441z
				 M403.673,459.441h13.317v13.316h-13.317V459.441z M417.615,459.441h13.316v13.316h-13.316V459.441z M431.557,459.441h13.317
				v13.316h-13.317V459.441z M445.499,459.441h13.317v13.316h-13.317V459.441z M459.441,459.441h13.316v13.316h-13.316V459.441z
				 M459.441,458.816v-13.317h13.316v13.317H459.441z M459.441,444.874v-13.317h13.316v13.317H459.441z M459.441,430.932v-13.316
				h13.316v13.316H459.441z M459.441,416.99v-13.317h13.316v13.317H459.441z M459.441,403.048v-13.316h13.316v13.316H459.441z
				 M459.441,389.106V375.79h13.316v13.316H459.441z M459.441,375.165v-13.317h13.316v13.317H459.441z M459.441,361.223v-13.317
				h13.316v13.317H459.441z M459.441,347.281v-13.317h13.316v13.317H459.441z M459.441,333.339v-13.317h13.316v13.317H459.441z
				 M459.441,319.397V306.08h13.316v13.316H459.441z M459.441,305.455v-13.317h13.316v13.317H459.441z M459.441,291.513v-13.316
				h13.316v13.316H459.441z M459.441,277.571v-13.317h13.316v13.317H459.441z M459.441,263.629v-13.316h13.316v13.316H459.441z
				 M459.441,249.688v-13.316h13.316v13.316H459.441z M459.441,235.746v-13.317h13.316v13.317H459.441z M459.441,221.804v-13.316
				h13.316v13.316H459.441z M459.441,207.862v-13.317h13.316v13.317H459.441z M459.441,193.92v-13.316h13.316v13.316H459.441z
				 M459.441,179.979v-13.317h13.316v13.317H459.441z M459.441,166.036v-13.317h13.316v13.317H459.441z M459.441,152.094v-13.316
				h13.316v13.316H459.441z M459.441,138.152v-13.316h13.316v13.316H459.441z M459.441,124.211v-13.317h13.316v13.317H459.441z
				 M459.441,110.269V96.952h13.316v13.317H459.441z M459.441,96.327V83.01h13.316v13.317H459.441z M459.441,82.385V69.068h13.316
				v13.317H459.441z M459.441,68.443V55.126h13.316v13.317H459.441z M459.441,54.501V41.184h13.316v13.317H459.441z M459.441,40.559
				V27.242h13.316v13.317H459.441z M458.816,13.3v13.317h-13.317V13.3H458.816z M444.874,13.3v13.317h-13.317V13.3H444.874z
				 M430.932,13.3v13.317h-13.316V13.3H430.932z M416.99,13.3v13.317h-13.317V13.3H416.99z M403.048,13.3v13.317h-13.316V13.3
				H403.048z M389.106,13.3v13.317H375.79V13.3H389.106z M375.165,13.3v13.317h-13.317V13.3H375.165z M361.223,13.3v13.317h-13.316
				V13.3H361.223z M347.281,13.3v13.317h-13.317V13.3H347.281z M333.339,13.3v13.317h-13.317V13.3H333.339z M319.396,13.3v13.317
				H306.08V13.3H319.396z M305.455,13.3v13.317h-13.317V13.3H305.455z M291.513,13.3v13.317h-13.316V13.3H291.513z M277.571,13.3
				v13.317h-13.317V13.3H277.571z M263.629,13.3v13.317h-13.316V13.3H263.629z M249.687,13.3v13.317h-13.316V13.3H249.687z
				 M235.746,13.3v13.317h-13.317V13.3H235.746z M221.804,13.3v13.317h-13.316V13.3H221.804z M207.862,13.3v13.317h-13.317V13.3
				H207.862z M193.92,13.3v13.317h-13.316V13.3H193.92z M179.978,13.3v13.317h-13.317V13.3H179.978z M166.036,13.3v13.317h-13.317
				V13.3H166.036z M152.094,13.3v13.317h-13.316V13.3H152.094z M138.152,13.3v13.317h-13.316V13.3H138.152z M124.211,13.3v13.317
				h-13.317V13.3H124.211z M110.269,13.3v13.317H96.952V13.3H110.269z M96.327,13.3v13.317H83.01V13.3H96.327z M82.385,13.3v13.317
				H69.068V13.3H82.385z M68.443,13.3v13.317H55.126V13.3H68.443z M54.501,13.3v13.317H41.184V13.3H54.501z M40.559,13.3v13.317
				H27.242V13.3H40.559z M13.3,13.3h13.317v13.317H13.3V13.3z M13.3,27.242h13.317v13.317H13.3V27.242z M13.3,41.184h13.317v13.317
				H13.3V41.184z M13.3,55.126h13.317v13.317H13.3V55.126z M13.3,69.068h13.317v13.317H13.3V69.068z M13.3,83.01h13.317v13.317H13.3
				V83.01z M13.3,96.952h13.317v13.317H13.3V96.952z M13.3,110.894h13.317v13.317H13.3V110.894z M13.3,124.836h13.317v13.316H13.3
				V124.836z M13.3,138.777h13.317v13.316H13.3V138.777z M13.3,152.719h13.317v13.317H13.3V152.719z M13.3,166.661h13.317v13.317
				H13.3V166.661z M13.3,180.604h13.317v13.316H13.3V180.604z M13.3,194.545h13.317v13.317H13.3V194.545z M13.3,208.487h13.317
				v13.316H13.3V208.487z M13.3,222.429h13.317v13.317H13.3V222.429z M13.3,236.371h13.317v13.316H13.3V236.371z M13.3,250.313
				h13.317v13.316H13.3V250.313z M13.3,264.254h13.317v13.317H13.3V264.254z M13.3,278.196h13.317v13.316H13.3V278.196z
				 M13.3,292.138h13.317v13.317H13.3V292.138z M13.3,306.08h13.317v13.316H13.3V306.08z M13.3,320.022h13.317v13.317H13.3V320.022z
				 M13.3,333.964h13.317v13.317H13.3V333.964z M13.3,347.906h13.317v13.317H13.3V347.906z M13.3,361.848h13.317v13.317H13.3
				V361.848z M13.3,375.79h13.317v13.316H13.3V375.79z M13.3,389.731h13.317v13.316H13.3V389.731z M13.3,403.673h13.317v13.317H13.3
				V403.673z M13.3,417.615h13.317v13.316H13.3V417.615z M13.3,431.557h13.317v13.317H13.3V431.557z M13.3,445.499h13.317v13.317
				H13.3V445.499z M13.3,459.441h13.317v13.316H13.3V459.441z M13.3,486.7v-13.317h13.317V486.7H13.3z M27.242,486.7v-13.317h13.317
				V486.7H27.242z M41.184,486.7v-13.317h13.317V486.7H41.184z M55.126,486.7v-13.317h13.317V486.7H55.126z M69.068,486.7v-13.317
				h13.317V486.7H69.068z M83.01,486.7v-13.317h13.317V486.7H83.01z M96.952,486.7v-13.317h13.317V486.7H96.952z M110.894,486.7
				v-13.317h13.317V486.7H110.894z M124.836,486.7v-13.317h13.316V486.7H124.836z M138.777,486.7v-13.317h13.316V486.7H138.777z
				 M152.719,486.7v-13.317h13.317V486.7H152.719z M166.661,486.7v-13.317h13.317V486.7H166.661z M180.603,486.7v-13.317h13.316
				V486.7H180.603z M194.545,486.7v-13.317h13.317V486.7H194.545z M208.487,486.7v-13.317h13.316V486.7H208.487z M222.429,486.7
				v-13.317h13.317V486.7H222.429z M236.371,486.7v-13.317h13.316V486.7H236.371z M250.312,486.7v-13.317h13.316V486.7H250.312z
				 M264.254,486.7v-13.317h13.317V486.7H264.254z M278.196,486.7v-13.317h13.316V486.7H278.196z M292.138,486.7v-13.317h13.317
				V486.7H292.138z M306.08,486.7v-13.317h13.316V486.7H306.08z M320.021,486.7v-13.317h13.317V486.7H320.021z M333.964,486.7
				v-13.317h13.317V486.7H333.964z M347.906,486.7v-13.317h13.316V486.7H347.906z M361.848,486.7v-13.317h13.317V486.7H361.848z
				 M375.79,486.7v-13.317h13.316V486.7H375.79z M389.731,486.7v-13.317h13.316V486.7H389.731z M403.673,486.7v-13.317h13.317V486.7
				H403.673z M417.615,486.7v-13.317h13.316V486.7H417.615z M431.557,486.7v-13.317h13.317V486.7H431.557z M445.499,486.7v-13.317
				h13.317V486.7H445.499z M459.441,486.7v-13.317h13.316V486.7H459.441z M486.7,486.7h-13.317v-13.317H486.7V486.7z M486.7,472.758
				h-13.317v-13.316H486.7V472.758z M486.7,458.816h-13.317v-13.317H486.7V458.816z M486.7,444.874h-13.317v-13.317H486.7V444.874z
				 M486.7,430.932h-13.317v-13.316H486.7V430.932z M486.7,416.99h-13.317v-13.317H486.7V416.99z M486.7,403.048h-13.317v-13.316
				H486.7V403.048z M486.7,389.106h-13.317V375.79H486.7V389.106z M486.7,375.165h-13.317v-13.317H486.7V375.165z M486.7,361.223
				h-13.317v-13.317H486.7V361.223z M486.7,347.281h-13.317v-13.317H486.7V347.281z M486.7,333.339h-13.317v-13.317H486.7V333.339z
				 M486.7,319.397h-13.317V306.08H486.7V319.397z M486.7,305.455h-13.317v-13.317H486.7V305.455z M486.7,291.513h-13.317v-13.316
				H486.7V291.513z M486.7,277.571h-13.317v-13.317H486.7V277.571z M486.7,263.629h-13.317v-13.316H486.7V263.629z M486.7,249.688
				h-13.317v-13.316H486.7V249.688z M486.7,235.746h-13.317v-13.317H486.7V235.746z M486.7,221.804h-13.317v-13.316H486.7V221.804z
				 M486.7,207.862h-13.317v-13.317H486.7V207.862z M486.7,193.92h-13.317v-13.316H486.7V193.92z M486.7,179.979h-13.317v-13.317
				H486.7V179.979z M486.7,166.036h-13.317v-13.317H486.7V166.036z M486.7,152.094h-13.317v-13.316H486.7V152.094z M486.7,138.152
				h-13.317v-13.316H486.7V138.152z M486.7,124.211h-13.317v-13.317H486.7V124.211z M486.7,110.269h-13.317V96.952H486.7V110.269z
				 M486.7,96.327h-13.317V83.01H486.7V96.327z M486.7,82.385h-13.317V69.068H486.7V82.385z M486.7,68.443h-13.317V55.126H486.7
				V68.443z M486.7,54.501h-13.317V41.184H486.7V54.501z M486.7,40.559h-13.317V27.242H486.7V40.559z M486.7,26.617h-13.317V13.3
				H486.7V26.617z"/>
		</g>
	</g>
</g>
<g id="OBJECTS">
	<g>
		<g>
			<g>
				<g>
					
						<linearGradient id="SVGID_00000080208757262531877670000018099168869408791991_" gradientUnits="userSpaceOnUse" x1="233.3208" y1="235.1802" x2="266.6787" y2="235.1802">
						<stop  offset="0" style="stop-color:#D8F29D"/>
						<stop  offset="0.9939" style="stop-color:#78DF12"/>
					</linearGradient>
					<path style="fill:url(#SVGID_00000080208757262531877670000018099168869408791991_);" d="M252.845,258.471h-5.69
						c-7.628,0-13.834-6.206-13.834-13.834v-18.914c0-7.628,6.206-13.834,13.834-13.834h5.69c7.629,0,13.834,6.206,13.834,13.834
						v18.914C266.679,252.265,260.474,258.471,252.845,258.471z M247.155,216.888c-4.872,0-8.835,3.963-8.835,8.835v18.914
						c0,4.872,3.964,8.836,8.835,8.836h5.69c4.872,0,8.836-3.964,8.836-8.836v-18.914c0-4.872-3.964-8.835-8.836-8.835H247.155z"/>
				</g>
				<g>
					
						<linearGradient id="SVGID_00000034074113142679364930000014457294537991643277_" gradientUnits="userSpaceOnUse" x1="225.4009" y1="260.1529" x2="274.5986" y2="260.1529">
						<stop  offset="0" style="stop-color:#D8F29D"/>
						<stop  offset="0.9939" style="stop-color:#78DF12"/>
					</linearGradient>
					<path style="fill-rule:evenodd;clip-rule:evenodd;fill:url(#SVGID_00000034074113142679364930000014457294537991643277_);" d="
						M274.599,279.863c0,2.338-1.912,4.25-4.25,4.25h-40.697c-2.338,0-4.251-1.912-4.251-4.25v-39.42c0-2.338,1.913-4.25,4.251-4.25
						h40.697c2.338,0,4.25,1.913,4.25,4.25V279.863z"/>
				</g>
				<g>
					<g>
						
							<linearGradient id="SVGID_00000157987859245069731780000007979161106774609334_" gradientUnits="userSpaceOnUse" x1="225.4009" y1="250.7039" x2="241.6191" y2="250.7039">
							<stop  offset="0" style="stop-color:#00C4FF"/>
							<stop  offset="0.6781" style="stop-color:#0392EC"/>
							<stop  offset="1" style="stop-color:#0579E3"/>
						</linearGradient>
						
							<rect x="225.401" y="248.649" style="fill-rule:evenodd;clip-rule:evenodd;fill:url(#SVGID_00000157987859245069731780000007979161106774609334_);" width="16.218" height="4.11"/>
						
							<linearGradient id="SVGID_00000011726401887697394350000004919762129380808845_" gradientUnits="userSpaceOnUse" x1="225.4009" y1="260.2935" x2="241.6191" y2="260.2935">
							<stop  offset="0" style="stop-color:#00C4FF"/>
							<stop  offset="0.6781" style="stop-color:#0392EC"/>
							<stop  offset="1" style="stop-color:#0579E3"/>
						</linearGradient>
						
							<rect x="225.401" y="258.238" style="fill-rule:evenodd;clip-rule:evenodd;fill:url(#SVGID_00000011726401887697394350000004919762129380808845_);" width="16.218" height="4.11"/>
						
							<linearGradient id="SVGID_00000065032776483380141450000008684068268096798344_" gradientUnits="userSpaceOnUse" x1="225.4009" y1="269.8833" x2="241.6191" y2="269.8833">
							<stop  offset="0" style="stop-color:#00C4FF"/>
							<stop  offset="0.6781" style="stop-color:#0392EC"/>
							<stop  offset="1" style="stop-color:#0579E3"/>
						</linearGradient>
						
							<rect x="225.401" y="267.828" style="fill-rule:evenodd;clip-rule:evenodd;fill:url(#SVGID_00000065032776483380141450000008684068268096798344_);" width="16.218" height="4.11"/>
					</g>
					<g>
						
							<linearGradient id="SVGID_00000173879120009421520590000002158870084995197597_" gradientUnits="userSpaceOnUse" x1="258.3809" y1="250.7039" x2="274.5986" y2="250.7039">
							<stop  offset="0" style="stop-color:#00C4FF"/>
							<stop  offset="0.6781" style="stop-color:#0392EC"/>
							<stop  offset="1" style="stop-color:#0579E3"/>
						</linearGradient>
						
							<rect x="258.381" y="248.649" style="fill-rule:evenodd;clip-rule:evenodd;fill:url(#SVGID_00000173879120009421520590000002158870084995197597_);" width="16.218" height="4.11"/>
						
							<linearGradient id="SVGID_00000145767499388107450680000011607938420621118899_" gradientUnits="userSpaceOnUse" x1="258.3809" y1="260.2935" x2="274.5986" y2="260.2935">
							<stop  offset="0" style="stop-color:#00C4FF"/>
							<stop  offset="0.6781" style="stop-color:#0392EC"/>
							<stop  offset="1" style="stop-color:#0579E3"/>
						</linearGradient>
						
							<rect x="258.381" y="258.238" style="fill-rule:evenodd;clip-rule:evenodd;fill:url(#SVGID_00000145767499388107450680000011607938420621118899_);" width="16.218" height="4.11"/>
						
							<linearGradient id="SVGID_00000156557004080120785980000010951114055017009588_" gradientUnits="userSpaceOnUse" x1="258.3809" y1="269.8833" x2="274.5986" y2="269.8833">
							<stop  offset="0" style="stop-color:#00C4FF"/>
							<stop  offset="0.6781" style="stop-color:#0392EC"/>
							<stop  offset="1" style="stop-color:#0579E3"/>
						</linearGradient>
						
							<rect x="258.381" y="267.828" style="fill-rule:evenodd;clip-rule:evenodd;fill:url(#SVGID_00000156557004080120785980000010951114055017009588_);" width="16.218" height="4.11"/>
					</g>
				</g>
			</g>
			<g>
				<g>
					<g>
						
							<linearGradient id="SVGID_00000114784797971518233570000007600665808717420682_" gradientUnits="userSpaceOnUse" x1="122.9272" y1="251.4173" x2="376.8174" y2="251.4173">
							<stop  offset="0" style="stop-color:#D7DAE3"/>
							<stop  offset="0.4855" style="stop-color:#AAB1C4"/>
							<stop  offset="1" style="stop-color:#6E7B9A"/>
						</linearGradient>
						<path style="fill:url(#SVGID_00000114784797971518233570000007600665808717420682_);" d="M134.369,266.717
							c4.862-0.344,9.623,3.294,10.581,8.082l2.483,9.333c1.555,4.628-0.748,10.179-5.116,12.339l-1.365,0.679
							c-4.374,2.158-6.136,7.481-3.925,11.831l6.944,11.936c2.74,4.036,8.294,5.107,12.338,2.388l1.205-0.812
							c4.045-2.728,9.99-1.962,13.225,1.693l6.795,6.765c3.663,3.216,4.451,9.172,1.747,13.232l-0.804,1.203
							c-2.699,4.064-1.602,9.607,2.442,12.318l11.946,6.89c4.358,2.194,9.669,0.405,11.823-3.97l0.67-1.372
							c2.138-4.378,7.681-6.706,12.307-5.172l9.268,2.431c4.781,0.936,8.444,5.691,8.124,10.561l-0.087,1.485
							c-0.315,4.87,3.399,9.256,8.247,9.753c0,0,1.396,0.14,6.646,0.14c5.45,0,7.186-0.186,7.186-0.186
							c4.843-0.51,8.542-4.905,8.212-9.773l-0.104-1.482c-0.318-4.867,3.329-9.627,8.105-10.583l9.257-2.478
							c4.621-1.553,10.165,0.756,12.328,5.131l0.675,1.363c2.164,4.375,7.491,6.149,11.829,3.932l11.91-6.953
							c4.033-2.74,5.115-8.289,2.405-12.342l-0.798-1.189c-2.721-4.051-1.952-10.012,1.69-13.248l6.765-6.791
							c3.214-3.672,9.17-4.453,13.22-1.746l1.205,0.802c4.054,2.707,9.598,1.612,12.313-2.437l6.893-11.965
							c2.194-4.359,0.417-9.676-3.967-11.824l-1.375-0.676c-4.385-2.148-6.708-7.69-5.168-12.32l2.442-9.293
							c0.933-4.787,5.683-8.442,10.551-8.133l1.504,0.092c4.863,0.314,9.247-3.397,9.737-8.255c0,0,0.139-1.395,0.139-6.655
							c0-5.452-0.186-7.208-0.186-7.208c-0.505-4.849-4.899-8.549-9.767-8.219l-1.479,0.103c-4.868,0.333-9.623-3.306-10.581-8.093
							l-2.478-9.281c-1.546-4.624,0.763-10.18,5.126-12.345l1.365-0.68c4.369-2.161,6.126-7.493,3.915-11.839l-6.934-11.929
							c-2.73-4.046-8.279-5.12-12.329-2.4l-1.215,0.822c-4.05,2.72-9.994,1.955-13.225-1.702l-6.795-6.775
							c-3.668-3.215-4.451-9.168-1.741-13.226l0.809-1.214c2.7-4.056,1.603-9.604-2.441-12.319l-11.952-6.907
							c-4.348-2.199-9.659-0.404-11.808,3.974l-0.675,1.376c-2.15,4.383-7.682,6.709-12.308,5.167l-9.289-2.428
							c-4.785-0.939-8.438-5.688-8.129-10.553l0.099-1.508c0.313-4.871-3.391-9.246-8.238-9.73c0,0-1.416-0.139-6.697-0.139
							c-5.43,0-7.171,0.185-7.171,0.185c-4.853,0.508-8.536,4.906-8.206,9.772l0.103,1.485c0.34,4.861-3.292,9.622-8.073,10.575
							l-9.299,2.48c-4.621,1.547-10.169-0.763-12.328-5.138l-0.665-1.341c-2.158-4.377-7.48-6.142-11.823-3.932l-11.937,6.946
							c-4.039,2.74-5.116,8.289-2.391,12.342l0.794,1.19c2.731,4.048,1.963,10.003-1.684,13.237l-6.765,6.804
							c-3.214,3.666-9.159,4.452-13.214,1.748l-1.221-0.81c-4.054-2.705-9.593-1.601-12.302,2.451l-6.898,11.968
							c-2.205,4.353-0.417,9.661,3.961,11.806l1.396,0.68c4.369,2.147,6.692,7.684,5.151,12.313l-2.431,9.295
							c-0.938,4.787-5.688,8.449-10.545,8.128l-1.509-0.1c-4.864-0.312-9.243,3.406-9.732,8.26c0,0-0.149,1.442-0.149,6.708
							c0,5.431,0.185,7.166,0.185,7.166c0.51,4.852,4.905,8.546,9.772,8.209L134.369,266.717z M180.906,251.441
							c0-38.152,30.871-69.026,68.957-69.026c38.092-0.019,68.975,30.896,68.975,69.026c0,38.103-30.883,69.014-68.975,68.994
							C211.777,320.436,180.906,289.545,180.906,251.441z"/>
					</g>
					<g>
						<g>
							
								<linearGradient id="SVGID_00000071560686551096755660000000128794830484574098_" gradientUnits="userSpaceOnUse" x1="161.5958" y1="251.4264" x2="338.1437" y2="251.4264">
								<stop  offset="0" style="stop-color:#AAB1C4"/>
								<stop  offset="1" style="stop-color:#6E7B9A"/>
							</linearGradient>
							<path style="fill:url(#SVGID_00000071560686551096755660000000128794830484574098_);" d="M312.285,313.891
								c34.467-34.498,34.491-90.424-0.006-124.953c-34.457-34.488-90.352-34.483-124.818,0.015
								c-34.486,34.495-34.48,90.452-0.022,124.94C221.92,348.406,277.82,348.406,312.285,313.891z M249.863,329.267
								c-42.949,0-77.771-34.854-77.771-77.825c0-43.03,34.822-77.857,77.771-77.857c42.961-0.013,77.783,34.857,77.783,77.857
								C327.646,294.412,292.824,329.278,249.863,329.267z"/>
						</g>
					</g>
					<g>
						<g>
							
								<linearGradient id="SVGID_00000095311808705736382930000017825837912275158972_" gradientUnits="userSpaceOnUse" x1="-536.2355" y1="182.5344" x2="-381.5596" y2="182.5344" gradientTransform="matrix(-0.7071 -0.7071 0.7071 -0.7071 -203.6817 56.0135)">
								<stop  offset="0" style="stop-color:#AAB1C4"/>
								<stop  offset="1" style="stop-color:#6E7B9A"/>
							</linearGradient>
							<path style="fill:url(#SVGID_00000095311808705736382930000017825837912275158972_);" d="M249.879,328.793
								c42.691,0,77.294-34.613,77.294-77.377c0-42.716-34.603-77.347-77.294-77.347c-42.696-0.017-77.304,34.631-77.304,77.347
								C172.575,294.16,207.182,328.803,249.879,328.793z M201.349,299.994c-26.8-26.823-26.803-70.308-0.012-97.124
								c26.815-26.841,70.255-26.831,97.054-0.007c26.815,26.829,26.807,70.318,0,97.15
								C271.6,326.828,228.15,326.838,201.349,299.994z"/>
						</g>
					</g>
				</g>
				<g>
					
						<linearGradient id="SVGID_00000047781423148138603070000012699853802263731592_" gradientUnits="userSpaceOnUse" x1="188.6473" y1="251.4343" x2="311.0957" y2="251.4343">
						<stop  offset="0" style="stop-color:#C5F9F7"/>
						<stop  offset="1" style="stop-color:#31D8DD"/>
					</linearGradient>
					<path style="fill:url(#SVGID_00000047781423148138603070000012699853802263731592_);" d="M249.877,312.745
						c-16.363,0-31.747-6.382-43.316-17.969c-23.881-23.902-23.886-62.791-0.01-86.687c11.574-11.586,26.958-17.965,43.318-17.965
						c16.358,0,31.739,6.378,43.309,17.958c23.891,23.9,23.891,62.799,0,86.711C281.612,306.369,266.234,312.745,249.877,312.745z
						 M249.869,192.124c-15.825,0-30.707,6.172-41.903,17.378c-23.097,23.118-23.092,60.737,0.01,83.86
						c11.192,11.209,26.073,17.383,41.901,17.383c15.823,0,30.698-6.168,41.886-17.366c23.11-23.132,23.11-60.762,0-83.883
						C280.57,198.293,265.692,192.124,249.869,192.124z"/>
				</g>
			</g>
		</g>
		<g>
			<g>
				<g>
					
						<linearGradient id="SVGID_00000065040891685852623600000012867236123854998690_" gradientUnits="userSpaceOnUse" x1="44.0215" y1="301.2441" x2="126.7241" y2="301.2441">
						<stop  offset="0" style="stop-color:#C5F9F7"/>
						<stop  offset="0.9964" style="stop-color:#0AAFD5"/>
					</linearGradient>
					<path style="fill:url(#SVGID_00000065040891685852623600000012867236123854998690_);" d="M47.748,306.228
						c1.584-0.112,3.135,1.073,3.447,2.633l0.809,3.04c0.506,1.508-0.244,3.316-1.667,4.02l-0.445,0.221
						c-1.425,0.703-1.999,2.438-1.279,3.855l2.262,3.888c0.893,1.314,2.702,1.664,4.019,0.778l0.393-0.265
						c1.317-0.889,3.254-0.639,4.308,0.552l2.213,2.204c1.193,1.047,1.45,2.986,0.569,4.31l-0.262,0.392
						c-0.879,1.324-0.522,3.13,0.795,4.014l3.892,2.244c1.419,0.714,3.149,0.131,3.851-1.294l0.218-0.446
						c0.697-1.426,2.502-2.185,4.009-1.686l3.019,0.793c1.558,0.305,2.751,1.853,2.646,3.439l-0.028,0.483
						c-0.103,1.587,1.107,3.015,2.687,3.177c0,0,0.455,0.046,2.164,0.046c1.776,0,2.341-0.06,2.341-0.06
						c1.577-0.167,2.782-1.599,2.675-3.184l-0.034-0.483c-0.104-1.585,1.085-3.136,2.64-3.447l3.015-0.807
						c1.505-0.506,3.311,0.246,4.016,1.671l0.22,0.444c0.704,1.426,2.44,2.003,3.853,1.281l3.879-2.266
						c1.314-0.893,1.666-2.699,0.784-4.02l-0.26-0.388c-0.886-1.319-0.636-3.262,0.55-4.315l2.204-2.213
						c1.047-1.195,2.987-1.449,4.306-0.568l0.392,0.262c1.32,0.881,3.126,0.524,4.011-0.794l2.245-3.897
						c0.715-1.42,0.136-3.152-1.292-3.852l-0.448-0.221c-1.428-0.699-2.185-2.505-1.683-4.014l0.795-3.026
						c0.304-1.56,1.851-2.75,3.437-2.649l0.49,0.03c1.584,0.103,3.012-1.106,3.172-2.689c0,0,0.045-0.455,0.045-2.168
						c0-1.777-0.06-2.349-0.06-2.349c-0.165-1.579-1.596-2.784-3.182-2.677L123,296.26c-1.585,0.107-3.135-1.076-3.447-2.637
						l-0.807-3.023c-0.503-1.506,0.248-3.315,1.67-4.021l0.444-0.222c1.423-0.704,1.996-2.441,1.275-3.857l-2.259-3.885
						c-0.889-1.318-2.697-1.668-4.016-0.782l-0.396,0.268c-1.319,0.886-3.255,0.637-4.308-0.554l-2.214-2.207
						c-1.195-1.048-1.45-2.986-0.567-4.309l0.264-0.396c0.879-1.321,0.522-3.128-0.795-4.013l-3.894-2.25
						c-1.416-0.717-3.146-0.132-3.846,1.294l-0.22,0.448c-0.7,1.428-2.502,2.186-4.009,1.684l-3.025-0.791
						c-1.559-0.307-2.749-1.854-2.648-3.438l0.032-0.492c0.102-1.586-1.104-3.012-2.683-3.169c0,0-0.462-0.045-2.182-0.045
						c-1.769,0-2.336,0.059-2.336,0.059c-1.581,0.166-2.78,1.599-2.673,3.184l0.033,0.484c0.111,1.583-1.072,3.134-2.629,3.444
						l-3.029,0.808c-1.505,0.504-3.313-0.248-4.016-1.674l-0.216-0.436c-0.703-1.426-2.437-2.001-3.852-1.28l-3.888,2.262
						c-1.315,0.893-1.667,2.7-0.779,4.021l0.259,0.387c0.89,1.318,0.64,3.259-0.549,4.313l-2.204,2.216
						c-1.047,1.194-2.983,1.45-4.304,0.569l-0.397-0.264c-1.321-0.881-3.125-0.521-4.007,0.799l-2.247,3.898
						c-0.718,1.418-0.136,3.147,1.29,3.846l0.455,0.222c1.423,0.699,2.18,2.503,1.678,4.011l-0.792,3.027
						c-0.306,1.561-1.853,2.752-3.436,2.648l-0.491-0.033c-1.584-0.102-3.011,1.109-3.17,2.691c0,0-0.048,0.469-0.048,2.186
						c0,1.768,0.061,2.334,0.061,2.334c0.166,1.58,1.598,2.783,3.183,2.674L47.748,306.228z M64.13,301.252
						c0-11.752,9.509-21.262,21.24-21.262c11.733-0.006,21.245,9.517,21.245,21.262c0,11.736-9.512,21.257-21.245,21.251
						C73.639,322.503,64.13,312.988,64.13,301.252z"/>
				</g>
				<g>
					<g>
						
							<linearGradient id="SVGID_00000040553870856265029140000001788824607330574474_" gradientUnits="userSpaceOnUse" x1="58.1823" y1="301.2469" x2="112.5618" y2="301.2469">
							<stop  offset="0" style="stop-color:#C5F9F7"/>
							<stop  offset="1" style="stop-color:#31D8DD"/>
						</linearGradient>
						<path style="fill:url(#SVGID_00000040553870856265029140000001788824607330574474_);" d="M104.597,320.487
							c10.616-10.626,10.624-27.853-0.002-38.487c-10.613-10.624-27.83-10.622-38.446,0.004
							c-10.622,10.625-10.62,27.86-0.007,38.484C76.763,331.118,93.981,331.118,104.597,320.487z M85.37,325.223
							c-13.229,0-23.955-10.735-23.955-23.971c0-13.254,10.726-23.983,23.955-23.983c13.233-0.004,23.958,10.737,23.958,23.983
							C109.329,314.487,98.602,325.227,85.37,325.223z"/>
					</g>
				</g>
				<g>
					<g>
						
							<linearGradient id="SVGID_00000011733512142469784950000005173919647817278368_" gradientUnits="userSpaceOnUse" x1="-401.625" y1="30.9862" x2="-353.9821" y2="30.9862" gradientTransform="matrix(-0.7071 -0.7071 0.7071 -0.7071 -203.6817 56.0135)">
							<stop  offset="0" style="stop-color:#C5F9F7"/>
							<stop  offset="1" style="stop-color:#31D8DD"/>
						</linearGradient>
						<path style="fill:url(#SVGID_00000011733512142469784950000005173919647817278368_);" d="M85.375,325.077
							c13.149,0,23.808-10.661,23.808-23.833c0-13.158-10.658-23.824-23.808-23.824c-13.151-0.006-23.811,10.666-23.811,23.824
							C61.564,314.41,72.224,325.08,85.375,325.077z M70.427,316.207c-8.255-8.263-8.256-21.656-0.004-29.916
							c8.26-8.268,21.64-8.265,29.895-0.002c8.26,8.264,8.257,21.658,0,29.924C92.065,324.473,78.682,324.475,70.427,316.207z"/>
					</g>
				</g>
			</g>
			<g>
				
					<linearGradient id="SVGID_00000005975172447019609390000006492352695283661234_" gradientUnits="userSpaceOnUse" x1="68.1778" y1="301.2491" x2="102.5677" y2="301.2491">
					<stop  offset="0" style="stop-color:#C5F9F7"/>
					<stop  offset="1" style="stop-color:#31D8DD"/>
				</linearGradient>
				<path style="fill:url(#SVGID_00000005975172447019609390000006492352695283661234_);" d="M85.374,318.468
					c-4.596,0-8.916-1.792-12.166-5.046c-6.706-6.714-6.708-17.635-0.002-24.346c3.25-3.254,7.571-5.046,12.167-5.046
					c4.594,0,8.913,1.791,12.163,5.044c6.71,6.713,6.71,17.637,0,24.353C94.288,316.678,89.969,318.468,85.374,318.468z
					 M85.373,285.03c-4.328,0-8.397,1.688-11.46,4.753c-6.315,6.321-6.314,16.608,0.003,22.932c3.061,3.065,7.13,4.753,11.458,4.753
					c4.327,0,8.395-1.686,11.454-4.748c6.32-6.325,6.32-16.616,0-22.938C93.768,286.718,89.699,285.03,85.373,285.03z"/>
			</g>
		</g>
		<g>
			<g>
				
					<linearGradient id="SVGID_00000142134190169744067110000001786458101696260232_" gradientUnits="userSpaceOnUse" x1="277.8535" y1="178.5093" x2="420.6826" y2="178.5093">
					<stop  offset="0" style="stop-color:#F7ABC5"/>
					<stop  offset="1" style="stop-color:#F16D9A"/>
				</linearGradient>
				<path style="fill:url(#SVGID_00000142134190169744067110000001786458101696260232_);" d="M349.268,100.024
					c-11.313,14.142-71.414,30.404-71.414,30.404s1.414,39.596,6.363,74.243c4.949,34.646,65.051,52.323,65.051,52.323
					s60.102-17.676,65.051-52.323c4.95-34.646,6.364-74.243,6.364-74.243S360.581,114.166,349.268,100.024z"/>
				
					<linearGradient id="SVGID_00000026854622030891274160000003227129067710145156_" gradientUnits="userSpaceOnUse" x1="921.5967" y1="178.5098" x2="993.0117" y2="178.5098" gradientTransform="matrix(-1 0 0 1 1342.2793 0)">
					<stop  offset="0" style="stop-color:#F7ABC5"/>
					<stop  offset="1" style="stop-color:#F16D9A"/>
				</linearGradient>
				<path style="fill:url(#SVGID_00000026854622030891274160000003227129067710145156_);" d="M349.268,100.024v156.971
					c0,0,60.102-17.677,65.051-52.324c4.949-34.646,6.364-74.243,6.364-74.243S360.581,114.166,349.268,100.024z"/>
			</g>
			<g>
				<g>
					<polygon style="fill:#FFFFFF;" points="349.831,198.216 329.819,179.569 334.711,174.32 349.705,188.289 389.813,148.927 
						394.839,154.05 					"/>
				</g>
				<path style="fill:#FFFFFF;" d="M381.468,180.347c-0.291,17.637-14.707,31.901-32.411,31.901
					c-17.889,0-32.441-14.553-32.441-32.439c0-17.887,14.553-32.438,32.441-32.438c8,0,15.32,2.925,20.983,7.744l5.072-5.073
					c-6.973-6.111-16.075-9.848-26.055-9.848c-21.845,0-39.617,17.771-39.617,39.614c0,21.845,17.772,39.616,39.617,39.616
					c21.846,0,39.615-17.771,39.615-39.616c0-2.093-0.212-4.134-0.526-6.14L381.468,180.347z"/>
			</g>
		</g>
		<g>
			<g>
				<g>
					
						<linearGradient id="SVGID_00000153678968897551362890000011029336566171360682_" gradientUnits="userSpaceOnUse" x1="102.2163" y1="378.9858" x2="397.7832" y2="378.9858">
						<stop  offset="0" style="stop-color:#C5F9F7"/>
						<stop  offset="1" style="stop-color:#31D8DD"/>
					</linearGradient>
					<path style="fill:url(#SVGID_00000153678968897551362890000011029336566171360682_);" d="M397.783,380.604
						c0,17.142-14.024,31.166-31.166,31.166H133.383c-17.142,0-31.167-14.024-31.167-31.166v-3.234
						c0-17.143,14.025-31.167,31.167-31.167h233.234c17.142,0,31.166,14.024,31.166,31.167V380.604z"/>
					
						<linearGradient id="SVGID_00000004539588554580329200000015410200638482453903_" gradientUnits="userSpaceOnUse" x1="110.3721" y1="378.9858" x2="389.6279" y2="378.9858">
						<stop  offset="0" style="stop-color:#F5F9FC"/>
						<stop  offset="0.9994" style="stop-color:#B8D7FF"/>
					</linearGradient>
					<path style="fill:url(#SVGID_00000004539588554580329200000015410200638482453903_);" d="M389.628,378.986
						c0,14.266-12.75,25.938-28.334,25.938H138.706c-15.584,0-28.334-11.672-28.334-25.938c0-14.266,12.75-25.938,28.334-25.938
						h222.588C376.878,353.048,389.628,364.721,389.628,378.986z"/>
				</g>
			</g>
			<g>
				<text transform="matrix(0.95 0 0 1 125.9858 389.7617)" style="fill:#0066FF; font-family:'Montserrat-Bold'; font-size:29px;">SSL CERTIFICATE</text>
			</g>
		</g>
		<g>
			<g>
				<g>
					
						<linearGradient id="SVGID_00000053519556801499341410000002854223357948731552_" gradientUnits="userSpaceOnUse" x1="123.8633" y1="129.9983" x2="248.5054" y2="129.9983">
						<stop  offset="0" style="stop-color:#FFD800"/>
						<stop  offset="0.5516" style="stop-color:#FFB100"/>
						<stop  offset="1" style="stop-color:#FF9500"/>
					</linearGradient>
					<path style="fill:url(#SVGID_00000053519556801499341410000002854223357948731552_);" d="M248.505,129.999
						c0,7.697-6.296,13.995-13.993,13.995h-96.656c-7.694,0-13.993-6.298-13.993-13.995v-0.001c0-7.697,6.299-13.995,13.993-13.995
						h96.656c7.697,0,13.993,6.298,13.993,13.995V129.999z"/>
					<g>
						
							<text transform="matrix(1 0 0 1 156.6016 136.6709)" style="fill:#FFFFFF; font-family:'OpenSans-Bold'; font-size:18.8923px;">https</text>
						<path style="fill:#FFFFFF;" d="M149.331,123.881c-0.407-3.01-2.961-5.347-6.083-5.347c-3.121,0-5.679,2.336-6.08,5.347h-1.682
							v15.524h15.524v-15.524H149.331z M144.135,131.993v4.134h-1.776v-4.139c-0.748-0.339-1.278-1.091-1.278-1.97
							c0-1.198,0.968-2.17,2.168-2.17c1.197,0,2.168,0.971,2.168,2.17C145.416,130.899,144.89,131.65,144.135,131.993z
							 M138.913,123.881c0.383-2.048,2.18-3.604,4.336-3.604c2.159,0,3.95,1.556,4.336,3.604H138.913z"/>
					</g>
				</g>
				<g>
					
						<linearGradient id="SVGID_00000173864618584518817240000018047980812947576487_" gradientUnits="userSpaceOnUse" x1="76.5989" y1="194.4743" x2="125.7614" y2="194.4743">
						<stop  offset="0" style="stop-color:#FFD800"/>
						<stop  offset="0.5516" style="stop-color:#FFB100"/>
						<stop  offset="1" style="stop-color:#FF9500"/>
					</linearGradient>
					<path style="fill:url(#SVGID_00000173864618584518817240000018047980812947576487_);" d="M95.624,216.385
						c-3.56,3.556-9.385,3.556-12.949-0.003l-3.408-3.41c-3.558-3.562-3.558-9.389,0-12.948l29.476-29.476
						c2.142-2.143,8.678,1.567,10.029,2.921l0.708,0.712c3.561,3.556,7.972,10.373,5.62,12.724L95.624,216.385z"/>
					
						<linearGradient id="SVGID_00000111153024383157827720000003356255014747137199_" gradientUnits="userSpaceOnUse" x1="107.5628" y1="178.9347" x2="125.8652" y2="178.9347">
						<stop  offset="0" style="stop-color:#FF9500"/>
						<stop  offset="0.3176" style="stop-color:#F18700"/>
						<stop  offset="1" style="stop-color:#D56B00"/>
					</linearGradient>
					<path style="fill:url(#SVGID_00000111153024383157827720000003356255014747137199_);" d="M124.893,187.112
						c-2.264,2.263-7.762,0.438-12.279-4.08c-4.514-4.516-6.34-10.012-4.084-12.276c2.271-2.263,7.765-0.436,12.279,4.081
						C125.326,179.354,127.16,184.85,124.893,187.112z"/>
					
						<linearGradient id="SVGID_00000106140042800498898690000000877362443220170132_" gradientUnits="userSpaceOnUse" x1="350.8663" y1="647.4405" x2="467.2952" y2="647.4405" gradientTransform="matrix(0.7071 0.7071 -0.7071 0.7071 330.7149 -613.5951)">
						<stop  offset="0" style="stop-color:#D0E3FF"/>
						<stop  offset="0.5257" style="stop-color:#ADCCFF"/>
						<stop  offset="0.9997" style="stop-color:#91BAFF"/>
					</linearGradient>
					<path style="fill:url(#SVGID_00000106140042800498898690000000877362443220170132_);" d="M208.637,87.012
						c-22.735-22.731-59.596-22.731-82.334,0c-21.252,21.253-22.627,54.855-4.136,77.713l-6.785,6.788
						c-2.232,2.224-2.229,5.866,0,8.094l0.661,0.66c2.227,2.222,5.866,2.227,8.087,0.003l6.79-6.789
						c22.858,18.487,56.454,17.114,77.711-4.143C231.364,146.609,231.37,109.74,208.637,87.012z M135.101,160.549
						c-17.885-17.874-17.879-46.863,0-64.742c17.876-17.883,46.86-17.877,64.739-0.006c17.882,17.877,17.882,46.871,0,64.747
						C181.961,178.428,152.977,178.422,135.101,160.549z"/>
					
						<linearGradient id="SVGID_00000170970584989769745750000002682943769524446881_" gradientUnits="userSpaceOnUse" x1="1669.3359" y1="-1154.5994" x2="1767.3677" y2="-1154.5994" gradientTransform="matrix(-1 0 0 -1 1885.8203 -1026.4268)">
						<stop  offset="0" style="stop-color:#D0E3FF"/>
						<stop  offset="0.5257" style="stop-color:#ADCCFF"/>
						<stop  offset="0.9997" style="stop-color:#91BAFF"/>
					</linearGradient>
					<path style="fill:url(#SVGID_00000170970584989769745750000002682943769524446881_);" d="M167.464,177.191
						c27.071-0.003,49.015-21.952,49.02-49.02c0-27.071-21.95-49.026-49.023-49.017c-27.063,0.003-49.01,21.937-49.008,49.017
						C118.45,155.234,140.398,177.197,167.464,177.191z M167.464,82.394c25.283-0.012,45.781,20.494,45.781,45.778
						c0.001,25.28-20.498,45.781-45.775,45.781c-25.282,0.003-45.787-20.5-45.784-45.784
						C121.684,102.884,142.186,82.396,167.464,82.394z"/>
				</g>
			</g>
			
				<linearGradient id="SVGID_00000060743699152799423250000018345801213845820574_" gradientUnits="userSpaceOnUse" x1="121.6895" y1="128.1692" x2="213.248" y2="128.1692">
				<stop  offset="0" style="stop-color:#FFFFFF;stop-opacity:0"/>
				<stop  offset="0.9961" style="stop-color:#FFFFFF;stop-opacity:0.7"/>
			</linearGradient>
			<path style="fill:url(#SVGID_00000060743699152799423250000018345801213845820574_);" d="M213.248,128.168
				c0.012,25.284-20.494,45.781-45.778,45.781c-25.281,0.001-45.781-20.498-45.781-45.775c-0.003-25.282,20.5-45.787,45.784-45.784
				C192.757,82.388,213.245,102.89,213.248,128.168z"/>
		</g>
		<g>
			<g>
				
					<linearGradient id="SVGID_00000088830078321986521790000010055474122026987943_" gradientUnits="userSpaceOnUse" x1="369.2009" y1="324.8427" x2="457.0415" y2="324.8427">
					<stop  offset="0" style="stop-color:#FFD800"/>
					<stop  offset="0.5516" style="stop-color:#FFB100"/>
					<stop  offset="1" style="stop-color:#FF9500"/>
				</linearGradient>
				<path style="fill:url(#SVGID_00000088830078321986521790000010055474122026987943_);" d="M383.929,324.817l5.803,3.441
					l-1.512,2.825l-5.9-3.647l0.049,6.986h-2.925l0.048-6.986l-5.899,3.647l-1.512-2.825l5.852-3.441l-5.852-3.391l1.512-2.876
					l5.899,3.646l-0.048-6.936h2.925l-0.049,6.936l5.9-3.646l1.512,2.876L383.929,324.817z"/>
				
					<linearGradient id="SVGID_00000092419875276635950370000017512583647417000082_" gradientUnits="userSpaceOnUse" x1="369.2003" y1="324.8427" x2="457.0414" y2="324.8427">
					<stop  offset="0" style="stop-color:#FFD800"/>
					<stop  offset="0.5516" style="stop-color:#FFB100"/>
					<stop  offset="1" style="stop-color:#FF9500"/>
				</linearGradient>
				<path style="fill:url(#SVGID_00000092419875276635950370000017512583647417000082_);" d="M410.194,324.817l5.802,3.441
					l-1.512,2.825l-5.899-3.647l0.049,6.986h-2.926l0.049-6.986l-5.9,3.647l-1.512-2.825l5.852-3.441l-5.852-3.391l1.512-2.876
					l5.9,3.646l-0.049-6.936h2.926l-0.049,6.936l5.899-3.646l1.512,2.876L410.194,324.817z"/>
				
					<linearGradient id="SVGID_00000182529251268397258970000012684369904318071985_" gradientUnits="userSpaceOnUse" x1="369.1973" y1="324.8427" x2="457.0434" y2="324.8427">
					<stop  offset="0" style="stop-color:#FFD800"/>
					<stop  offset="0.5516" style="stop-color:#FFB100"/>
					<stop  offset="1" style="stop-color:#FF9500"/>
				</linearGradient>
				<path style="fill:url(#SVGID_00000182529251268397258970000012684369904318071985_);" d="M439.003,324.817l5.803,3.441
					l-1.513,2.825l-5.899-3.647l0.049,6.986h-2.926l0.049-6.986l-5.9,3.647l-1.512-2.825l5.852-3.441l-5.852-3.391l1.512-2.876
					l5.9,3.646l-0.049-6.936h2.926l-0.049,6.936l5.899-3.646l1.513,2.876L439.003,324.817z"/>
			</g>
		</g>
	</g>
</g>
</svg>
