<?xml version="1.0" encoding="utf-8"?>
<!-- Generator: Adobe Illustrator 27.5.0, SVG Export Plug-In . SVG Version: 6.00 Build 0)  -->
<svg version="1.1" xmlns="http://www.w3.org/2000/svg" xmlns:xlink="http://www.w3.org/1999/xlink" x="0px" y="0px"
	 viewBox="0 0 500 500" style="enable-background:new 0 0 500 500;" xml:space="preserve">
<g id="Background_Complete">
	<rect x="416.779" y="398.494" style="fill:#EBEBEB;" width="33.122" height="0.25"/>
	<rect x="322.527" y="401.208" style="fill:#EBEBEB;" width="8.693" height="0.25"/>
	<rect x="396.586" y="389.208" style="fill:#EBEBEB;" width="19.192" height="0.25"/>
	<rect x="52.459" y="390.888" style="fill:#EBEBEB;" width="43.193" height="0.25"/>
	<rect x="104.556" y="390.888" style="fill:#EBEBEB;" width="6.333" height="0.25"/>
	<rect x="131.471" y="395.111" style="fill:#EBEBEB;" width="93.676" height="0.25"/>
	<g>
		<path style="fill:#EBEBEB;" d="M238.401,337.8H45.302c-3.147,0-5.708-2.561-5.708-5.708V60.66c0-3.147,2.561-5.708,5.708-5.708
			h193.099c3.146,0,5.707,2.561,5.707,5.708v271.432C244.108,335.239,241.547,337.8,238.401,337.8z M45.302,55.203
			c-3.01,0-5.458,2.448-5.458,5.458v271.432c0,3.01,2.448,5.458,5.458,5.458h193.099c3.009,0,5.457-2.448,5.457-5.458V60.66
			c0-3.009-2.448-5.458-5.457-5.458H45.302z"/>
		<path style="fill:#EBEBEB;" d="M454.698,337.8H261.599c-3.146,0-5.707-2.561-5.707-5.708V60.66c0-3.147,2.561-5.708,5.707-5.708
			h193.099c3.148,0,5.708,2.561,5.708,5.708v271.432C460.406,335.239,457.845,337.8,454.698,337.8z M261.599,55.203
			c-3.009,0-5.457,2.448-5.457,5.458v271.432c0,3.01,2.448,5.458,5.457,5.458h193.099c3.01,0,5.458-2.448,5.458-5.458V60.66
			c0-3.009-2.448-5.458-5.458-5.458H261.599z"/>
	</g>
	<rect y="382.398" style="fill:#EBEBEB;" width="500" height="0.25"/>
	<g>
		<g>
			<rect x="293.755" y="94.821" style="fill:#E0E0E0;" width="128.896" height="285.02"/>
			<path style="fill:#E6E6E6;" d="M422.651,92.321v290.02h23.748V92.321H422.651z"/>
			<path style="fill:#E6E6E6;" d="M271.146,92.321v290.02h23.748V92.321H271.146z"/>
			<path style="fill:#F5F5F5;" d="M267.113,92.321v290.02h158.386V92.321H267.113z M419.802,97.321v52.004H272.811V97.321H419.802z
				 M272.811,263.332v-52.003h146.991v52.003H272.811z M419.802,268.333v52.004H272.811v-52.004H419.802z M272.811,206.329v-52.004
				h146.991v52.004H272.811z M272.811,377.34v-52.004h146.991v52.004H272.811z"/>
			<g>
				
					<rect x="368.45" y="109.451" transform="matrix(-1 -1.224647e-16 1.224647e-16 -1 742.3792 259.2536)" style="fill:#E6E6E6;" width="5.478" height="40.351"/>
				
					<rect x="373.929" y="109.451" transform="matrix(-1 -1.224647e-16 1.224647e-16 -1 753.3363 259.2536)" style="fill:#E0E0E0;" width="5.478" height="40.351"/>
				
					<rect x="357.493" y="112.287" transform="matrix(-1 -1.224647e-16 1.224647e-16 -1 725.9434 262.0894)" style="fill:#E6E6E6;" width="10.957" height="37.516"/>
				
					<rect x="344.934" y="109.451" transform="matrix(-1 -1.224647e-16 1.224647e-16 -1 696.9482 259.2536)" style="fill:#F0F0F0;" width="7.08" height="40.351"/>
				
					<rect x="352.014" y="109.451" transform="matrix(-1 -1.224647e-16 1.224647e-16 -1 709.5073 259.2536)" style="fill:#EBEBEB;" width="5.479" height="40.351"/>
				
					<rect x="303.38" y="109.451" transform="matrix(-1 -1.224647e-16 1.224647e-16 -1 613.8409 259.2536)" style="fill:#E6E6E6;" width="7.081" height="40.351"/>
				
					<rect x="310.461" y="109.451" transform="matrix(-1 -1.224647e-16 1.224647e-16 -1 626.4 259.2536)" style="fill:#EBEBEB;" width="5.478" height="40.351"/>
				
					<rect x="326.896" y="109.451" transform="matrix(-1 -1.224647e-16 1.224647e-16 -1 660.8731 259.2536)" style="fill:#E6E6E6;" width="7.081" height="40.351"/>
				
					<rect x="333.977" y="109.451" transform="matrix(-1 -1.224647e-16 1.224647e-16 -1 673.4322 259.2536)" style="fill:#E0E0E0;" width="5.478" height="40.351"/>
				
					<rect x="292.423" y="110.407" transform="matrix(-1 -1.224647e-16 1.224647e-16 -1 595.8031 260.2095)" style="fill:#EBEBEB;" width="10.957" height="39.396"/>
				
					<rect x="286.944" y="110.407" transform="matrix(-1 -1.224647e-16 1.224647e-16 -1 579.3673 260.2095)" style="fill:#E0E0E0;" width="5.479" height="39.396"/>
				
					<rect x="319.591" y="110.407" transform="matrix(-1 -1.224647e-16 1.224647e-16 -1 646.4876 260.2095)" style="fill:#E0E0E0;" width="7.305" height="39.396"/>
				
					<rect x="315.939" y="110.407" transform="matrix(-1 -1.224647e-16 1.224647e-16 -1 635.5304 260.2095)" style="fill:#F0F0F0;" width="3.652" height="39.396"/>
				
					<rect x="333.977" y="112.287" transform="matrix(-1 -1.224647e-16 1.224647e-16 -1 678.9105 262.0894)" style="fill:#F5F5F5;" width="10.957" height="37.516"/>
				
					<rect x="395.843" y="109.451" transform="matrix(-1 -1.224647e-16 1.224647e-16 -1 798.767 259.2536)" style="fill:#EBEBEB;" width="7.081" height="40.351"/>
				
					<rect x="402.924" y="109.451" transform="matrix(-1 -1.224647e-16 1.224647e-16 -1 811.3261 259.2536)" style="fill:#E6E6E6;" width="5.478" height="40.351"/>
				
					<rect x="384.886" y="110.407" transform="matrix(-1 -1.224647e-16 1.224647e-16 -1 780.7293 260.2095)" style="fill:#E0E0E0;" width="10.957" height="39.396"/>
				
					<rect x="379.407" y="110.407" transform="matrix(-1 -1.224647e-16 1.224647e-16 -1 764.2935 260.2095)" style="fill:#EBEBEB;" width="5.479" height="39.396"/>
				
					<rect x="412.054" y="110.407" transform="matrix(-1 -1.224647e-16 1.224647e-16 -1 831.4135 260.2095)" style="fill:#EBEBEB;" width="7.305" height="39.396"/>
				
					<rect x="408.402" y="110.407" transform="matrix(-1 -1.224647e-16 1.224647e-16 -1 820.4563 260.2095)" style="fill:#FAFAFA;" width="3.652" height="39.396"/>
			</g>
			<g>
				<rect x="332.375" y="165.955" style="fill:#E6E6E6;" width="5.478" height="40.351"/>
				<rect x="326.896" y="165.955" style="fill:#E0E0E0;" width="5.478" height="40.351"/>
				<rect x="337.853" y="168.791" style="fill:#E6E6E6;" width="10.957" height="37.516"/>
				<rect x="354.289" y="165.955" style="fill:#F0F0F0;" width="7.081" height="40.351"/>
				<rect x="348.811" y="165.955" style="fill:#EBEBEB;" width="5.479" height="40.351"/>
				<rect x="395.843" y="165.955" style="fill:#E6E6E6;" width="7.081" height="40.351"/>
				<rect x="390.364" y="165.955" style="fill:#EBEBEB;" width="5.478" height="40.351"/>
				<rect x="372.327" y="165.955" style="fill:#E6E6E6;" width="7.081" height="40.351"/>
				<rect x="366.848" y="165.955" style="fill:#E0E0E0;" width="5.478" height="40.351"/>
				<rect x="402.923" y="166.911" style="fill:#EBEBEB;" width="10.957" height="39.396"/>
				<rect x="413.881" y="166.911" style="fill:#E0E0E0;" width="5.479" height="39.396"/>
				<rect x="379.407" y="166.911" style="fill:#E0E0E0;" width="7.305" height="39.396"/>
				<rect x="386.712" y="166.911" style="fill:#F0F0F0;" width="3.652" height="39.396"/>
				<rect x="361.37" y="168.791" style="fill:#F5F5F5;" width="10.957" height="37.516"/>
				<rect x="303.38" y="165.955" style="fill:#EBEBEB;" width="7.081" height="40.351"/>
				<rect x="297.901" y="165.955" style="fill:#E6E6E6;" width="5.478" height="40.351"/>
				<rect x="310.46" y="166.911" style="fill:#E0E0E0;" width="10.957" height="39.396"/>
				<rect x="321.418" y="166.911" style="fill:#EBEBEB;" width="5.479" height="39.396"/>
				<rect x="286.944" y="166.911" style="fill:#EBEBEB;" width="7.305" height="39.396"/>
				<rect x="294.249" y="166.911" style="fill:#FAFAFA;" width="3.652" height="39.396"/>
			</g>
			<g>
				<rect x="332.375" y="223.459" style="fill:#E6E6E6;" width="5.478" height="40.351"/>
				<rect x="326.896" y="223.459" style="fill:#E0E0E0;" width="5.478" height="40.351"/>
				<rect x="337.853" y="226.295" style="fill:#E6E6E6;" width="10.957" height="37.516"/>
				<rect x="354.289" y="223.459" style="fill:#F0F0F0;" width="7.081" height="40.351"/>
				<rect x="348.811" y="223.459" style="fill:#EBEBEB;" width="5.479" height="40.351"/>
				<rect x="395.843" y="223.459" style="fill:#E6E6E6;" width="7.081" height="40.351"/>
				<rect x="390.364" y="223.459" style="fill:#EBEBEB;" width="5.478" height="40.351"/>
				<rect x="372.327" y="223.459" style="fill:#E6E6E6;" width="7.081" height="40.351"/>
				<rect x="366.848" y="223.459" style="fill:#E0E0E0;" width="5.478" height="40.351"/>
				<rect x="402.923" y="224.415" style="fill:#EBEBEB;" width="10.957" height="39.396"/>
				<rect x="413.881" y="224.415" style="fill:#E0E0E0;" width="5.479" height="39.396"/>
				<rect x="379.407" y="224.415" style="fill:#E0E0E0;" width="7.305" height="39.396"/>
				<rect x="386.712" y="224.415" style="fill:#F0F0F0;" width="3.652" height="39.396"/>
				<rect x="361.37" y="226.295" style="fill:#F5F5F5;" width="10.957" height="37.516"/>
				<rect x="303.38" y="223.459" style="fill:#EBEBEB;" width="7.081" height="40.351"/>
				<rect x="297.901" y="223.459" style="fill:#E6E6E6;" width="5.478" height="40.351"/>
				<rect x="310.46" y="224.415" style="fill:#E0E0E0;" width="10.957" height="39.396"/>
				<rect x="321.418" y="224.415" style="fill:#EBEBEB;" width="5.479" height="39.396"/>
				<rect x="286.944" y="224.415" style="fill:#EBEBEB;" width="7.305" height="39.396"/>
				<rect x="294.249" y="224.415" style="fill:#FAFAFA;" width="3.652" height="39.396"/>
			</g>
			<g>
				
					<rect x="368.45" y="280.963" transform="matrix(-1 -1.224647e-16 1.224647e-16 -1 742.3792 602.2772)" style="fill:#E6E6E6;" width="5.478" height="40.351"/>
				
					<rect x="373.929" y="280.963" transform="matrix(-1 -1.224647e-16 1.224647e-16 -1 753.3363 602.2772)" style="fill:#E0E0E0;" width="5.478" height="40.351"/>
				
					<rect x="357.493" y="280.963" transform="matrix(-1 -1.224647e-16 1.224647e-16 -1 725.9434 599.4414)" style="fill:#E6E6E6;" width="10.957" height="37.516"/>
				
					<rect x="344.934" y="280.963" transform="matrix(-1 -1.224647e-16 1.224647e-16 -1 696.9482 602.2772)" style="fill:#F0F0F0;" width="7.08" height="40.351"/>
				
					<rect x="352.014" y="280.963" transform="matrix(-1 -1.224647e-16 1.224647e-16 -1 709.5073 602.2772)" style="fill:#EBEBEB;" width="5.479" height="40.351"/>
				
					<rect x="303.38" y="280.963" transform="matrix(-1 -1.224647e-16 1.224647e-16 -1 613.8409 602.2772)" style="fill:#E6E6E6;" width="7.081" height="40.351"/>
				
					<rect x="310.461" y="280.963" transform="matrix(-1 -1.224647e-16 1.224647e-16 -1 626.4 602.2772)" style="fill:#EBEBEB;" width="5.478" height="40.351"/>
				
					<rect x="326.896" y="280.963" transform="matrix(-1 -1.224647e-16 1.224647e-16 -1 660.8731 602.2772)" style="fill:#E6E6E6;" width="7.081" height="40.351"/>
				
					<rect x="333.977" y="280.963" transform="matrix(-1 -1.224647e-16 1.224647e-16 -1 673.4322 602.2772)" style="fill:#E0E0E0;" width="5.478" height="40.351"/>
				
					<rect x="292.423" y="280.963" transform="matrix(-1 -1.224647e-16 1.224647e-16 -1 595.8031 601.3213)" style="fill:#EBEBEB;" width="10.957" height="39.396"/>
				
					<rect x="286.944" y="280.963" transform="matrix(-1 -1.224647e-16 1.224647e-16 -1 579.3673 601.3213)" style="fill:#E0E0E0;" width="5.479" height="39.396"/>
				
					<rect x="319.591" y="280.963" transform="matrix(-1 -1.224647e-16 1.224647e-16 -1 646.4876 601.3213)" style="fill:#E0E0E0;" width="7.305" height="39.396"/>
				
					<rect x="315.939" y="280.963" transform="matrix(-1 -1.224647e-16 1.224647e-16 -1 635.5304 601.3213)" style="fill:#F0F0F0;" width="3.652" height="39.396"/>
				
					<rect x="333.977" y="280.963" transform="matrix(-1 -1.224647e-16 1.224647e-16 -1 678.9105 599.4414)" style="fill:#F5F5F5;" width="10.957" height="37.516"/>
				
					<rect x="395.843" y="280.963" transform="matrix(-1 -1.224647e-16 1.224647e-16 -1 798.767 602.2772)" style="fill:#EBEBEB;" width="7.081" height="40.351"/>
				
					<rect x="402.924" y="280.963" transform="matrix(-1 -1.224647e-16 1.224647e-16 -1 811.3261 602.2772)" style="fill:#E6E6E6;" width="5.478" height="40.351"/>
				
					<rect x="384.886" y="280.963" transform="matrix(-1 -1.224647e-16 1.224647e-16 -1 780.7293 601.3213)" style="fill:#E0E0E0;" width="10.957" height="39.396"/>
				
					<rect x="379.407" y="280.963" transform="matrix(-1 -1.224647e-16 1.224647e-16 -1 764.2935 601.3213)" style="fill:#EBEBEB;" width="5.479" height="39.396"/>
				
					<rect x="412.054" y="280.963" transform="matrix(-1 -1.224647e-16 1.224647e-16 -1 831.4135 601.3213)" style="fill:#EBEBEB;" width="7.305" height="39.396"/>
				
					<rect x="408.402" y="280.963" transform="matrix(-1 -1.224647e-16 1.224647e-16 -1 820.4563 601.3213)" style="fill:#FAFAFA;" width="3.652" height="39.396"/>
			</g>
			<g>
				<rect x="332.375" y="338.467" style="fill:#E6E6E6;" width="5.478" height="40.352"/>
				<rect x="326.896" y="338.467" style="fill:#E0E0E0;" width="5.478" height="40.352"/>
				<rect x="337.853" y="338.467" style="fill:#E6E6E6;" width="10.957" height="37.516"/>
				<rect x="354.289" y="338.467" style="fill:#F0F0F0;" width="7.081" height="40.352"/>
				<rect x="348.811" y="338.467" style="fill:#EBEBEB;" width="5.479" height="40.352"/>
				<rect x="395.843" y="338.467" style="fill:#E6E6E6;" width="7.081" height="40.352"/>
				<rect x="390.364" y="338.467" style="fill:#EBEBEB;" width="5.478" height="40.352"/>
				<rect x="372.327" y="338.467" style="fill:#E6E6E6;" width="7.081" height="40.352"/>
				<rect x="366.848" y="338.467" style="fill:#E0E0E0;" width="5.478" height="40.352"/>
				<rect x="402.923" y="338.467" style="fill:#EBEBEB;" width="10.957" height="39.396"/>
				<rect x="413.881" y="338.467" style="fill:#E0E0E0;" width="5.479" height="39.396"/>
				<rect x="379.407" y="338.467" style="fill:#E0E0E0;" width="7.305" height="39.396"/>
				<rect x="386.712" y="338.467" style="fill:#F0F0F0;" width="3.652" height="39.396"/>
				<rect x="361.37" y="338.467" style="fill:#F5F5F5;" width="10.957" height="37.516"/>
				<rect x="303.38" y="338.467" style="fill:#EBEBEB;" width="7.081" height="40.352"/>
				<rect x="297.901" y="338.467" style="fill:#E6E6E6;" width="5.478" height="40.352"/>
				<rect x="310.46" y="338.467" style="fill:#E0E0E0;" width="10.957" height="39.396"/>
				<rect x="321.418" y="338.467" style="fill:#EBEBEB;" width="5.479" height="39.396"/>
				<rect x="286.944" y="338.467" style="fill:#EBEBEB;" width="7.305" height="39.396"/>
				<rect x="294.249" y="338.467" style="fill:#FAFAFA;" width="3.652" height="39.396"/>
			</g>
		</g>
	</g>
	<g>
		<g>
			<g>
				<g>
					<path style="fill:#FAFAFA;" d="M85.423,114.611c0,0,4.748,20.634,2.9,40.846c-1.449,15.845-5.189,31.48-5.189,31.48
						s21.575-2.488,46.99-3.342c20.853-0.701,41.722,0.895,62.246,4.616l17.31,1.727c0,0-10.678-46.198-1.845-74.297L85.423,114.611
						z"/>
				</g>
				<g>
					<g>
						<g>
							<rect x="97.272" y="126.767" style="fill:#E0E0E0;" width="36.115" height="0.775"/>
						</g>
						<g>
							<rect x="114.941" y="127.523" style="fill:#E0E0E0;" width="0.775" height="52.33"/>
						</g>
						<g>
							<rect x="131.525" y="127.523" style="fill:#E0E0E0;" width="0.775" height="52.33"/>
						</g>
						<g>
							<rect x="100.201" y="127.523" style="fill:#E0E0E0;" width="0.775" height="52.33"/>
						</g>
						<g>
							<rect x="97.621" y="127.523" style="fill:#E0E0E0;" width="0.775" height="52.33"/>
						</g>
						<g>
							<rect x="98.009" y="130.283" style="fill:#E0E0E0;" width="33.536" height="0.775"/>
						</g>
					</g>
					<g>
						<g>
							<rect x="130.42" y="126.767" style="fill:#E0E0E0;" width="36.115" height="0.775"/>
						</g>
						<g>
							<rect x="148.089" y="127.523" style="fill:#E0E0E0;" width="0.775" height="52.33"/>
						</g>
						<g>
							<rect x="131.506" y="127.523" style="fill:#E0E0E0;" width="0.775" height="52.33"/>
						</g>
						<g>
							<rect x="162.83" y="127.523" style="fill:#E0E0E0;" width="0.775" height="52.33"/>
						</g>
						<g>
							<rect x="132.261" y="130.283" style="fill:#E0E0E0;" width="33.536" height="0.775"/>
						</g>
					</g>
					<g>
						<g>
							<rect x="161.752" y="126.767" style="fill:#E0E0E0;" width="33.186" height="0.775"/>
						</g>
						<g>
							<rect x="179.422" y="127.523" style="fill:#E0E0E0;" width="0.775" height="52.33"/>
						</g>
						<g>
							<rect x="162.838" y="127.523" style="fill:#E0E0E0;" width="0.775" height="52.33"/>
						</g>
						<g>
							<rect x="194.163" y="127.523" style="fill:#E0E0E0;" width="0.775" height="52.33"/>
						</g>
						<g>
							<rect x="163.594" y="130.283" style="fill:#E0E0E0;" width="30.957" height="0.775"/>
						</g>
					</g>
				</g>
				<polygon style="fill:#EBEBEB;" points="212.383,122.322 78.786,121.886 78.786,110.737 211.874,108.619 				"/>
				<g>
					<path style="fill:#F5F5F5;" d="M108.251,110.525l-0.72-0.643l37.428-16.461c0.624-0.698,1.521-1.104,2.461-1.114
						c0.976,0.005,1.845,0.378,2.484,1.062l37.59,14.92l-0.706,0.658l-37.59-14.92c-0.454-0.487-1.109-0.759-1.767-0.755
						c-0.67,0.007-1.308,0.296-1.751,0.791L108.251,110.525z"/>
				</g>
			</g>
			<path style="fill:#E0E0E0;" d="M148.695,93.959c0,0.645-0.528,1.168-1.179,1.168c-0.652,0-1.18-0.523-1.18-1.168
				c0-0.645,0.528-1.168,1.18-1.168C148.167,92.79,148.695,93.313,148.695,93.959z"/>
		</g>
	</g>
</g>
<g id="Background_Simple" style="display:none;">
	<g style="display:inline;">
		<g>
			<path style="fill:#407BFF;" d="M120.321,152.346c-28.166,12.72-44.934,41.637-50.8,70.363
				c-4.56,22.331-2.641,46.311,8.712,66.416c18.759,33.22,59.21,50.336,98.273,59.129c45.815,10.313,94.638,12.322,139.689-0.602
				c45.051-12.925,85.899-41.977,105.419-82.078c10.405-21.374,14.513-45.959,8.078-68.659c-6.436-22.7-24.308-43.027-48.142-50.441
				c-29.943-9.315-63.9,3.033-86.097,24.005c-11.017,10.409-22.541,23.972-38.162,22.897c-9.715-0.669-17.722-7.078-24.964-13.169
				C223.921,173.136,177.205,126.656,120.321,152.346z"/>
		</g>
		<g style="opacity:0.9;">
			<path style="fill:#FFFFFF;" d="M120.321,152.346c-28.166,12.72-44.934,41.637-50.8,70.363
				c-4.56,22.331-2.641,46.311,8.712,66.416c18.759,33.22,59.21,50.336,98.273,59.129c45.815,10.313,94.638,12.322,139.689-0.602
				c45.051-12.925,85.899-41.977,105.419-82.078c10.405-21.374,14.513-45.959,8.078-68.659c-6.436-22.7-24.308-43.027-48.142-50.441
				c-29.943-9.315-63.9,3.033-86.097,24.005c-11.017,10.409-22.541,23.972-38.162,22.897c-9.715-0.669-17.722-7.078-24.964-13.169
				C223.921,173.136,177.205,126.656,120.321,152.346z"/>
		</g>
	</g>
</g>
<g id="Shadow">
	<ellipse id="_x3C_Path_x3E__359_" style="fill:#F5F5F5;" cx="250" cy="415.693" rx="193.889" ry="11.323"/>
</g>
<g id="Plant">
	<g>
		<g>
			<g>
				<g>
					<path style="fill:#263238;" d="M393.612,393.578c-0.175-0.011-0.312-0.159-0.307-0.337c0.381-15.137,1.162-39.969,1.203-40.104
						c0.052-0.174,0.235-0.269,0.409-0.221c0.174,0.052,0.273,0.235,0.223,0.409c-0.01,0.033-0.798,24.951-1.176,39.934
						c-0.004,0.181-0.155,0.325-0.337,0.321C393.621,393.578,393.616,393.578,393.612,393.578z"/>
				</g>
				<g>
					<g>
						<path style="fill:#407BFF;" d="M391.577,343.03c0.127,1.166,1.523,5.208,2.689,5.081c1.166-0.127,1.66-4.374,1.533-5.54
							c-0.127-1.166-1.175-2.008-2.341-1.882C392.293,340.816,391.451,341.865,391.577,343.03z"/>
						<path style="fill:#407BFF;" d="M397.236,355.78c-0.127-1.166-1.523-5.208-2.689-5.081c-1.166,0.127-1.66,4.374-1.533,5.54
							c0.127,1.166,1.175,2.008,2.34,1.881C396.521,357.994,397.363,356.946,397.236,355.78z"/>
						<path style="fill:#407BFF;" d="M388.032,352.234c1.166-0.127,5.208-1.522,5.081-2.689c-0.127-1.166-4.374-1.66-5.54-1.533
							c-1.166,0.127-2.008,1.175-1.881,2.341C385.818,351.519,386.866,352.361,388.032,352.234z"/>
						<path style="fill:#407BFF;" d="M400.781,346.576c-1.166,0.127-5.208,1.523-5.081,2.688c0.127,1.166,4.374,1.66,5.54,1.534
							c1.166-0.127,2.008-1.175,1.881-2.341C402.995,347.292,401.947,346.449,400.781,346.576z"/>
						<path style="fill:#407BFF;" d="M387.898,346.898c0.914,0.735,4.759,2.606,5.494,1.692c0.735-0.914-1.919-4.267-2.833-5.002
							c-0.914-0.735-2.251-0.589-2.986,0.325C386.839,344.827,386.984,346.163,387.898,346.898z"/>
						<path style="fill:#407BFF;" d="M400.915,351.912c-0.914-0.735-4.759-2.606-5.494-1.691c-0.735,0.914,1.919,4.267,2.833,5.002
							c0.914,0.735,2.251,0.589,2.985-0.325C401.974,353.984,401.829,352.647,400.915,351.912z"/>
						<path style="fill:#407BFF;" d="M391.9,355.914c0.735-0.914,2.606-4.759,1.691-5.494c-0.914-0.735-4.267,1.919-5.002,2.833
							c-0.735,0.914-0.589,2.251,0.325,2.986C389.828,356.973,391.165,356.828,391.9,355.914z"/>
						<path style="fill:#407BFF;" d="M396.914,342.897c-0.735,0.914-2.606,4.759-1.691,5.494c0.914,0.735,4.267-1.919,5.002-2.833
							c0.735-0.914,0.589-2.251-0.325-2.985C398.985,341.837,397.648,341.983,396.914,342.897z"/>
					</g>
					<path style="opacity:0.9;fill:#FFFFFF;" d="M391.907,349.677c0.15,1.381,1.391,2.378,2.772,2.228
						c1.381-0.15,2.378-1.391,2.228-2.772c-0.15-1.381-1.392-2.378-2.772-2.228C392.754,347.055,391.757,348.296,391.907,349.677z"
						/>
				</g>
			</g>
			<g>
				<path style="fill:#407BFF;" d="M392.154,382.487c-2.902,0.064-7.867-2.617-9.82-5.233c-1.982-2.655,3.577-1.021,3.001-3.108
					c-0.577-2.088-7.421-0.523-8.694-3.512c-1.273-2.989,3.671-2.315,3.47-3.844c-0.201-1.529-5.319-1.203-6.971-4.379
					c-1.653-3.176,2.855-1.407,2.145-2.724c-0.711-1.316-6.371-6.849-4.012-8.012c2.358-1.164,7.666,4.6,9.441,5.24
					c1.774,0.64,2.177-3.353,4.489-1.451c2.312,1.903,0.61,10.252,3.329,11.346c2.025,0.814,1.153-3.004,3.484-2.047
					C396.096,366.438,393.332,382.461,392.154,382.487z"/>
				<g style="opacity:0.2;">
					<path style="fill:#FFFFFF;" d="M392.154,382.487c-2.902,0.064-7.867-2.617-9.82-5.233c-1.982-2.655,3.577-1.021,3.001-3.108
						c-0.577-2.088-7.421-0.523-8.694-3.512c-1.273-2.989,3.671-2.315,3.47-3.844c-0.201-1.529-5.319-1.203-6.971-4.379
						c-1.653-3.176,2.855-1.407,2.145-2.724c-0.711-1.316-6.371-6.849-4.012-8.012c2.358-1.164,7.666,4.6,9.441,5.24
						c1.774,0.64,2.177-3.353,4.489-1.451c2.312,1.903,0.61,10.252,3.329,11.346c2.025,0.814,1.153-3.004,3.484-2.047
						C396.096,366.438,393.332,382.461,392.154,382.487z"/>
				</g>
			</g>
			<g>
				<g>
					<path style="fill:#407BFF;" d="M396.324,378.804c0.049,0.081-0.385,0.493,1.047,0.552c3.528,0.145,9.768-0.093,12.11-3.301
						c3.345-4.58-4.37-4.16-3.62-6.686c0.75-2.526,9.039-0.463,10.656-4.069c1.618-3.606-4.411-2.902-4.131-4.757
						c0.28-1.855,6.604,0.549,8.689-3.276c2.085-3.825-3.44-1.779-2.545-3.363c0.895-1.584,7.909-8.182,5.068-9.652
						c-2.841-1.47-9.433,5.416-11.606,6.153c-2.173,0.737-2.676-6.018-5.533-3.757c-2.857,2.26-0.982,12.457-4.314,13.723
						c-2.482,0.943-1.128-2.711-4.191-2.571C393.794,357.991,392.426,372.287,396.324,378.804z"/>
				</g>
				<g style="opacity:0.3;">
					<path style="fill:#FFFFFF;" d="M396.324,378.804c0.049,0.081-0.385,0.493,1.047,0.552c3.528,0.145,9.768-0.093,12.11-3.301
						c3.345-4.58-4.37-4.16-3.62-6.686c0.75-2.526,9.039-0.463,10.656-4.069c1.618-3.606-4.411-2.902-4.131-4.757
						c0.28-1.855,6.604,0.549,8.689-3.276c2.085-3.825-3.44-1.779-2.545-3.363c0.895-1.584,7.909-8.182,5.068-9.652
						c-2.841-1.47-9.433,5.416-11.606,6.153c-2.173,0.737-2.676-6.018-5.533-3.757c-2.857,2.26-0.982,12.457-4.314,13.723
						c-2.482,0.943-1.128-2.711-4.191-2.571C393.794,357.991,392.426,372.287,396.324,378.804z"/>
				</g>
			</g>
			<g>
				<g>
					<g>
						<g>
							<g>
								<g>
									<g>
										<g>
											<g>
												<path style="fill:#263238;" d="M393.68,391.291c-0.006,0-0.012-0.001-0.019-0.002c-0.126-0.015-0.215-0.13-0.2-0.255
													c2.896-23.701,16.548-33.334,16.686-33.428c0.105-0.071,0.247-0.045,0.319,0.059c0.072,0.104,0.046,0.247-0.059,0.319
													c-0.136,0.094-13.62,9.623-16.49,33.106C393.902,391.209,393.798,391.296,393.68,391.291z"/>
											</g>
											<g>
												<path style="fill:#263238;" d="M407.04,360.898c-0.093-0.004-0.179-0.065-0.209-0.158
													c-0.039-0.121,0.027-0.25,0.147-0.289c0.085-0.028,2.118-0.671,5.449,0.036c0.124,0.026,0.203,0.148,0.177,0.272
													c-0.026,0.124-0.148,0.204-0.272,0.177c-3.201-0.679-5.192-0.055-5.212-0.049
													C407.094,360.896,407.067,360.899,407.04,360.898z"/>
											</g>
											<g>
												<path style="fill:#263238;" d="M404.517,363.777c-0.121-0.005-0.219-0.104-0.22-0.227
													c-0.071-7.168,4.079-12.768,4.121-12.824c0.076-0.101,0.22-0.121,0.321-0.045c0.101,0.076,0.122,0.22,0.046,0.321
													c-0.041,0.055-4.098,5.536-4.029,12.543c0.001,0.127-0.1,0.23-0.227,0.232
													C404.525,363.777,404.521,363.777,404.517,363.777z"/>
											</g>
											<g>
												<path style="fill:#263238;" d="M400.451,369.844c-0.058-0.002-0.115-0.026-0.157-0.072
													c-0.087-0.092-0.083-0.237,0.009-0.324c0.031-0.029,3.103-2.869,7.125-1.427c0.119,0.043,0.181,0.174,0.138,0.294
													c-0.043,0.119-0.174,0.182-0.293,0.139c-3.761-1.349-6.627,1.302-6.655,1.329
													C400.571,369.825,400.51,369.846,400.451,369.844z"/>
											</g>
											<g>
												<path style="fill:#263238;" d="M398.326,374.076c-0.086-0.004-0.166-0.055-0.202-0.139
													c-0.064-0.151-1.569-3.754-0.74-8.889c0.02-0.125,0.134-0.212,0.263-0.19c0.125,0.02,0.21,0.138,0.19,0.263
													c-0.807,4.996,0.693,8.6,0.709,8.635c0.05,0.116-0.005,0.251-0.121,0.301
													C398.392,374.071,398.359,374.077,398.326,374.076z"/>
											</g>
										</g>
									</g>
								</g>
							</g>
						</g>
					</g>
					<g>
						<g>
							<g>
								<path style="fill:#263238;" d="M393.772,399.757c-0.119-0.005-0.216-0.101-0.22-0.222l-0.298-6.277
									c-0.878-20.872-15.195-35.069-15.34-35.209c-0.091-0.089-0.093-0.234-0.004-0.324c0.089-0.091,0.234-0.092,0.324-0.004
									c0.146,0.142,14.592,14.46,15.478,35.521l0.298,6.28c0.004,0.127-0.095,0.232-0.222,0.237
									C393.783,399.757,393.778,399.757,393.772,399.757z"/>
							</g>
							<g>
								<path style="fill:#263238;" d="M383.82,365.888c-0.013,0-0.025-0.002-0.038-0.005c-0.02-0.004-0.045-0.014-0.067-0.025
									l-0.074-0.03c-1.874-0.779-3.969-1.183-5.896-1.14c-0.129,0.006-0.232-0.098-0.234-0.224
									c-0.003-0.127,0.098-0.232,0.224-0.234c1.99-0.043,4.15,0.373,6.082,1.175l0.076,0.031c0.014,0.005,0.027,0.011,0.039,0.019
									c0.09,0.046,0.142,0.148,0.121,0.252C384.03,365.818,383.93,365.893,383.82,365.888z"/>
							</g>
							<g>
								<path style="fill:#263238;" d="M385.845,368.577c-0.004,0-0.008,0-0.011-0.001c-0.126-0.011-0.219-0.123-0.208-0.249
									c0.555-6.161-2.636-11.229-2.668-11.28c-0.068-0.107-0.037-0.249,0.069-0.317c0.108-0.068,0.249-0.037,0.317,0.07
									c0.033,0.052,3.308,5.247,2.739,11.568C386.071,368.49,385.966,368.582,385.845,368.577z"/>
							</g>
							<g>
								<path style="fill:#263238;" d="M387.934,372.146c-0.056-0.002-0.111-0.025-0.154-0.068
									c-0.023-0.024-2.348-2.318-5.751-1.412c-0.123,0.034-0.248-0.041-0.281-0.163c-0.033-0.122,0.04-0.248,0.163-0.281
									c3.668-0.979,6.094,1.43,6.195,1.533c0.089,0.09,0.088,0.235-0.002,0.324C388.057,372.126,387.995,372.148,387.934,372.146z
									"/>
							</g>
							<g>
								<path style="fill:#263238;" d="M390.586,378.027c-0.033-0.001-0.066-0.01-0.097-0.026c-0.112-0.059-0.156-0.198-0.097-0.31
									c0.016-0.031,1.592-3.111,1.232-7.553c-0.01-0.126,0.084-0.237,0.21-0.247c0.127-0.015,0.237,0.084,0.247,0.21
									c0.371,4.582-1.215,7.673-1.283,7.803C390.756,377.986,390.671,378.03,390.586,378.027z"/>
							</g>
						</g>
					</g>
				</g>
			</g>
		</g>
		<g>
			<g>
				<path style="fill:#263238;" d="M406.681,400.745c0,7.321-3.293,13.259-13.265,13.259c-9.517,0-13.264-5.937-13.264-13.259
					c0-2.761,0.848-5.33,2.292-7.453h21.945C405.832,395.415,406.681,397.984,406.681,400.745z"/>
			</g>
		</g>
	</g>
</g>
<g id="Character">
	<g>
		<g>
			<path style="fill:#263238;" d="M271.108,326.793h5.997l10.143,84.365c0.264,1.791-1.124,2.499-2.935,2.499l0,0
				c-1.472,0-2.721-0.179-2.935-1.635L271.108,326.793z"/>
			<path style="opacity:0.2;fill:#FFFFFF;" d="M271.108,326.793h5.997l10.143,84.365c0.264,1.791-1.124,2.499-2.935,2.499l0,0
				c-1.472,0-2.721-0.179-2.935-1.635L271.108,326.793z"/>
			<path style="fill:#263238;" d="M252.11,326.793h5.997l5.01,84.553c0.128,1.733-1.244,2.31-2.982,2.31l0,0
				c-1.566,0-2.867-0.309-2.982-1.871L252.11,326.793z"/>
			<path style="opacity:0.2;fill:#FFFFFF;" d="M252.11,326.793h5.997l5.01,84.553c0.128,1.733-1.244,2.31-2.982,2.31l0,0
				c-1.566,0-2.867-0.309-2.982-1.871L252.11,326.793z"/>
			<path style="fill:#263238;" d="M237.889,326.793h-5.997l-5.313,84.553c-0.128,1.733,1.244,2.31,2.982,2.31l0,0
				c1.566,0,2.867-0.309,2.982-1.871L237.889,326.793z"/>
			<path style="opacity:0.2;fill:#FFFFFF;" d="M237.889,326.793h-5.997l-5.313,84.553c-0.128,1.733,1.244,2.31,2.982,2.31l0,0
				c1.566,0,2.867-0.309,2.982-1.871L237.889,326.793z"/>
			<path style="fill:#263238;" d="M218.891,326.793h-5.997l-10.446,84.365c-0.264,1.791,1.124,2.499,2.935,2.499l0,0
				c1.471,0,2.721-0.179,2.935-1.635L218.891,326.793z"/>
			<path style="opacity:0.2;fill:#FFFFFF;" d="M218.891,326.793h-5.997l-10.446,84.365c-0.264,1.791,1.124,2.499,2.935,2.499l0,0
				c1.471,0,2.721-0.179,2.935-1.635L218.891,326.793z"/>
			<path style="fill:#263238;" d="M261.062,246.117l-24.994,76.234h54.672l9.446-80.323h-33.479
				C264.138,242.027,261.862,243.677,261.062,246.117z"/>
			<path style="opacity:0.2;fill:#FFFFFF;" d="M261.062,246.117l-24.994,76.234h54.672l9.446-80.323h-33.479
				C264.138,242.027,261.862,243.677,261.062,246.117z"/>
			<g>
				<path style="fill:#263238;" d="M252.507,316.244h-54.146c-2.501,0-4.528,2.027-4.528,4.528v3.158c0,2.5,2.027,4.528,4.528,4.528
					h54.146V316.244z"/>
				<path style="opacity:0.1;fill:#FFFFFF;" d="M252.507,316.244h-54.146c-2.501,0-4.528,2.027-4.528,4.528v3.158
					c0,2.5,2.027,4.528,4.528,4.528h54.146V316.244z"/>
			</g>
			<g>
				<path style="fill:#263238;" d="M295.623,246.489l-7.052,61.24c-0.559,4.853-4.667,8.515-9.552,8.515h-37.728
					c-2.501,0-4.528,2.027-4.528,4.528v3.158c0,2.501,2.027,4.528,4.528,4.528h45.684c4.944,0,9.082-3.749,9.568-8.669l7.689-77.76
					h-3.605C298.069,242.027,295.916,243.946,295.623,246.489z"/>
				<path style="opacity:0.2;fill:#FFFFFF;" d="M295.623,246.489l-7.052,61.24c-0.559,4.853-4.667,8.515-9.552,8.515h-37.728
					c-2.501,0-4.528,2.027-4.528,4.528v3.158c0,2.501,2.027,4.528,4.528,4.528h45.684c4.944,0,9.082-3.749,9.568-8.669l7.689-77.76
					h-3.605C298.069,242.027,295.916,243.946,295.623,246.489z"/>
			</g>
		</g>
		<g>
			<g>
				<g>
					<polygon style="fill:#FF8B7B;" points="197.397,384.18 199.424,400.4 190.372,401.746 186.995,386.45 					"/>
					<g>
						<path style="fill:#263238;" d="M189.741,401.621l10.315-1.39c0.389-0.053,0.762,0.171,0.898,0.539l2.996,8.141
							c0.271,0.72-0.093,1.524-0.813,1.794c-0.092,0.035-0.188,0.06-0.286,0.074c-3.727,0.437-7.061,0.678-11.69,1.309
							c-5.463,0.738-3.989,1.205-10.399,2.162c-3.863,0.573-5.164-3.73-3.553-4.168c7.383-1.957,7.857-4.33,10.392-7.409
							C188.161,402.072,188.923,401.697,189.741,401.621z"/>
					</g>
					<path style="fill:#407BFF;" d="M185.099,404.132c-1.175,0.159-2.418,0.107-2.875-0.345c-0.241-0.268-0.287-0.659-0.114-0.976
						c0.123-0.281,0.35-0.503,0.634-0.619c1.519-0.647,5.07,0.792,5.226,0.856c0.088,0.036,0.144,0.123,0.14,0.219
						c-0.006,0.094-0.067,0.176-0.156,0.208C187.023,403.776,186.068,403.996,185.099,404.132z M183.349,402.496
						c-0.145,0.017-0.287,0.055-0.421,0.113c-0.182,0.057-0.329,0.194-0.397,0.372c-0.129,0.301-0.052,0.428,0.022,0.495
						c0.521,0.556,2.907,0.25,4.636-0.205C185.969,402.773,184.666,402.51,183.349,402.496z"/>
					<path style="fill:#407BFF;" d="M187.919,403.475c-0.03,0.013-0.064,0.015-0.094,0.004c-1.197-0.349-3.744-2.092-3.686-3.182
						c-0.011-0.26,0.139-0.597,0.747-0.742c0.443-0.108,0.912-0.031,1.298,0.214c1.337,0.827,1.933,3.342,1.961,3.459
						c0.017,0.08-0.011,0.163-0.073,0.216C188.026,403.474,187.971,403.485,187.919,403.475z M185.092,399.96l-0.13,0.006
						c-0.398,0.088-0.403,0.254-0.412,0.314c0.029,0.649,1.734,2.051,2.998,2.586c-0.256-1.056-0.831-2.009-1.646-2.728
						C185.663,399.982,185.375,399.919,185.092,399.96L185.092,399.96z"/>
					<polygon style="opacity:0.2;fill:#263238;" points="187.443,388.44 189.127,396.069 198.705,394.657 197.645,386.172 
						197.845,386.17 					"/>
				</g>
				<g>
					<path style="fill:#407BFF;" d="M235.885,282.89c0,0-51.513,7.507-58.424,24.399c-6.91,16.892,8.701,84.054,8.701,84.054
						l14.093-1.152c0,0-0.747-42.86-3.599-71.769l39.228-1.92l36.017-36.684L235.885,282.89z"/>
					<path style="opacity:0.5;" d="M235.885,282.89c0,0-51.513,7.507-58.424,24.399c-6.91,16.892,8.701,84.054,8.701,84.054
						l14.093-1.152c0,0-0.747-42.86-3.599-71.769l39.228-1.92l36.017-36.684L235.885,282.89z"/>
				</g>
				<polygon style="fill:#407BFF;" points="185.012,389.688 200.953,387.936 200.953,392.315 185.888,393.629 				"/>
			</g>
			<g>
				<g>
					<polygon style="fill:#FF8B7B;" points="232.822,386.578 233.695,402.9 224.571,403.602 222.286,388.106 					"/>
					<g>
						<path style="fill:#263238;" d="M224.405,402.663l10.388-0.656c0.391-0.025,0.748,0.225,0.858,0.602l2.412,8.332
							c0.219,0.737-0.201,1.513-0.938,1.732c-0.095,0.028-0.192,0.046-0.29,0.054c-3.749,0.172-7.091,0.177-11.753,0.478
							c-5.501,0.349-4.064,0.919-10.526,1.42c-3.894,0.298-4.887-4.087-3.248-4.409c7.503-1.43,8.144-3.763,10.89-6.655
							C222.798,403.001,223.584,402.681,224.405,402.663z"/>
					</g>
					<g>
						<path style="fill:#407BFF;" d="M219.663,404.85c-1.183,0.075-2.42-0.065-2.844-0.548c-0.222-0.285-0.24-0.678-0.045-0.981
							c0.143-0.271,0.385-0.477,0.677-0.572c1.561-0.537,5.001,1.149,5.152,1.224c0.085,0.042,0.135,0.133,0.124,0.228
							c-0.013,0.093-0.08,0.171-0.171,0.196C221.608,404.632,220.639,404.784,219.663,404.85z M218.033,403.094
							c-0.146,0.007-0.29,0.035-0.428,0.083c-0.186,0.044-0.341,0.17-0.423,0.343c-0.15,0.291-0.082,0.423-0.013,0.496
							c0.48,0.592,2.882,0.455,4.639,0.124C220.627,403.556,219.346,403.202,218.033,403.094z"/>
						<path style="fill:#407BFF;" d="M222.522,404.395c-0.031,0.011-0.064,0.01-0.095-0.003c-1.169-0.433-3.587-2.352-3.452-3.434
							c0.007-0.26,0.181-0.586,0.798-0.687c0.45-0.077,0.912,0.034,1.279,0.306c1.275,0.92,1.691,3.471,1.711,3.589
							c0.011,0.081-0.023,0.161-0.088,0.21C222.629,404.401,222.574,404.408,222.522,404.395z M219.951,400.689l-0.13-0.003
							c-0.403,0.06-0.42,0.225-0.433,0.284c-0.017,0.649,1.584,2.168,2.808,2.791c-0.181-1.072-0.687-2.062-1.448-2.838
							C220.52,400.751,220.236,400.668,219.951,400.689L219.951,400.689z"/>
					</g>
					<polygon style="opacity:0.2;fill:#263238;" points="233.307,395.643 232.822,386.58 232.822,386.578 222.286,388.106 
						223.495,396.304 					"/>
				</g>
				<g>
					<path style="fill:#407BFF;" d="M285.339,282.122c0,0,10.749,34.935-10.749,35.703c-21.499,0.768-49.907,0-49.907,0
						s10.016,27.548,10.052,71.79l-13.507,1.152c0,0-22.712-74.828-17.276-84.843c7.294-13.436,57.969-23.802,57.969-23.802H285.339
						z"/>
					<path style="opacity:0.4;" d="M285.339,282.122c0,0,10.749,34.935-10.749,35.703c-21.499,0.768-49.907,0-49.907,0
						s10.016,27.548,10.052,71.79l-13.507,1.152c0,0-22.712-74.828-17.276-84.843c7.294-13.436,57.969-23.802,57.969-23.802H285.339
						z"/>
				</g>
				<polygon style="fill:#407BFF;" points="219.654,388.947 220.737,393.257 235.822,391.992 235.822,387.837 				"/>
			</g>
		</g>
		<g>
			<g>
				<g>
					<g id="_x3C_Group_x3E__2_">
						<g>
							<path style="fill:#FF8B7B;" d="M249.768,217.93c0.083,3.328-0.027,6.438-0.158,9.652c-0.131,3.214-0.38,6.377-0.697,9.578
								c-0.602,6.533-1.779,12.999-3.516,19.325l-0.803,2.456l-0.201,0.612l-0.047,0.158l-0.081,0.232l-0.248,0.657
								c-0.318,0.765-0.727,1.489-1.219,2.156c-0.784,1.075-1.736,2.017-2.819,2.79c-0.877,0.639-1.81,1.199-2.786,1.672
								c-3.243,1.512-20.978,3.385-27.472,3.001l-0.4-4.341c0,0,12.553-4.275,15.296-5.176c2.536-0.757,4.973-1.813,7.258-3.147
								c0.617-0.33,1.14-0.809,1.522-1.395c-0.014-0.152-0.251,0.514,0.034-0.535l0.494-2.019
								c1.138-5.759,1.881-11.589,2.221-17.449c0.223-2.987,0.363-5.997,0.501-9.018c0.139-3.021,0.181-6.083,0.22-8.962
								L249.768,217.93z"/>
							<path style="fill:#FF8B7B;" d="M209.568,265.816l-7.939-4.013l0.385,8.84c0,0,7.388,2.455,8.485-0.846L209.568,265.816z"/>
							<path style="fill:#FF8B7B;" d="M197.317,268.164l0.386,2.457c0.1,1.003,1.105,1.65,2.315,1.491l1.996-1.47l-0.385-8.84
								l-3.312,2.877C196.802,266.069,197.223,267.228,197.317,268.164z"/>
						</g>
						<path style="fill:#407BFF;" d="M254.624,211.204c1.529,7.978-4.689,26.789-4.689,26.789l-20.267-2.551
							c3.114-7.123,4.226-17.404,8.142-24.12C241.459,205.294,252.954,202.52,254.624,211.204z"/>
						<path style="opacity:0.1;" d="M254.624,211.204c1.529,7.978-4.689,26.789-4.689,26.789l-20.267-2.551
							c3.114-7.123,4.226-17.404,8.142-24.12C241.459,205.294,252.954,202.52,254.624,211.204z"/>
						<path style="fill:#407BFF;" d="M283.541,205.461c2.656,0.347,4.529,2.782,4.182,5.438c-0.006,0.044-0.012,0.089-0.019,0.133
							c-1.152,7.787-1.842,15.635-2.067,23.503c-0.214,6.629-0.13,12.934,0.085,18.634c0.482,13.36-0.081,26.298-0.168,29.775
							l-43.908-0.65c-2.88-42.635-4.259-60.192-2.069-69.771c0.685-3.044,3.06-5.422,6.102-6.113
							c1.716-0.379,3.766-0.788,5.947-1.116c0.761-0.068,1.536-0.209,2.316-0.3c6.43-0.514,12.883-0.659,19.329-0.434
							c1.22,0.034,2.455,0.107,3.659,0.184C279.331,204.949,281.636,205.213,283.541,205.461z"/>
						<path style="fill:#FF8B7B;" d="M270.938,182.885c-1.098,6.237-2.091,17.642,2.335,21.706
							c-9.833,7.982-15.624,18.487-17.745,16.508c-1.116-1.036-2.715-14.081-1.569-16.127c6.899-1.795,6.623-6.927,5.322-11.732
							L270.938,182.885z"/>
						<path style="fill:#407BFF;" d="M272.917,208.863l-15.65,15.92c0,0-3.61-4.75-4.75-12.02c-0.85-5.36,0.67-6.52,1.53-6.77
							c-0.7-0.56-1.14-1.41-1.14-2.38c0-0.85,0.34-1.62,0.9-2.17c0.56-0.56,1.32-0.9,2.17-0.9h15.89c1.69,0,3.07,1.37,3.07,3.07
							c0,0.43-0.09,0.83-0.24,1.2C276.047,205.933,272.917,208.863,272.917,208.863z"/>
						<path style="opacity:0.2;enable-background:new    ;" d="M266.201,187.106l-6.9,6.123c0.324,1.117,0.546,2.262,0.665,3.419
							c2.642-0.431,6.222-3.412,6.443-6.195C266.544,189.334,266.473,188.199,266.201,187.106z"/>
						<path style="fill:#263238;" d="M247.676,167.188c-4.115,0.543-5.751,7.862-1.04,13.394
							C251.348,186.115,253.208,166.457,247.676,167.188z"/>
						<path style="fill:#FF8B7B;" d="M268.588,171.626c1.239,8.34,2.387,13.159-0.87,18.259c-4.908,7.684-15.876,6.079-19.594-1.722
							c-3.331-7.027-4.816-19.489,2.564-24.468c5.242-3.59,12.403-2.251,15.993,2.991
							C267.693,168.163,268.345,169.854,268.588,171.626z"/>
						<path style="fill:#263238;" d="M260.779,172.877c0.621,1.636,2.08,3.083,3.83,3.136c0.947,1.75,1.173,3.876,0.617,5.786
							c1.025,0.132,2.049,0.264,3.073,0.396c-0.134-2.469,2.014-4.83,4.485-4.93c-0.838,3.347-1.826,6.656-2.961,9.915
							c3.318-2.774,5.91-6.409,7.449-10.451c0.745-1.957,1.251-4.044,1.108-6.133c-0.143-2.089-0.994-4.187-2.596-5.535
							c-2.089-1.758-5.136-1.99-7.77-1.271C263.335,165.067,258.731,167.483,260.779,172.877z"/>
						<path style="fill:#263238;" d="M256.064,178.113c0.142,0.673-0.098,1.298-0.54,1.389c-0.442,0.091-0.904-0.379-1.056-1.051
							c-0.152-0.672,0.099-1.288,0.541-1.379C255.451,176.981,255.923,177.451,256.064,178.113z"/>
						<path style="fill:#263238;" d="M254.363,188.158c0.142,0.673-0.098,1.298-0.54,1.389c-0.442,0.091-0.904-0.379-1.056-1.051
							c-0.152-0.672,0.099-1.288,0.541-1.379C253.751,187.026,254.222,187.495,254.363,188.158z"/>
						<path style="fill:#263238;" d="M248.104,179.922c0.142,0.673-0.099,1.288-0.54,1.389c-0.441,0.101-0.904-0.379-1.046-1.052
							c-0.142-0.673,0.099-1.288,0.531-1.378C247.481,178.791,247.942,179.251,248.104,179.922z"/>
						<path style="fill:#263238;" d="M257.823,174.345c-0.139,0.059-0.3,0.034-0.415-0.065c-0.758-0.688-1.798-0.974-2.801-0.772
							c-0.21,0.081-0.446-0.023-0.527-0.233c-0.011-0.028-0.018-0.057-0.023-0.086c-0.065-0.204,0.047-0.422,0.25-0.487
							c0.011-0.003,0.022-0.006,0.033-0.009c1.264-0.284,2.586,0.067,3.543,0.941c0.171,0.138,0.197,0.388,0.059,0.559
							c-0.003,0.003-0.005,0.006-0.008,0.01C257.906,174.257,257.869,174.305,257.823,174.345z"/>
						<path style="fill:#263238;" d="M245.205,177.783c-0.076,0.038-0.163,0.045-0.244,0.022c-0.215-0.053-0.348-0.269-0.299-0.485
							c0.284-1.265,1.161-2.316,2.356-2.82c0.206-0.075,0.434,0.032,0.509,0.238c0.001,0.004,0.003,0.008,0.004,0.013
							c0.074,0.2-0.028,0.423-0.228,0.498c-0.004,0.002-0.009,0.003-0.013,0.005l0,0c-0.932,0.402-1.618,1.223-1.848,2.212
							C245.433,177.609,245.34,177.733,245.205,177.783z"/>
						<g>
							<path style="fill:#407BFF;" d="M210.191,238.767l10.394,33.517c0,0,10.285-3.239,14.784-0.424
								c4.452,2.785,7.743,6.131,7.743,6.131l-7.183-36.478C235.93,241.513,226.378,230.237,210.191,238.767z"/>
							<g>
								<path style="fill:#407BFF;" d="M235.93,241.513l7.183,36.478c0,0,11.157-12.073,21.384-7.014l3.471,1.794l-4.196-36.463
									C263.772,236.308,250.484,229.533,235.93,241.513z"/>
								<path style="opacity:0.8;fill:#FFFFFF;" d="M235.93,241.513l7.183,36.478c0,0,11.157-12.073,21.384-7.014l3.471,1.794
									l-4.196-36.463C263.772,236.308,250.484,229.533,235.93,241.513z"/>
							</g>
							<path style="opacity:0.8;fill:#FFFFFF;" d="M210.191,238.767l10.394,33.517c0,0,10.285-3.239,14.784-0.424
								c4.452,2.785,7.743,6.131,7.743,6.131l-7.183-36.478C235.93,241.513,226.378,230.237,210.191,238.767z"/>
						</g>
						<g>
							<path style="fill:#263238;" d="M243.093,277.625c-8.68-2.804-17.13-5.76-24.058,0.399c-2.579-9.911-6.39-19.353-9.288-29.168
								c-2.322-7.864-2.327-6.486,1.826-8.774c3.589-1.974,20.362-3.785,23.904,5.417
								C236.768,248.853,242.458,276.845,243.093,277.625z"/>
							<path style="fill:#263238;" d="M270.583,276.099c-5.131-4.488-13.199-4.247-18.538-0.005
								c-2.272,1.804-5.451,3.061-5.441,2.836l-0.016-0.048l-7.408-34.084c-0.103,0.08-0.205,0.151-0.298,0.223
								c1.519-5.147,9.403-7.644,14.387-7.799c4.758-0.156,10.495,2.392,12.398,3.959
								C265.668,241.18,269.467,266.212,270.583,276.099z"/>
							<g>
								<path style="fill:#263238;" d="M246.604,278.93c0,0-3.002,0.926-4.173-1.522l-7.31-32.781c0,0,1.228,2.15,3.76,0.395
									c0.093-0.071,0.196-0.142,0.298-0.223l7.408,34.084C246.596,278.91,246.604,278.93,246.604,278.93z"/>
								<path style="opacity:0.1;fill:#FFFFFF;" d="M246.604,278.93c0,0-3.002,0.926-4.173-1.522l-7.31-32.781
									c0,0,1.228,2.15,3.76,0.395c0.093-0.071,0.196-0.142,0.298-0.223l7.408,34.084
									C246.596,278.91,246.604,278.93,246.604,278.93z"/>
							</g>
						</g>
						<g>
							<g>
								<path style="opacity:0.1;" d="M281.317,209.959c-3.747-0.553-5.3,0.794-7.896,5.915c-2.398,4.729-3.714,18.354-3.714,18.354
									c-0.468,7.463-1.419,6.622,5.643,7.164c4.524,0.347,10.247,1.297,10.247,1.297S292.528,211.613,281.317,209.959z"/>
							</g>
							<path style="fill:#FF8B7B;" d="M291.76,217.023c0.084,3.328-0.026,6.438-0.158,9.652c-0.131,3.214-0.38,6.378-0.697,9.578
								c-0.602,6.532-1.779,12.999-3.516,19.325l-0.803,2.456l-0.201,0.611l-0.047,0.158l-0.082,0.232l-0.248,0.657
								c-0.318,0.765-0.727,1.489-1.219,2.155c-0.784,1.075-1.736,2.017-2.819,2.79c-0.877,0.639-1.81,1.199-2.786,1.672
								c-3.243,1.511-6.683,2.56-10.218,3.116c-6.419,1.059-12.936,1.399-19.43,1.016l-0.336-6.375l4.43-0.909
								c1.487-0.307,2.958-0.674,4.421-1.01c2.925-0.702,5.814-1.452,8.557-2.353c2.536-0.757,4.973-1.813,7.258-3.147
								c0.617-0.329,1.14-0.809,1.522-1.395c-0.014-0.152-0.251,0.514,0.034-0.535l0.494-2.019
								c1.138-5.759,1.881-11.589,2.221-17.449c0.223-2.987,0.363-5.998,0.501-9.018c0.138-3.02,0.181-6.083,0.22-8.962
								L291.76,217.023z"/>
							<path style="fill:#FF8B7B;" d="M251.88,264.409l-6.991-5.052l-2.115,10.646c0,0,6.907,2.982,8.887-0.5L251.88,264.409z"/>
							<path style="fill:#FF8B7B;" d="M237.408,262.189l-0.513,3.423c-0.242,1.618,0.791,3.154,2.381,3.539l3.508,0.85l2.105-10.645
								l-4.457,0.142C238.907,259.548,237.635,260.68,237.408,262.189z"/>
						</g>
						<g>
							<path style="fill:#407BFF;" d="M291.961,210.825c4.764,6.571,3.19,28.73,3.19,28.73l-22.085-2.113
								c0,0-2.298-12.399,0.982-22.372C277.611,204.254,286.192,202.85,291.961,210.825z"/>
						</g>
					</g>
				</g>
				<g>
					<g>
						<g>
							<path style="fill:#407BFF;" d="M247.462,183.38c-0.021,0-0.043,0-0.065,0c-2.298-0.036-4.138-1.935-4.102-4.233
								c0.017-1.113,0.467-2.153,1.267-2.928c0.8-0.775,1.848-1.177,2.966-1.175c2.298,0.036,4.138,1.935,4.103,4.233l0,0
								C251.595,181.553,249.731,183.38,247.462,183.38z M247.461,175.984c-0.843,0-1.638,0.322-2.245,0.911
								c-0.619,0.6-0.967,1.406-0.981,2.268c-0.028,1.78,1.397,3.251,3.177,3.278c0.016,0,0.033,0,0.05,0
								c1.757,0,3.201-1.415,3.228-3.177c0.028-1.779-1.398-3.251-3.177-3.278C247.496,175.985,247.479,175.984,247.461,175.984z"/>
						</g>
						<g>
							<path style="fill:#407BFF;" d="M257.074,181.097c-0.022,0-0.043,0-0.065,0c-2.298-0.036-4.138-1.935-4.102-4.233
								c0.017-1.113,0.467-2.153,1.266-2.928c0.799-0.775,1.846-1.183,2.966-1.175c2.298,0.036,4.138,1.935,4.103,4.233l0,0
								C261.206,179.27,259.343,181.097,257.074,181.097z M257.073,173.7c-0.842,0-1.638,0.322-2.245,0.91
								c-0.619,0.6-0.967,1.406-0.981,2.268c-0.028,1.78,1.397,3.251,3.177,3.278c1.786-0.004,3.251-1.399,3.278-3.177
								c0.028-1.78-1.398-3.251-3.177-3.278C257.108,173.701,257.09,173.7,257.073,173.7z"/>
						</g>
						<g>
							<path style="fill:#407BFF;" d="M251.267,177.729l-0.922-0.18c0.03-0.156,0.327-1.537,1.329-1.839
								c0.624-0.187,1.309,0.092,2.038,0.832l-0.669,0.659c-0.452-0.459-0.842-0.669-1.098-0.592
								C251.579,176.719,251.326,177.424,251.267,177.729z"/>
						</g>
					</g>
					<g>
						<polygon style="fill:#407BFF;" points="260.822,176.731 260.604,175.817 270.094,173.561 271.931,173.967 271.728,174.884 
							270.102,174.525 						"/>
					</g>
				</g>
				<path style="fill:#FF5652;" d="M251.691,178.009c-0.368,2.218-1.039,4.374-1.993,6.41c1.071,0.465,2.292,0.434,3.338-0.084
					L251.691,178.009z"/>
				<path style="fill:#FF8B7B;" d="M274.288,178.144c-0.167,2.114-1.169,4.074-2.786,5.447c-2.15,1.809-4.384,0.168-4.754-2.469
					c-0.336-2.374,0.388-6.174,3.008-6.961C272.377,173.374,274.475,175.549,274.288,178.144z"/>
			</g>
			<path style="fill:#263238;" d="M264.234,153.965c-11.328-4.857-21.339,4.137-23.314,7.438c-1.975,3.301-3.835,6.383-1.738,9.609
				c-0.829,0.219-1.187,1.211-1.827,1.783c-0.302,0.27-0.529,0.627-0.63,1.019c-0.357,1.391,1.809,2.301,2.348,2.921
				c0.512,0.589,0.592,1.513,0.191,2.182c-0.401,0.669-1.254,1.032-2.015,0.858c1.342,0.21,2.708-0.045,3.868-0.656
				c1.463-0.771,1.869-2.493,1.454-4.094c-0.03-0.114-0.029-0.236,0.012-0.36c0.133-0.4,0.532-0.638,0.901-0.841
				c0.784-0.432,4.196-1.151,7.625-1.815c3.213-0.622,6.164-2.247,8.327-4.703c2.926-3.321,11.49-3.26,14.862-3.176
				C274.082,164.008,273.558,157.963,264.234,153.965z"/>
		</g>
	</g>
</g>
<g id="Dictionaries">
	<g>
		<g>
			<g>
				<path style="opacity:0.9;fill:#FFFFFF;" d="M338.928,240.753h-52.983c-2.287,0-4.142,2.881-4.142,6.435
					c0,3.554,1.854,6.435,4.142,6.435h52.983V240.753z"/>
				<g>
					<path style="fill:#407BFF;" d="M338.928,240.753h-52.983c-2.287,0-4.142,2.881-4.142,6.435c0,3.554,1.854,6.435,4.142,6.435
						h52.983V240.753z"/>
					<g>
						<g>
							<path style="fill:#407BFF;" d="M338.928,254.657c-10.893,0-41.514,0.197-52.406,0c-7.461-0.135-7.862-14.436-0.544-14.938
								c5.101-0.35,10.349,0,15.46,0c5.927,0,31.563,0,37.49,0c1.331,0,1.333,2.068,0,2.068c-10.325,0-40.359,0-50.684,0
								c-2.39,0-4.099,0.027-5.023,2.846c-0.799,2.439-0.547,7.417,2.723,7.956c0.352,0.058,0.767,0,1.121,0
								c5.629,0,11.259,0,16.888,0c5.088,0,29.885,0,34.974,0C340.259,252.589,340.262,254.657,338.928,254.657L338.928,254.657z"/>
						</g>
					</g>
					<g style="opacity:0.2;">
						<g>
							<path style="fill:#FFFFFF;" d="M338.928,254.657c-10.893,0-41.514,0.197-52.406,0c-7.461-0.135-7.862-14.436-0.544-14.938
								c5.101-0.35,10.349,0,15.46,0c5.927,0,31.563,0,37.49,0c1.331,0,1.333,2.068,0,2.068c-10.325,0-40.359,0-50.684,0
								c-2.39,0-4.099,0.027-5.023,2.846c-0.799,2.439-0.547,7.417,2.723,7.956c0.352,0.058,0.767,0,1.121,0
								c5.629,0,11.259,0,16.888,0c5.088,0,29.885,0,34.974,0C340.259,252.589,340.262,254.657,338.928,254.657L338.928,254.657z"/>
						</g>
					</g>
				</g>
				<g>
					<path style="fill:#407BFF;" d="M360.057,240.753h-29.381c-2.288,0-4.142,2.881-4.142,6.435c0,3.554,1.854,6.435,4.142,6.435
						h29.381V240.753z"/>
					<path style="opacity:0.9;fill:#FFFFFF;" d="M360.057,240.753h-29.381c-2.288,0-4.142,2.881-4.142,6.435
						c0,3.554,1.854,6.435,4.142,6.435h29.381V240.753z"/>
					<g>
						<g>
							<path style="fill:#407BFF;" d="M360.057,254.657c-10.894,0-17.912,0.197-28.803,0c-7.461-0.135-7.862-14.436-0.544-14.938
								c5.101-0.35,10.349,0,15.46,0c5.927,0,7.961,0,13.888,0c1.331,0,1.333,2.068,0,2.068c-10.325,0-16.756,0-27.082,0
								c-2.39,0-4.099,0.027-5.022,2.846c-0.799,2.439-0.548,7.417,2.723,7.956c0.352,0.058,0.767,0,1.121,0
								c5.629,0,11.259,0,16.888,0c5.088,0,6.283,0,11.371,0C361.388,252.589,361.39,254.657,360.057,254.657L360.057,254.657z"/>
						</g>
					</g>
					<g style="opacity:0.2;">
						<g>
							<path style="fill:#FFFFFF;" d="M360.057,254.657c-10.894,0-17.912,0.197-28.803,0c-7.461-0.135-7.862-14.436-0.544-14.938
								c5.101-0.35,10.349,0,15.46,0c5.927,0,7.961,0,13.888,0c1.331,0,1.333,2.068,0,2.068c-10.325,0-16.756,0-27.082,0
								c-2.39,0-4.099,0.027-5.022,2.846c-0.799,2.439-0.548,7.417,2.723,7.956c0.352,0.058,0.767,0,1.121,0
								c5.629,0,11.259,0,16.888,0c5.088,0,6.283,0,11.371,0C361.388,252.589,361.39,254.657,360.057,254.657L360.057,254.657z"/>
						</g>
					</g>
				</g>
			</g>
			<g>
				<path style="opacity:0.9;fill:#FFFFFF;" d="M345.821,265.087H290.71c-2.379,0-4.308,2.997-4.308,6.694s1.929,6.693,4.308,6.693
					h55.111V265.087z"/>
				<g>
					<path style="fill:#263238;" d="M345.821,265.087H290.71c-2.379,0-4.308,2.997-4.308,6.694s1.929,6.693,4.308,6.693h55.111
						V265.087z"/>
					<g>
						<path style="fill:#FFFFFF;" d="M296.692,272.344c0,1.236-1.147,1.806-2.611,1.806h-3.131l1.139-5.693h2.879
							c1.285,0,1.976,0.48,1.976,1.334c0,0.684-0.398,1.163-1.017,1.424C296.415,271.425,296.692,271.815,296.692,272.344z
							 M295.09,272.311c0-0.342-0.277-0.48-0.667-0.48H293l-0.228,1.155h1.398C294.732,272.986,295.09,272.767,295.09,272.311z
							 M293.447,269.619l-0.22,1.099h1.155c0.569,0,0.879-0.229,0.879-0.651c0-0.309-0.252-0.447-0.675-0.447H293.447z"/>
						<path style="fill:#FFFFFF;" d="M301.297,273.043h-2.423l-0.659,1.106h-1.7l3.652-5.693h1.586l1.375,5.693h-1.602
							L301.297,273.043z M301.054,271.855l-0.382-1.846l-1.09,1.846H301.054z"/>
						<path style="fill:#FFFFFF;" d="M310.132,268.456l-1.139,5.693h-1.61l0.439-2.212h-2.188l-0.439,2.212h-1.61l1.138-5.693h1.61
							l-0.423,2.131h2.188l0.423-2.131H310.132z"/>
						<path style="fill:#FFFFFF;" d="M314.233,273.043h-2.423l-0.659,1.106h-1.7l3.652-5.693h1.586l1.375,5.693h-1.602
							L314.233,273.043z M313.99,271.855l-0.382-1.846l-1.09,1.846H313.99z"/>
						<path style="fill:#FFFFFF;" d="M316.269,273.653l0.634-1.204c0.578,0.366,1.245,0.562,1.895,0.562
							c0.618,0,0.976-0.195,0.976-0.504c0-0.765-2.765-0.342-2.765-2.131c0-1.229,1.049-2.033,2.732-2.033
							c0.805,0,1.537,0.171,2.05,0.487l-0.586,1.196c-0.447-0.285-1-0.432-1.562-0.432c-0.667,0-1.024,0.244-1.024,0.554
							c-0.008,0.78,2.765,0.333,2.765,2.09c0,1.22-1.074,2.025-2.741,2.025C317.668,274.264,316.782,274.003,316.269,273.653z"/>
						<path style="fill:#FFFFFF;" d="M325.877,273.043h-2.423l-0.659,1.106h-1.7l3.652-5.693h1.586l1.374,5.693h-1.602
							L325.877,273.043z M325.634,271.855l-0.382-1.846l-1.09,1.846H325.634z"/>
					</g>
					<g>
						<g>
							<path style="fill:#263238;" d="M345.821,277.398c1.384,0,1.387,2.152,0,2.152l0,0c-11.331,0-43.181,0.204-54.51,0
								c-7.761-0.14-8.178-15.016-0.566-15.538c5.306-0.364,10.764,0,16.08,0c6.165,0,32.831,0,38.996,0
								c1.384,0,1.387,2.151,0,2.151c-10.74,0-41.979,0-52.719,0c-2.486,0-4.264,0.028-5.224,2.96
								c-0.831,2.537-0.57,7.715,2.833,8.275c0.366,0.06,0.798,0,1.166,0c5.855,0,11.711,0,17.566,0H345.821z"/>
						</g>
					</g>
				</g>
				<g>
					<path style="fill:#407BFF;" d="M367.798,265.087h-30.56c-2.379,0-4.308,2.997-4.308,6.694s1.929,6.693,4.308,6.693h30.56
						V265.087z"/>
					<path style="opacity:0.9;fill:#FFFFFF;" d="M367.798,265.087h-30.56c-2.379,0-4.308,2.997-4.308,6.694s1.929,6.693,4.308,6.693
						h30.56V265.087z"/>
					<g>
						<g>
							<path style="fill:#407BFF;" d="M367.798,279.55c-11.331,0-18.631,0.204-29.96,0c-7.761-0.14-8.178-15.016-0.566-15.538
								c5.306-0.364,10.764,0,16.081,0c6.165,0,8.28,0,14.445,0c1.384,0,1.387,2.151,0,2.151c-10.74,0-17.429,0-28.169,0
								c-2.486,0-4.264,0.028-5.224,2.96c-0.831,2.537-0.57,7.715,2.833,8.275c0.366,0.06,0.798,0,1.166,0
								c5.855,0,11.711,0,17.566,0c5.293,0,6.535,0,11.828,0C369.182,277.398,369.185,279.55,367.798,279.55L367.798,279.55z"/>
						</g>
					</g>
					<g style="opacity:0.2;">
						<g>
							<path style="fill:#FFFFFF;" d="M367.798,279.55c-11.331,0-18.631,0.204-29.96,0c-7.761-0.14-8.178-15.016-0.566-15.538
								c5.306-0.364,10.764,0,16.081,0c6.165,0,8.28,0,14.445,0c1.384,0,1.387,2.151,0,2.151c-10.74,0-17.429,0-28.169,0
								c-2.486,0-4.264,0.028-5.224,2.96c-0.831,2.537-0.57,7.715,2.833,8.275c0.366,0.06,0.798,0,1.166,0
								c5.855,0,11.711,0,17.566,0c5.293,0,6.535,0,11.828,0C369.182,277.398,369.185,279.55,367.798,279.55L367.798,279.55z"/>
						</g>
					</g>
				</g>
			</g>
			<g>
				<path style="opacity:0.9;fill:#FFFFFF;" d="M334.466,254.624h-52.983c-2.288,0-4.142,1.941-4.142,4.335
					c0,2.394,1.854,4.335,4.142,4.335h52.983V254.624z"/>
				<g>
					<path style="fill:#407BFF;" d="M334.466,254.624h-52.983c-2.288,0-4.142,1.941-4.142,4.335c0,2.394,1.854,4.335,4.142,4.335
						h52.983V254.624z"/>
					<path style="opacity:0.2;" d="M334.466,254.624h-52.983c-2.288,0-4.142,1.941-4.142,4.335c0,2.394,1.854,4.335,4.142,4.335
						h52.983V254.624z"/>
					<path style="opacity:0.2;" d="M334.466,254.624h-52.983c-2.288,0-4.142,1.941-4.142,4.335c0,2.394,1.854,4.335,4.142,4.335
						h52.983V254.624z"/>
					<g>
						<path style="fill:#FFFFFF;" d="M284.521,256.713h1.815c1.307,0,2.203,0.788,2.203,1.998c0,1.21-0.896,1.997-2.203,1.997
							h-1.815V256.713z M286.29,259.949c0.793,0,1.313-0.474,1.313-1.238c0-0.765-0.519-1.238-1.313-1.238h-0.845v2.477H286.29z"/>
						<path style="fill:#FFFFFF;" d="M289.06,256.713c0-0.279,0.223-0.496,0.554-0.496c0.331,0,0.554,0.205,0.554,0.479
							c0,0.297-0.223,0.514-0.554,0.514C289.282,257.21,289.06,256.993,289.06,256.713z M289.168,257.638h0.891v3.07h-0.891V257.638
							z"/>
						<path style="fill:#FFFFFF;" d="M290.656,259.173c0-0.925,0.713-1.581,1.712-1.581c0.645,0,1.153,0.28,1.376,0.782
							l-0.691,0.371c-0.165-0.291-0.411-0.423-0.69-0.423c-0.451,0-0.805,0.314-0.805,0.851c0,0.536,0.353,0.85,0.805,0.85
							c0.279,0,0.525-0.126,0.69-0.423l0.691,0.377c-0.223,0.491-0.73,0.776-1.376,0.776
							C291.37,260.754,290.656,260.098,290.656,259.173z"/>
						<path style="fill:#FFFFFF;" d="M296.28,260.56c-0.183,0.131-0.451,0.194-0.725,0.194c-0.725,0-1.147-0.371-1.147-1.102v-1.262
							h-0.474v-0.685h0.474v-0.747h0.89v0.747h0.765v0.685h-0.765v1.25c0,0.263,0.143,0.405,0.382,0.405
							c0.131,0,0.263-0.04,0.359-0.114L296.28,260.56z"/>
						<path style="fill:#FFFFFF;" d="M296.671,256.713c0-0.279,0.223-0.496,0.554-0.496c0.331,0,0.554,0.205,0.554,0.479
							c0,0.297-0.223,0.514-0.554,0.514C296.894,257.21,296.671,256.993,296.671,256.713z M296.78,257.638h0.89v3.07h-0.89V257.638z
							"/>
						<path style="fill:#FFFFFF;" d="M298.268,259.173c0-0.925,0.713-1.581,1.689-1.581c0.976,0,1.684,0.656,1.684,1.581
							c0,0.925-0.707,1.581-1.684,1.581C298.981,260.754,298.268,260.098,298.268,259.173z M300.739,259.173
							c0-0.53-0.337-0.851-0.782-0.851c-0.445,0-0.787,0.32-0.787,0.851c0,0.53,0.342,0.85,0.787,0.85
							C300.402,260.023,300.739,259.703,300.739,259.173z"/>
						<path style="fill:#FFFFFF;" d="M305.37,258.95v1.758h-0.891v-1.621c0-0.496-0.228-0.725-0.622-0.725
							c-0.428,0-0.736,0.263-0.736,0.828v1.518h-0.89v-3.07h0.85v0.359c0.24-0.263,0.599-0.405,1.016-0.405
							C304.822,257.592,305.37,258.015,305.37,258.95z"/>
						<path style="fill:#FFFFFF;" d="M308.888,258.956v1.752h-0.833v-0.383c-0.165,0.28-0.485,0.429-0.935,0.429
							c-0.719,0-1.148-0.399-1.148-0.931c0-0.542,0.382-0.919,1.318-0.919h0.707c0-0.382-0.228-0.604-0.707-0.604
							c-0.325,0-0.662,0.108-0.884,0.285l-0.32-0.622c0.337-0.239,0.834-0.371,1.324-0.371
							C308.345,257.592,308.888,258.025,308.888,258.956z M307.997,259.738v-0.315h-0.61c-0.416,0-0.548,0.154-0.548,0.359
							c0,0.223,0.188,0.371,0.502,0.371C307.638,260.154,307.895,260.018,307.997,259.738z"/>
						<path style="fill:#FFFFFF;" d="M311.595,257.592v0.822c-0.074-0.006-0.131-0.012-0.2-0.012c-0.491,0-0.816,0.269-0.816,0.856
							v1.449h-0.89v-3.07h0.85v0.405C310.756,257.746,311.122,257.592,311.595,257.592z"/>
						<path style="fill:#FFFFFF;" d="M315.28,257.638l-1.387,3.259c-0.297,0.742-0.719,0.964-1.273,0.964
							c-0.314,0-0.656-0.103-0.856-0.279l0.325-0.634c0.137,0.12,0.325,0.194,0.502,0.194c0.245,0,0.382-0.108,0.502-0.382
							l0.012-0.029l-1.33-3.093h0.918l0.862,2.083l0.867-2.083H315.28z"/>
					</g>
					<g>
						<g>
							<path style="fill:#407BFF;" d="M334.466,263.991c-10.894,0-41.514,0.132-52.406,0c-7.461-0.091-7.862-9.725-0.544-10.064
								c5.101-0.236,10.349,0,15.46,0c5.927,0,31.563,0,37.49,0c1.331,0,1.333,1.393,0,1.393c-10.325,0-40.359,0-50.684,0
								c-2.39,0-4.099,0.018-5.022,1.917c-0.799,1.643-0.547,4.997,2.723,5.36c0.352,0.039,0.767,0,1.121,0
								c5.629,0,11.259,0,16.888,0c5.088,0,29.885,0,34.974,0C335.797,262.597,335.8,263.991,334.466,263.991L334.466,263.991z"/>
						</g>
					</g>
					<g style="opacity:0.2;">
						<g>
							<path style="fill:#FFFFFF;" d="M334.466,263.991c-10.894,0-41.514,0.132-52.406,0c-7.461-0.091-7.862-9.725-0.544-10.064
								c5.101-0.236,10.349,0,15.46,0c5.927,0,31.563,0,37.49,0c1.331,0,1.333,1.393,0,1.393c-10.325,0-40.359,0-50.684,0
								c-2.39,0-4.099,0.018-5.022,1.917c-0.799,1.643-0.547,4.997,2.723,5.36c0.352,0.039,0.767,0,1.121,0
								c5.629,0,11.259,0,16.888,0c5.088,0,29.885,0,34.974,0C335.797,262.597,335.8,263.991,334.466,263.991L334.466,263.991z"/>
						</g>
					</g>
				</g>
				<g>
					<path style="fill:#407BFF;" d="M355.595,254.624h-29.381c-2.288,0-4.142,1.941-4.142,4.335c0,2.394,1.854,4.335,4.142,4.335
						h29.381V254.624z"/>
					<path style="opacity:0.9;fill:#FFFFFF;" d="M355.595,254.624h-29.381c-2.288,0-4.142,1.941-4.142,4.335
						c0,2.394,1.854,4.335,4.142,4.335h29.381V254.624z"/>
					<g>
						<g>
							<path style="fill:#407BFF;" d="M355.595,263.991c-10.894,0-17.912,0.132-28.803,0c-7.461-0.091-7.862-9.725-0.544-10.064
								c5.101-0.236,10.349,0,15.46,0c5.927,0,7.961,0,13.888,0c1.331,0,1.333,1.393,0,1.393c-10.325,0-16.756,0-27.082,0
								c-2.39,0-4.099,0.018-5.022,1.917c-0.799,1.643-0.548,4.997,2.723,5.36c0.352,0.039,0.767,0,1.121,0
								c5.629,0,11.259,0,16.888,0c5.088,0,6.283,0,11.371,0C356.926,262.597,356.928,263.991,355.595,263.991L355.595,263.991z"/>
						</g>
					</g>
					<g style="opacity:0.2;">
						<g>
							<path style="fill:#FFFFFF;" d="M355.595,263.991c-10.894,0-17.912,0.132-28.803,0c-7.461-0.091-7.862-9.725-0.544-10.064
								c5.101-0.236,10.349,0,15.46,0c5.927,0,7.961,0,13.888,0c1.331,0,1.333,1.393,0,1.393c-10.325,0-16.756,0-27.082,0
								c-2.39,0-4.099,0.018-5.022,1.917c-0.799,1.643-0.548,4.997,2.723,5.36c0.352,0.039,0.767,0,1.121,0
								c5.629,0,11.259,0,16.888,0c5.088,0,6.283,0,11.371,0C356.926,262.597,356.928,263.991,355.595,263.991L355.595,263.991z"/>
						</g>
					</g>
				</g>
			</g>
		</g>
		<g>
			<g>
				<g>
					<path style="fill:#407BFF;" d="M293.052,237.315l64.939-0.255c0,0-1.534-7.879-2.394-8.054
						c-0.848-0.176-11.928-8.852-24.135-3.913c-2.668,1.072-4.597,1.879-5.978,2.469c-1.386-0.579-3.322-1.371-5.998-2.422
						c-12.258-4.843-23.258,3.921-24.116,4.103C294.524,229.424,293.052,237.315,293.052,237.315z"/>
					<path style="opacity:0.6;fill:#FFFFFF;" d="M293.051,237.315l64.94-0.255l-0.037-0.193c-0.246-1.218-1.576-7.696-2.361-7.862
						c-0.036-0.012-0.085-0.024-0.145-0.06c-1.548-0.755-12.24-8.608-23.98-3.854c-2.676,1.073-4.605,1.877-5.979,2.474
						c-1.391-0.586-3.326-1.375-5.998-2.427c-12.261-4.841-23.262,3.919-24.118,4.103
						C294.529,229.425,293.051,237.315,293.051,237.315z"/>
				</g>
				<g>
					<path style="fill:#407BFF;" d="M285.637,237.344l65.725-0.258c0,0-1.552-7.974-2.422-8.152
						c-0.858-0.178-12.067-7.752-24.423-2.753c-2.7,1.085-6.04,5.276-6.04,5.276s-3.373-4.164-6.081-5.228
						c-12.406-4.901-23.544,2.761-24.412,2.945C287.127,229.358,285.637,237.344,285.637,237.344z"/>
					<path style="opacity:0.8;fill:#FFFFFF;" d="M285.637,237.344l65.725-0.258c0,0-1.552-7.974-2.422-8.152
						c-0.858-0.178-12.067-7.752-24.423-2.753c-2.7,1.085-6.04,5.276-6.04,5.276s-3.373-4.164-6.081-5.228
						c-12.406-4.901-23.544,2.761-24.412,2.945C287.127,229.358,285.637,237.344,285.637,237.344z"/>
				</g>
				<g>
					<g>
						<polygon style="fill:#407BFF;" points="318.19,233.654 320.293,237.429 315.351,237.448 						"/>
					</g>
					<g style="opacity:0.3;">
						<polygon points="318.19,233.654 320.293,237.429 315.351,237.448 						"/>
					</g>
				</g>
				<path style="opacity:0.1;" d="M349.025,228.969c0.45,0.904,0.804,1.832,1.062,2.809c0.625,2.4,1.276,5.307,1.276,5.307
					l6.628-0.026l-0.037-0.193c-0.246-1.218-1.576-7.696-2.361-7.862c-0.036-0.012-0.085-0.024-0.145-0.06L349.025,228.969z"/>
				<g>
					<g>
						<path style="fill:#263238;" d="M283.137,239.788l32.226,0.622l0.072-0.061c1.359-1.225,3.424-1.233,4.793-0.019l0.073,0.06
							l33.187-0.565l8.378-0.13l-0.639-2.871l-40.939,0.161c-0.703-0.649-1.586-0.972-2.467-0.968
							c-0.893,0.004-1.785,0.333-2.471,0.988l-31.414,0.075L283.137,239.788z"/>
					</g>
				</g>
				<g style="opacity:0.3;">
					<polygon points="352.827,236.862 353.492,239.82 361.87,239.692 361.222,236.829 					"/>
				</g>
			</g>
			<g>
				<path style="fill:#407BFF;" d="M315.329,231.899c0,0-5.076-5.789-11.204-4.689C304.125,227.209,308.42,226.655,315.329,231.899z
					"/>
				<path style="opacity:0.4;fill:#FFFFFF;" d="M315.329,231.899c0,0-5.076-5.789-11.204-4.689
					C304.125,227.209,308.42,226.655,315.329,231.899z"/>
			</g>
			<g>
				<path style="fill:#407BFF;" d="M327.382,234.52c0,0,6.749-3.705,12.132-0.577C339.514,233.943,335.668,231.954,327.382,234.52z"
					/>
				<path style="opacity:0.4;fill:#FFFFFF;" d="M327.382,234.52c0,0,6.749-3.705,12.132-0.577
					C339.514,233.943,335.668,231.954,327.382,234.52z"/>
			</g>
			<g>
				<path style="fill:#407BFF;" d="M320.976,232.557c0,0,5.388-5.501,11.445-4.064C332.421,228.493,328.164,227.702,320.976,232.557
					z"/>
				<path style="opacity:0.4;fill:#FFFFFF;" d="M320.976,232.557c0,0,5.388-5.501,11.445-4.064
					C332.421,228.493,328.164,227.702,320.976,232.557z"/>
			</g>
			<g>
				<path style="fill:#407BFF;" d="M307.276,231.839c0,0-6.759-3.686-12.134-0.543C295.142,231.296,298.983,229.296,307.276,231.839
					z"/>
				<path style="opacity:0.4;fill:#FFFFFF;" d="M307.276,231.839c0,0-6.759-3.686-12.134-0.543
					C295.142,231.296,298.983,229.296,307.276,231.839z"/>
			</g>
		</g>
		<g>
			<path style="fill:#263238;" d="M288.639,249.234l0.366-0.692c0.354,0.26,0.82,0.404,1.279,0.404c0.493,0,0.803-0.172,0.803-0.454
				c0-0.621-1.922-0.288-1.922-1.523c0-0.798,0.698-1.313,1.772-1.313c0.521,0,1.002,0.116,1.34,0.332l-0.338,0.687
				c-0.293-0.199-0.67-0.299-1.052-0.299c-0.521,0-0.825,0.199-0.825,0.476c-0.006,0.637,1.922,0.305,1.922,1.495
				c0,0.804-0.709,1.318-1.789,1.318C289.565,249.666,288.966,249.477,288.639,249.234z"/>
			<path style="fill:#263238;" d="M297.065,246.93c0,0.986-0.726,1.601-1.883,1.601h-0.864l-0.21,1.069h-0.903l0.775-3.877h1.567
				C296.516,245.723,297.065,246.171,297.065,246.93z M296.156,247.008c0-0.377-0.266-0.555-0.72-0.555h-0.704l-0.271,1.347h0.759
				C295.813,247.8,296.156,247.523,296.156,247.008z"/>
			<path style="fill:#263238;" d="M300.593,248.769h-1.806l-0.504,0.831h-0.958l2.509-3.877h0.886l0.953,3.877h-0.897
				L300.593,248.769z M300.443,248.088l-0.327-1.496l-0.914,1.496H300.443z"/>
			<path style="fill:#263238;" d="M307.233,245.723l-0.775,3.877h-0.737l-1.446-2.426l-0.487,2.426h-0.886l0.775-3.877h0.742
				l1.446,2.432l0.482-2.432H307.233z"/>
			<path style="fill:#263238;" d="M308.978,245.723h0.903l-0.775,3.877h-0.903L308.978,245.723z"/>
			<path style="fill:#263238;" d="M310.641,249.234l0.366-0.692c0.354,0.26,0.82,0.404,1.279,0.404c0.493,0,0.803-0.172,0.803-0.454
				c0-0.621-1.922-0.288-1.922-1.523c0-0.798,0.698-1.313,1.772-1.313c0.52,0,1.003,0.116,1.34,0.332l-0.338,0.687
				c-0.294-0.199-0.67-0.299-1.052-0.299c-0.521,0-0.825,0.199-0.825,0.476c-0.006,0.637,1.922,0.305,1.922,1.495
				c0,0.804-0.709,1.318-1.789,1.318C311.566,249.666,310.968,249.477,310.641,249.234z"/>
			<path style="fill:#263238;" d="M319.538,245.723l-0.775,3.877h-0.898l0.316-1.578h-1.756l-0.316,1.578h-0.903l0.775-3.877h0.903
				l-0.305,1.522h1.756l0.305-1.522H319.538z"/>
		</g>
	</g>
</g>
<g id="Desk">
	<g id="Layer_9">
		<g>
			<g>
				<g>
					<polygon style="fill:#263238;" points="164.977,287.439 164.977,413.019 161.717,413.019 158.816,293.539 154.977,293.539 
						154.977,287.439 					"/>
					<g>
						<polygon style="fill:#263238;" points="162.083,413.016 158.976,413.016 154.976,287.443 159.083,287.443 						"/>
					</g>
					<g style="opacity:0.3;">
						<polygon style="fill:#FFFFFF;" points="161.483,413.016 158.976,413.016 155.258,293.681 158.765,293.681 						"/>
					</g>
					<polygon style="opacity:0.5;fill:#FFFFFF;" points="164.977,287.439 164.977,413.019 161.717,413.019 158.816,293.539 
						154.977,293.539 154.977,287.439 					"/>
				</g>
				<g>
					<g>
						<g>
							<g>
								<g>
									<polygon style="fill:#263238;" points="360.547,413.016 357.44,413.016 353.44,287.443 357.547,287.443 									"/>
									<polygon style="opacity:0.3;fill:#FFFFFF;" points="360.547,413.016 357.44,413.016 353.44,287.443 357.547,287.443 
																			"/>
								</g>
								<g>
									<polygon style="fill:#263238;" points="310.44,287.443 310.44,413.016 313.73,413.016 317.598,293.536 357.283,293.536 
										360.184,413.016 363.44,413.016 363.44,287.443 									"/>
									<polygon style="opacity:0.5;fill:#FFFFFF;" points="310.44,287.443 310.44,413.016 313.73,413.016 317.598,293.536 
										357.283,293.536 360.184,413.016 363.44,413.016 363.44,287.443 									"/>
								</g>
								<g>
									<polygon style="fill:#263238;" points="310.44,413.016 307.334,413.016 306.334,287.443 310.44,287.443 									"/>
									<polygon style="opacity:0.3;fill:#FFFFFF;" points="310.44,413.016 307.334,413.016 306.334,287.443 310.44,287.443 
																			"/>
								</g>
							</g>
							<g>
								<g>
									<polygon style="fill:#263238;" points="154.774,287.439 154.774,293.539 118.934,293.539 115.064,413.019 111.774,413.019 
										111.774,287.439 									"/>
									<polygon style="opacity:0.5;fill:#FFFFFF;" points="154.774,287.439 154.774,293.539 118.934,293.539 115.064,413.019 
										111.774,413.019 111.774,287.439 									"/>
									<polygon style="opacity:0.3;fill:none;" points="154.774,287.439 154.774,293.539 118.934,293.539 115.064,413.019 
										111.774,413.019 111.774,287.439 									"/>
								</g>
								<g>
									<polygon style="fill:#263238;" points="111.774,413.016 108.667,413.016 107.667,287.443 111.774,287.443 									"/>
								</g>
								<g style="opacity:0.3;">
									<polygon style="fill:#FFFFFF;" points="111.774,413.016 108.667,413.016 107.667,287.443 111.774,287.443 									"/>
								</g>
							</g>
							<g>
								<g>
									<rect x="102.23" y="279.776" style="fill:#263238;" width="205.647" height="7.667"/>
									<rect x="102.23" y="279.776" style="opacity:0.8;fill:#FFFFFF;" width="205.647" height="7.667"/>
								</g>
								<g>
									<rect x="303.102" y="279.776" style="fill:#263238;" width="65.775" height="7.667"/>
									<rect x="303.102" y="279.776" style="opacity:0.6;fill:#FFFFFF;" width="65.775" height="7.667"/>
								</g>
							</g>
						</g>
					</g>
				</g>
			</g>
			<g>
				<g>
					<g>
						<path style="fill:#263238;" d="M132.522,277.658v1.06c0,0.549,0.445,0.994,0.994,0.994h38.025c0.506,0,0.916-0.41,0.916-0.916
							v-1.021c0-0.506-0.41-0.916-0.916-0.916h-9.456c-1.074,0-1.889-0.968-1.706-2.027l3.317-19.163h-21.598l-9.247,20.463
							C132.634,276.612,132.522,277.132,132.522,277.658z"/>
						<path style="opacity:0.2;fill:#FFFFFF;" d="M172.456,277.774v1.025c0,0.507-0.407,0.914-0.914,0.914h-38.024
							c-0.549,0-0.998-0.449-0.998-0.993v-1.062c0-0.28,0.032-0.56,0.095-0.835c0.058-0.238,0.132-0.47,0.232-0.692l9.25-20.46h21.6
							l-3.318,19.16c-0.021,0.116-0.032,0.227-0.026,0.338c0.016,0.803,0.597,1.495,1.373,1.653
							c0.116,0.027,0.232,0.037,0.359,0.037h9.456C172.05,276.86,172.456,277.272,172.456,277.774z"/>
						<g>
							<g>
								<path style="fill:#263238;" d="M131.628,276.133l9.247-20.463h1.223l-9.247,20.463c-0.217,0.479-0.329,0.999-0.329,1.525
									v1.06c0,0.549,0.445,0.994,0.994,0.994h-1.222c-0.549,0-0.994-0.445-0.994-0.994v-1.06
									C131.299,277.132,131.412,276.612,131.628,276.133z"/>
							</g>
						</g>
						<polygon style="opacity:0.3;" points="142.098,255.67 163.696,255.67 162.849,260.56 139.888,260.56 						"/>
					</g>
					<g>
						<g>
							<g>
								<path style="fill:#263238;" d="M201.159,257.819h-92.147c-1.861,0-3.5-1.508-3.664-3.369l-5.826-66.587
									c-0.163-1.861,1.214-3.369,3.075-3.369h92.147c1.861,0,3.504,1.508,3.664,3.369l5.826,66.587
									C204.398,256.311,203.02,257.819,201.159,257.819z"/>
							</g>
						</g>
						<path style="fill:#407BFF;" d="M107.97,245.215h92.026c1.009,0,1.755-0.818,1.667-1.827l-4.815-55.034
							c-0.088-1.009-0.978-1.827-1.987-1.827h-92.026c-1.009,0-1.755,0.818-1.667,1.827l4.815,55.034
							C106.072,244.397,106.961,245.215,107.97,245.215z"/>
						<path style="opacity:0.6;fill:#FFFFFF;" d="M107.97,245.215h92.026c1.009,0,1.755-0.818,1.667-1.827l-4.815-55.034
							c-0.088-1.009-0.978-1.827-1.987-1.827h-92.026c-1.009,0-1.755,0.818-1.667,1.827l4.815,55.034
							C106.072,244.397,106.961,245.215,107.97,245.215z"/>
						<g>
							<path style="fill:#407BFF;" d="M100.559,184.494h2.037c-1.86,0-3.237,1.508-3.074,3.369l5.826,66.587
								c0.163,1.861,1.803,3.369,3.663,3.369h-2.037c-1.861,0-3.501-1.508-3.664-3.369l-5.826-66.587
								C97.322,186.002,98.698,184.494,100.559,184.494z"/>
							<path style="opacity:0.3;fill:#FFFFFF;" d="M100.559,184.494h2.037c-1.86,0-3.237,1.508-3.074,3.369l5.826,66.587
								c0.163,1.861,1.803,3.369,3.663,3.369h-2.037c-1.861,0-3.501-1.508-3.664-3.369l-5.826-66.587
								C97.322,186.002,98.698,184.494,100.559,184.494z"/>
						</g>
						<g>
							<g>
								<polygon style="fill:#FFFFFF;stroke:#407BFF;stroke-miterlimit:10;" points="185.26,237.09 119.24,237.09 115.77,197.36 
									181.79,197.36 								"/>
							</g>
							<g>
								<g>
									<line style="fill:#407BFF;stroke:#263238;stroke-miterlimit:10;" x1="126.727" y1="209.594" x2="145.077" y2="209.594"/>
									<line style="fill:#407BFF;stroke:#263238;stroke-miterlimit:10;" x1="122.055" y1="215.396" x2="145.585" y2="215.396"/>
									<line style="fill:#407BFF;stroke:#263238;stroke-miterlimit:10;" x1="122.562" y1="221.198" x2="146.092" y2="221.198"/>
									<line style="fill:#407BFF;stroke:#263238;stroke-miterlimit:10;" x1="123.07" y1="227" x2="146.6" y2="227"/>
									<line style="fill:#407BFF;stroke:#263238;stroke-miterlimit:10;" x1="123.577" y1="232.802" x2="147.107" y2="232.802"/>
								</g>
							</g>
							<g>
								<g>
									<line style="fill:#407BFF;stroke:#407BFF;stroke-miterlimit:10;" x1="159.378" y1="209.594" x2="177.728" y2="209.594"/>
									<line style="fill:#407BFF;stroke:#407BFF;stroke-miterlimit:10;" x1="154.706" y1="215.396" x2="178.236" y2="215.396"/>
									<line style="fill:#407BFF;stroke:#407BFF;stroke-miterlimit:10;" x1="155.214" y1="221.198" x2="178.744" y2="221.198"/>
									<line style="fill:#407BFF;stroke:#407BFF;stroke-miterlimit:10;" x1="155.721" y1="227" x2="179.251" y2="227"/>
									<line style="fill:#407BFF;stroke:#407BFF;stroke-miterlimit:10;" x1="156.229" y1="232.802" x2="167.994" y2="232.802"/>
								</g>
							</g>
							<g>
								<path d="M134.692,201.822h-0.933v-0.55h2.541v0.55h-0.933v2.366h-0.675V201.822z"/>
								<path d="M138.518,204.189l-0.563-0.813h-0.033h-0.587v0.813h-0.675v-2.916h1.262c0.779,0,1.267,0.404,1.267,1.058
									c0,0.438-0.221,0.758-0.6,0.92l0.654,0.938H138.518z M137.885,201.822h-0.55v1.017h0.55c0.413,0,0.621-0.192,0.621-0.508
									C138.505,202.01,138.297,201.822,137.885,201.822z"/>
								<path d="M141.64,203.564h-1.354l-0.258,0.625h-0.691l1.3-2.916h0.667l1.304,2.916h-0.708L141.64,203.564z M141.428,203.051
									l-0.462-1.116l-0.462,1.116H141.428z"/>
								<path d="M145.583,201.273v2.916h-0.554l-1.454-1.771v1.771h-0.667v-2.916h0.558l1.45,1.77v-1.77H145.583z"/>
								<path d="M146.042,203.901l0.229-0.508c0.246,0.179,0.612,0.304,0.962,0.304c0.4,0,0.563-0.133,0.563-0.313
									c0-0.545-1.696-0.17-1.696-1.253c0-0.496,0.4-0.908,1.229-0.908c0.367,0,0.742,0.087,1.012,0.258l-0.208,0.512
									c-0.271-0.154-0.55-0.229-0.809-0.229c-0.399,0-0.554,0.15-0.554,0.333c0,0.538,1.695,0.167,1.695,1.237
									c0,0.487-0.404,0.904-1.237,0.904C146.767,204.238,146.301,204.101,146.042,203.901z"/>
								<path d="M148.927,201.273h0.675v2.366h1.462v0.55h-2.137V201.273z"/>
								<path d="M153.387,203.564h-1.354l-0.258,0.625h-0.691l1.3-2.916h0.667l1.304,2.916h-0.708L153.387,203.564z
									 M153.174,203.051l-0.462-1.116l-0.462,1.116H153.174z"/>
								<path d="M155.113,201.822h-0.933v-0.55h2.541v0.55h-0.933v2.366h-0.675V201.822z"/>
								<path d="M157.082,201.273h0.675v2.916h-0.675V201.273z"/>
								<path d="M158.264,202.73c0-0.866,0.675-1.508,1.595-1.508c0.916,0,1.596,0.637,1.596,1.508s-0.679,1.508-1.596,1.508
									C158.939,204.238,158.264,203.597,158.264,202.73z M160.772,202.73c0-0.554-0.392-0.933-0.913-0.933
									c-0.521,0-0.912,0.379-0.912,0.933s0.392,0.933,0.912,0.933C160.38,203.664,160.772,203.285,160.772,202.73z"/>
								<path d="M164.635,201.273v2.916h-0.554l-1.454-1.771v1.771h-0.667v-2.916h0.558l1.45,1.77v-1.77H164.635z"/>
							</g>
						</g>
						<g style="opacity:0.2;">
							<polygon style="fill:#FFFFFF;" points="140.773,186.527 137.233,186.527 124.759,245.215 128.298,245.215 							"/>
							<polygon style="fill:#FFFFFF;" points="121.181,245.215 133.656,186.527 120.356,186.527 107.882,245.215 							"/>
						</g>
					</g>
				</g>
				<path style="opacity:0.2;fill:#FFFFFF;" d="M139.092,277.781v0.974c0,0.529,0.429,0.958,0.958,0.958h31.492
					c0.506,0,0.915-0.41,0.915-0.915v-1.021c0-0.506-0.41-0.915-0.915-0.915h-9.458c-0.122,0-0.24-0.013-0.354-0.038h-21.679
					C139.521,276.823,139.092,277.252,139.092,277.781z"/>
				<path style="opacity:0.2;" d="M132.617,276.823h29.112c-0.78-0.156-1.358-0.848-1.375-1.654H133.36L132.617,276.823z"/>
			</g>
			<g>
				<g>
					<g>
						<path style="fill:#263238;" d="M223.612,277.093h3.103c0.327,0,0.592-0.242,0.592-0.541v-2.995
							c0-0.298-0.265-0.541-0.592-0.541h-2.228c-0.268,0-0.503,0.165-0.572,0.401l-0.875,2.995
							C222.939,276.757,223.222,277.093,223.612,277.093z"/>
						<path style="fill:#263238;" d="M219.323,277.093h3.103c0.327,0,0.593-0.242,0.593-0.541v-2.995
							c0-0.298-0.265-0.541-0.593-0.541h-2.228c-0.268,0-0.503,0.165-0.572,0.401l-0.875,2.995
							C218.65,276.757,218.934,277.093,219.323,277.093z"/>
						<path style="fill:#263238;" d="M215.035,277.093h3.103c0.327,0,0.592-0.242,0.592-0.541v-2.995
							c0-0.298-0.265-0.541-0.592-0.541h-2.228c-0.268,0-0.503,0.165-0.573,0.401l-0.875,2.995
							C214.362,276.757,214.646,277.093,215.035,277.093z"/>
						<path style="fill:#263238;" d="M210.747,277.093h3.103c0.327,0,0.592-0.242,0.592-0.541v-2.995
							c0-0.298-0.265-0.541-0.592-0.541h-2.228c-0.269,0-0.503,0.165-0.572,0.401l-0.875,2.995
							C210.074,276.757,210.357,277.093,210.747,277.093z"/>
						<path style="fill:#263238;" d="M206.458,277.093h3.103c0.327,0,0.592-0.242,0.592-0.541v-2.995
							c0-0.298-0.265-0.541-0.592-0.541h-2.228c-0.268,0-0.503,0.165-0.572,0.401l-0.875,2.995
							C205.785,276.757,206.069,277.093,206.458,277.093z"/>
						<path style="fill:#263238;" d="M202.17,277.093h3.103c0.327,0,0.592-0.242,0.592-0.541v-2.995
							c0-0.298-0.265-0.541-0.592-0.541h-2.228c-0.268,0-0.503,0.165-0.572,0.401l-0.875,2.995
							C201.497,276.757,201.78,277.093,202.17,277.093z"/>
						<path style="fill:#263238;" d="M197.881,277.093h3.103c0.327,0,0.593-0.242,0.593-0.541v-2.995
							c0-0.298-0.265-0.541-0.593-0.541h-2.228c-0.268,0-0.503,0.165-0.572,0.401l-0.875,2.995
							C197.209,276.757,197.492,277.093,197.881,277.093z"/>
						<path style="fill:#263238;" d="M193.593,277.093h3.103c0.327,0,0.592-0.242,0.592-0.541v-2.995
							c0-0.298-0.265-0.541-0.592-0.541h-2.228c-0.268,0-0.503,0.165-0.573,0.401l-0.875,2.995
							C192.92,276.757,193.204,277.093,193.593,277.093z"/>
						<path style="fill:#263238;" d="M189.305,277.093h3.103c0.327,0,0.592-0.242,0.592-0.541v-2.995
							c0-0.298-0.265-0.541-0.592-0.541h-2.228c-0.268,0-0.503,0.165-0.572,0.401l-0.875,2.995
							C188.632,276.757,188.915,277.093,189.305,277.093z"/>
						<path style="fill:#263238;" d="M185.016,277.093h3.103c0.327,0,0.593-0.242,0.593-0.541v-2.995
							c0-0.298-0.265-0.541-0.593-0.541h-2.228c-0.268,0-0.503,0.165-0.572,0.401l-0.875,2.995
							C184.343,276.757,184.627,277.093,185.016,277.093z"/>
						<path style="fill:#263238;" d="M180.728,277.093h3.103c0.327,0,0.592-0.242,0.592-0.541v-2.995
							c0-0.298-0.265-0.541-0.592-0.541h-2.228c-0.268,0-0.503,0.165-0.572,0.401l-0.875,2.995
							C180.055,276.757,180.338,277.093,180.728,277.093z"/>
						<path style="fill:#263238;" d="M176.439,277.093h3.103c0.327,0,0.593-0.242,0.593-0.541v-2.995
							c0-0.298-0.265-0.541-0.593-0.541h-2.228c-0.269,0-0.503,0.165-0.573,0.401l-0.875,2.995
							C175.767,276.757,176.05,277.093,176.439,277.093z"/>
						<path style="fill:#263238;" d="M172.151,277.093h3.103c0.327,0,0.592-0.242,0.592-0.541v-2.995
							c0-0.298-0.265-0.541-0.592-0.541h-2.228c-0.268,0-0.503,0.165-0.573,0.401l-0.875,2.995
							C171.478,276.757,171.762,277.093,172.151,277.093z"/>
						<path style="fill:#263238;" d="M167.863,277.093h3.103c0.327,0,0.592-0.242,0.592-0.541v-2.995
							c0-0.298-0.265-0.541-0.592-0.541h-2.228c-0.268,0-0.503,0.165-0.572,0.401l-0.875,2.995
							C167.19,276.757,167.473,277.093,167.863,277.093z"/>
						<path style="fill:#263238;" d="M163.574,277.093h3.103c0.327,0,0.592-0.242,0.592-0.541v-2.995
							c0-0.298-0.265-0.541-0.592-0.541h-2.228c-0.268,0-0.503,0.165-0.572,0.401l-0.875,2.995
							C162.902,276.757,163.185,277.093,163.574,277.093z"/>
					</g>
					<path style="fill:#263238;" d="M160.451,277.418c0,1.304,1.166,2.357,2.583,2.357h64.208c1.429,0,2.583-1.053,2.583-2.357
						c0-0.652-0.288-1.247-0.752-1.67c-0.451-0.412-1.078-0.675-1.768-0.686h-64.271c-0.251,0-0.489,0.034-0.715,0.091
						C161.241,275.439,160.451,276.342,160.451,277.418z"/>
				</g>
				<path style="opacity:0.2;fill:#FFFFFF;" d="M160.451,277.418c0,1.304,1.166,2.357,2.583,2.357h64.208
					c1.429,0,2.583-1.053,2.583-2.357c0-0.652-0.288-1.247-0.752-1.67c-0.451-0.412-1.078-0.675-1.768-0.686h-64.271
					c-0.251,0-0.489,0.034-0.715,0.091C161.241,275.439,160.451,276.342,160.451,277.418z"/>
				<path style="fill:#263238;" d="M160.451,277.418c0,1.304,1.166,2.357,2.583,2.357h21.741c1.041-0.309,1.793-1.201,1.793-2.254
					c0-0.149-0.013-0.286-0.038-0.423c-0.1-0.48-0.351-0.915-0.727-1.247c-0.163-0.149-0.351-0.275-0.552-0.389
					c-0.1-0.046-0.201-0.091-0.301-0.137c-0.314-0.115-0.639-0.172-0.991-0.172h-21.64
					C161.241,275.439,160.451,276.342,160.451,277.418z"/>
			</g>
		</g>
	</g>
</g>
<g id="Speech_Bubbles">
	<g>
		<g>
			<g>
				<g id="freepik--speech-bubbles--inject-120_1_">
					<path style="fill:#FFFFFF;stroke:#407BFF;stroke-miterlimit:10;" d="M264.824,139.066l-5.483,0.03
						c-1.522,0.059-2.804-1.126-2.863-2.648c-0.006-0.151,0.001-0.303,0.02-0.452l2.561-24.083c0.238-1.767,1.723-3.1,3.506-3.145
						l52.382-0.312c1.522-0.059,2.804,1.126,2.863,2.648c0.006,0.151-0.001,0.302-0.02,0.453l-2.567,24.086
						c-0.239,1.767-1.727,3.098-3.509,3.14l-39.282,0.236l-0.184,0.048c1.182,3.417,6.198,8.016,6.198,8.016
						s-8.182-1.126-13.806-8.064"/>
				</g>
			</g>
			<g>
				<path style="fill:#263238;" d="M277.712,118.377l-2.198,10.991h-2.025l0.926-4.663h-5.684l-0.926,4.663h-2.041l2.198-10.991
					h2.042l-0.895,4.506h5.684l0.895-4.506H277.712z"/>
				<path style="fill:#263238;" d="M286.94,125.757h-6.658c0.032,1.335,0.801,2.057,2.418,2.057c0.958,0,1.837-0.315,2.418-0.864
					l0.817,1.366c-0.879,0.785-2.151,1.162-3.439,1.162c-2.528,0-4.129-1.46-4.129-3.69c0-2.842,2.025-4.898,4.836-4.898
					c2.324,0,3.863,1.381,3.863,3.674C287.066,124.987,287.019,125.396,286.94,125.757z M280.456,124.454h4.805
					c0.016-1.288-0.848-1.994-2.151-1.994C281.774,122.46,280.817,123.229,280.456,124.454z"/>
				<path style="fill:#263238;" d="M290.328,117.718h1.962l-2.324,11.65h-1.962L290.328,117.718z"/>
				<path style="fill:#263238;" d="M294.864,117.718h1.962l-2.324,11.65h-1.962L294.864,117.718z"/>
				<path style="fill:#263238;" d="M297.154,125.788c0-2.811,2.073-4.898,4.978-4.898c2.481,0,4.082,1.444,4.082,3.674
					c0,2.811-2.088,4.914-4.993,4.914C298.756,129.478,297.154,128.002,297.154,125.788z M304.236,124.658
					c0-1.303-0.801-2.104-2.214-2.104c-1.665,0-2.889,1.288-2.889,3.14c0,1.303,0.801,2.104,2.214,2.104
					C303.011,127.798,304.236,126.511,304.236,124.658z"/>
			</g>
		</g>
		<g>
			<g>
				<g id="freepik--speech-bubbles--inject-120_2_">
					<path style="fill:#FFFFFF;stroke:#407BFF;stroke-miterlimit:10;" d="M310.534,169.771l52.382-0.312
						c1.522-0.059,2.804,1.127,2.863,2.648c0.006,0.151-0.001,0.303-0.02,0.453l-2.567,24.086c-0.239,1.767-1.727,3.098-3.509,3.14
						l-23.146,0.236c-5.624,6.937-13.806,8.064-13.806,8.064s5.016-4.599,6.198-8.016l-21.62,0.03
						c-1.522,0.059-2.804-1.126-2.863-2.648c-0.006-0.151,0.001-0.302,0.02-0.452l2.561-24.083
						C307.267,171.15,308.752,169.817,310.534,169.771z"/>
				</g>
			</g>
			<g>
				<path style="fill:#263238;" d="M327.44,179.382l-2.198,10.991h-3.706l0.816-4.051h-3.423l-0.816,4.051h-3.706l2.198-10.991
					h3.706l-0.785,3.894h3.423l0.785-3.894H327.44z"/>
				<path style="fill:#263238;" d="M328.079,186.557c0-2.826,2.229-4.93,5.354-4.93c2.842,0,4.664,1.57,4.664,3.972
					c0,2.827-2.23,4.931-5.354,4.931C329.9,190.53,328.079,188.96,328.079,186.557z M334.5,185.772c0-0.801-0.471-1.35-1.272-1.35
					c-0.926,0-1.554,0.769-1.554,1.962c0,0.801,0.471,1.351,1.272,1.351C333.873,187.735,334.5,186.965,334.5,185.772z"/>
				<path style="fill:#263238;" d="M341.42,178.722h3.549l-2.324,11.65h-3.549L341.42,178.722z"/>
				<path style="fill:#263238;" d="M356.146,181.784l-1.711,8.588h-3.344l0.157-0.785c-0.628,0.612-1.397,0.942-2.324,0.942
					c-1.711,0-3.533-1.413-3.533-3.973c0-2.826,2.104-4.93,4.569-4.93c1.052,0,1.931,0.298,2.449,1.068l0.188-0.911H356.146z
					 M350.258,187.735c0.926,0,1.554-0.77,1.554-1.963c0-0.801-0.471-1.35-1.272-1.35c-0.926,0-1.554,0.769-1.554,1.962
					C348.986,187.185,349.457,187.735,350.258,187.735z"/>
			</g>
		</g>
		<g>
			<g>
				<path style="fill:#FFFFFF;stroke:#407BFF;stroke-miterlimit:10;" d="M195.332,171.913c-1.182,3.417-6.198,8.016-6.198,8.016
					s8.182-1.126,13.806-8.064l0.42-0.129l5.478,0.03c1.512,0.059,3.001-1.126,3.327-2.648c0.032-0.151,0.052-0.303,0.06-0.453
					l1.653-24.083c0.071-1.767-1.181-3.1-2.955-3.145l-52.328-0.312c-1.512-0.059-3.001,1.127-3.327,2.648
					c-0.032,0.151-0.052,0.303-0.06,0.453l-1.648,24.086c-0.07,1.767,1.185,3.098,2.96,3.14l39.241,0.236"/>
			</g>
			<g>
				<path style="fill:#263238;" d="M167.481,157.8c0,1.746-1.457,2.637-3.66,2.637h-4.057l1.686-8.427h3.732
					c1.686,0,2.661,0.638,2.661,1.854c0,1.131-0.662,1.89-1.553,2.227C167.024,156.344,167.481,156.921,167.481,157.8z
					 M166.29,157.813c0-0.855-0.626-1.156-1.758-1.156h-2.817l-0.554,2.805h2.745C165.423,159.462,166.29,158.884,166.29,157.813z
					 M162.449,152.985l-0.542,2.697h2.468c1.325,0,2.215-0.542,2.215-1.625c0-0.734-0.614-1.071-1.661-1.071H162.449z"/>
				<path style="fill:#263238;" d="M168.71,157.752c0-2.155,1.565-3.756,3.744-3.756c1.818,0,2.986,1.071,2.986,2.745
					c0,2.167-1.553,3.768-3.732,3.768C169.89,160.509,168.71,159.414,168.71,157.752z M174.273,156.801
					c0-1.132-0.686-1.794-1.902-1.794c-1.433,0-2.492,1.12-2.492,2.697c0,1.12,0.686,1.794,1.902,1.794
					C173.225,159.498,174.273,158.378,174.273,156.801z"/>
				<path style="fill:#263238;" d="M183.206,156.115c0,0.229-0.024,0.482-0.072,0.747l-0.71,3.576h-1.156l0.71-3.576
					c0.036-0.192,0.061-0.373,0.061-0.53c0-0.83-0.482-1.3-1.481-1.3c-1.24,0-2.083,0.662-2.36,2.035l-0.674,3.371h-1.156
					l1.264-6.381h1.107l-0.157,0.819c0.59-0.602,1.397-0.879,2.312-0.879C182.339,153.996,183.206,154.754,183.206,156.115z"/>
				<path style="fill:#263238;" d="M181.967,162.46l0.505-0.891c0.241,0.192,0.566,0.301,0.915,0.301c0.638,0,1-0.337,1.156-1.132
					l1.336-6.682h1.156l-1.336,6.682c-0.277,1.397-1.035,2.107-2.323,2.107C182.81,162.845,182.316,162.712,181.967,162.46z
					 M186.073,152.13c0-0.445,0.337-0.807,0.831-0.807c0.421,0,0.734,0.313,0.734,0.674c0,0.494-0.349,0.83-0.843,0.83
					C186.374,152.828,186.073,152.515,186.073,152.13z"/>
				<path style="fill:#263238;" d="M187.976,157.752c0-2.155,1.565-3.756,3.744-3.756c1.818,0,2.986,1.071,2.986,2.745
					c0,2.167-1.553,3.768-3.732,3.768C189.155,160.509,187.976,159.414,187.976,157.752z M193.538,156.801
					c0-1.132-0.686-1.794-1.902-1.794c-1.433,0-2.492,1.12-2.492,2.697c0,1.12,0.686,1.794,1.902,1.794
					C192.49,159.498,193.538,158.378,193.538,156.801z"/>
				<path style="fill:#263238;" d="M202.845,154.056l-1.264,6.381h-1.108l0.157-0.819c-0.59,0.602-1.396,0.891-2.288,0.891
					c-1.396,0-2.287-0.783-2.287-2.143c0-0.229,0.024-0.469,0.072-0.734l0.71-3.576h1.156l-0.71,3.588
					c-0.036,0.192-0.061,0.373-0.061,0.542c0,0.819,0.481,1.289,1.457,1.289c1.204,0,2.059-0.674,2.335-2.035l0.674-3.383H202.845z"
					/>
				<path style="fill:#263238;" d="M208.504,153.996l-0.217,1.12c-0.108-0.012-0.181-0.012-0.301-0.012
					c-1.276,0-2.119,0.674-2.408,2.143l-0.638,3.19h-1.156l1.264-6.381h1.108l-0.181,0.951
					C206.554,154.285,207.36,153.996,208.504,153.996z"/>
			</g>
		</g>
		<g>
			<g>
				<g id="freepik--speech-bubbles--inject-120_3_">
					<path style="fill:#FFFFFF;stroke:#407BFF;stroke-miterlimit:10;" d="M378.555,219.483l52.382-0.312
						c1.522-0.059,2.804,1.126,2.863,2.648c0.006,0.151-0.001,0.302-0.02,0.453l-2.567,24.086c-0.239,1.767-1.727,3.098-3.509,3.14
						l-39.282,0.236c-5.624,6.937-13.806,8.064-13.806,8.064s5.016-4.599,6.198-8.016l-5.483,0.03
						c-1.522,0.059-2.804-1.126-2.863-2.648c-0.006-0.151,0.001-0.303,0.02-0.452l2.561-24.083
						C375.288,220.862,376.773,219.529,378.555,219.483z"/>
				</g>
			</g>
			<g>
				<path style="fill:#263238;" d="M389.023,231.2l-1.425,7.124h-1.252l0.926-4.672l-3.043,3.857h-0.59l-1.628-3.948l-0.947,4.763
					h-1.262l1.425-7.124h1.079l1.883,4.742l3.695-4.742H389.023z"/>
				<path style="fill:#263238;" d="M395,235.983h-4.315c0.02,0.865,0.519,1.333,1.567,1.333c0.621,0,1.19-0.203,1.567-0.56
					l0.529,0.886c-0.57,0.509-1.394,0.753-2.228,0.753c-1.639,0-2.677-0.946-2.677-2.392c0-1.843,1.313-3.176,3.135-3.176
					c1.506,0,2.503,0.896,2.503,2.382C395.082,235.484,395.052,235.749,395,235.983z M390.797,235.139h3.114
					c0.01-0.835-0.549-1.293-1.394-1.293C391.652,233.846,391.031,234.345,390.797,235.139z"/>
				<path style="fill:#263238;" d="M399.932,232.828l-0.234,1.211c-0.112-0.02-0.193-0.03-0.315-0.03
					c-0.997,0-1.659,0.509-1.883,1.639l-0.54,2.677h-1.272l1.079-5.435h1.211l-0.142,0.702
					C398.335,233.021,399.016,232.828,399.932,232.828z"/>
				<path style="fill:#263238;" d="M405.935,234.671c0,0.193-0.031,0.417-0.071,0.641l-0.601,3.013h-1.272l0.59-2.982
					c0.03-0.152,0.041-0.295,0.041-0.417c0-0.631-0.346-0.987-1.089-0.987c-0.926,0-1.567,0.509-1.781,1.567l-0.57,2.819h-1.272
					l1.506-7.552h1.272l-0.529,2.656c0.488-0.417,1.109-0.601,1.791-0.601C405.141,232.828,405.935,233.47,405.935,234.671z"/>
				<path style="fill:#263238;" d="M413.318,232.89l-1.079,5.435h-1.211l0.112-0.56c-0.458,0.407-1.059,0.631-1.771,0.631
					c-1.333,0-2.392-0.886-2.392-2.392c0-1.853,1.323-3.176,3.064-3.176c0.845,0,1.486,0.285,1.852,0.865l0.153-0.804H413.318z
					 M411.568,235.27c0-0.845-0.519-1.363-1.435-1.363c-1.079,0-1.872,0.835-1.872,2.035c0,0.845,0.519,1.364,1.435,1.364
					C410.774,237.307,411.568,236.472,411.568,235.27z"/>
				<path style="fill:#263238;" d="M420.245,235.21c0,1.852-1.323,3.185-3.053,3.185c-0.885,0-1.557-0.315-1.903-0.936l-0.173,0.865
					h-1.211l1.506-7.552h1.272l-0.519,2.626c0.448-0.366,1.018-0.57,1.689-0.57C419.186,232.828,420.245,233.703,420.245,235.21z
					 M418.962,235.27c0-0.845-0.519-1.363-1.435-1.363c-1.079,0-1.873,0.835-1.873,2.035c0,0.845,0.519,1.364,1.435,1.364
					C418.168,237.307,418.962,236.472,418.962,235.27z"/>
				<path style="fill:#263238;" d="M427.272,232.89l-1.079,5.435h-1.211l0.112-0.56c-0.458,0.407-1.059,0.631-1.771,0.631
					c-1.333,0-2.392-0.886-2.392-2.392c0-1.853,1.323-3.176,3.064-3.176c0.845,0,1.486,0.285,1.852,0.865L426,232.89H427.272z
					 M425.522,235.27c0-0.845-0.519-1.363-1.435-1.363c-1.079,0-1.873,0.835-1.873,2.035c0,0.845,0.519,1.364,1.435,1.364
					C424.728,237.307,425.522,236.472,425.522,235.27z"/>
			</g>
		</g>
		<g>
			<g>
				<g>
					<g id="freepik--speech-bubbles--inject-120_4_">
						<path style="fill:#FFFFFF;stroke:#407BFF;stroke-miterlimit:10;" d="M114.68,301.944l-52.382,0.312
							c-1.522,0.059-2.804-1.126-2.863-2.648c-0.006-0.151,0.001-0.303,0.02-0.453l2.567-24.087c0.239-1.767,1.727-3.098,3.509-3.14
							l39.282-0.236c5.624-6.937,13.806-8.064,13.806-8.064s-5.016,4.599-6.198,8.016l5.483-0.03
							c1.522-0.059,2.804,1.126,2.863,2.648c0.006,0.151-0.001,0.303-0.02,0.453l-2.561,24.083
							C117.948,300.566,116.463,301.898,114.68,301.944z"/>
					</g>
				</g>
			</g>
			<g>
				<path style="fill:#263238;" d="M71.723,288.293c0-3.815,2.811-6.595,6.893-6.595c2.025,0,3.674,0.738,4.459,2.072l-2.245,1.79
					c-0.518-0.832-1.319-1.287-2.418-1.287c-2.136,0-3.549,1.648-3.549,3.815c0,1.476,1.005,2.465,2.685,2.465
					c0.989,0,1.9-0.377,2.685-1.272l1.837,1.806c-1.24,1.491-2.857,2.041-4.82,2.041C73.874,293.129,71.723,291.166,71.723,288.293z
					"/>
				<path style="fill:#263238;" d="M84.39,284.398h2.967l-1.695,8.511h-2.968L84.39,284.398z M84.579,281.98
					c0-0.957,0.753-1.695,1.916-1.695c1.052,0,1.727,0.612,1.727,1.429c0,1.021-0.77,1.743-1.931,1.743
					C85.238,283.457,84.579,282.797,84.579,281.98z"/>
				<path style="fill:#263238;" d="M98.284,284.398l-1.696,8.511h-2.827l0.173-0.801c-0.659,0.612-1.476,0.941-2.465,0.941
					c-1.837,0-3.596-1.397-3.596-3.878c0-2.826,2.073-4.914,4.616-4.914c1.146,0,2.072,0.345,2.607,1.161l0.204-1.021H98.284z
					 M94.531,288.277c0-0.989-0.597-1.633-1.617-1.633c-1.178,0-2.025,0.957-2.025,2.386c0,0.989,0.597,1.618,1.617,1.618
					C93.699,290.648,94.531,289.69,94.531,288.277z"/>
				<path style="fill:#263238;" d="M98.767,289.172c0-2.811,2.182-4.914,5.229-4.914c2.716,0,4.459,1.522,4.459,3.862
					c0,2.826-2.183,4.93-5.229,4.93C100.51,293.05,98.767,291.512,98.767,289.172z M105.424,288.277
					c0-0.989-0.581-1.633-1.602-1.633c-1.193,0-2.025,0.957-2.025,2.386c0,0.989,0.581,1.618,1.602,1.618
					C104.592,290.648,105.424,289.69,105.424,288.277z"/>
			</g>
		</g>
	</g>
</g>
</svg>
